{"glyphs":{"0":{"ha":904,"x_min":0,"x_max":0,"o":"m 452 -22 b 848 492 699 -22 848 176 b 452 1001 848 808 697 1001 b 56 491 208 1001 56 807 b 452 -22 56 174 206 -22 z m 452 142 b 264 491 336 142 264 269 b 452 837 264 711 337 837 b 640 491 568 837 640 712 b 452 142 640 268 569 142 z "},"1":{"ha":667,"x_min":0,"x_max":0,"o":"m 314 0 l 517 0 l 517 979 l 313 979 l 60 803 l 60 618 l 310 791 l 314 791 z "},"2":{"ha":838,"x_min":0,"x_max":0,"o":"m 58 684 l 58 681 l 248 681 l 248 684 b 412 841 248 774 317 841 b 568 709 503 841 568 783 b 438 493 568 642 537 592 l 69 138 l 69 0 l 781 0 l 781 163 l 339 163 l 339 167 l 578 397 b 767 718 686 504 767 595 b 419 1000 767 881 625 1000 b 58 684 205 1000 58 869 z "},"3":{"ha":875,"x_min":0,"x_max":0,"o":"m 307 427 l 428 427 b 606 283 538 427 606 373 b 431 143 606 201 534 143 b 250 280 323 143 256 197 l 54 280 b 429 -22 63 100 208 -22 b 814 271 654 -22 814 95 b 574 507 814 406 720 494 l 574 511 b 776 739 694 532 776 619 b 433 1000 776 896 637 1000 b 73 701 221 1000 80 882 l 261 701 b 425 843 267 787 330 843 b 583 711 526 843 583 791 b 426 575 583 631 519 575 l 307 575 z "},"4":{"ha":900,"x_min":0,"x_max":0,"o":"m 536 0 l 730 0 l 730 174 l 858 174 l 858 338 l 730 338 l 730 979 l 441 979 b 49 349 241 683 134 511 l 49 174 l 536 174 z m 229 338 b 536 833 308 491 393 625 l 540 833 l 540 332 l 229 332 z "},"5":{"ha":868,"x_min":0,"x_max":0,"o":"m 446 -22 b 823 327 670 -22 823 119 b 502 655 823 517 689 655 b 284 548 402 655 324 614 l 280 548 l 302 816 l 764 816 l 764 979 l 142 979 l 94 416 l 277 416 b 448 506 311 472 374 506 b 628 321 554 506 628 430 b 447 140 628 215 554 140 b 267 280 352 140 279 197 l 78 280 b 446 -22 84 103 235 -22 z "},"6":{"ha":893,"x_min":0,"x_max":0,"o":"m 464 -22 b 840 323 683 -22 840 122 b 516 646 840 509 702 646 b 256 487 391 646 295 583 l 252 487 b 466 839 247 708 330 839 b 625 730 543 839 606 795 l 827 730 b 467 1001 800 890 654 1001 b 57 481 214 1001 57 806 b 139 158 57 351 85 241 b 464 -22 208 41 323 -22 z m 462 141 b 283 319 361 141 283 220 b 463 492 283 418 361 492 b 640 317 565 492 640 418 b 462 141 640 219 562 141 z "},"7":{"ha":795,"x_min":0,"x_max":0,"o":"m 120 0 l 335 0 l 743 814 l 743 979 l 43 979 l 43 816 l 541 816 l 541 812 z "},"8":{"ha":906,"x_min":0,"x_max":0,"o":"m 453 -22 b 850 264 688 -22 850 95 b 620 516 850 393 757 493 l 620 520 b 810 741 734 547 810 635 b 453 1000 810 892 663 1000 b 96 742 243 1000 96 891 b 286 520 96 634 172 547 l 286 516 b 56 265 150 494 56 394 b 453 -22 56 96 216 -22 z m 453 127 b 270 280 345 127 270 192 b 453 433 270 368 345 433 b 635 280 561 433 635 368 b 453 127 635 192 561 127 z m 453 582 b 298 717 362 582 298 639 b 453 852 298 795 362 852 b 608 717 543 852 608 795 b 453 582 608 639 543 582 z "},"9":{"ha":896,"x_min":0,"x_max":0,"o":"m 428 -22 b 839 498 686 -22 839 174 b 757 822 839 629 811 739 b 431 1001 689 938 572 1001 b 54 656 212 1001 54 857 b 378 333 54 470 194 333 b 639 493 507 333 604 397 b 640 493 639 493 640 493 b 641 493 640 493 641 493 b 643 493 641 493 642 493 b 431 140 648 269 566 140 b 269 250 353 140 288 184 l 66 250 b 428 -22 94 90 241 -22 z m 432 487 b 254 662 330 487 254 562 b 433 838 254 760 333 838 b 611 661 533 838 611 760 b 432 487 611 562 534 487 z "}," ":{"ha":275,"x_min":0,"x_max":0,"o":""},"A":{"ha":958,"x_min":0,"x_max":0,"o":"m 722 0 l 940 0 l 600 979 l 359 979 l 19 0 l 229 0 l 304 237 l 648 237 z m 473 791 l 478 791 l 604 391 l 348 391 z "},"À":{"ha":958,"x_min":0,"x_max":0,"o":"m 722 0 l 940 0 l 600 979 l 359 979 l 19 0 l 229 0 l 304 237 l 648 237 z m 473 791 l 478 791 l 604 391 l 348 391 z m 399 1060 l 555 1060 l 402 1267 l 218 1267 z "},"Á":{"ha":958,"x_min":0,"x_max":0,"o":"m 722 0 l 940 0 l 600 979 l 359 979 l 19 0 l 229 0 l 304 237 l 648 237 z m 473 791 l 478 791 l 604 391 l 348 391 z m 557 1057 l 739 1263 l 555 1263 l 401 1057 z "},"Ä":{"ha":958,"x_min":0,"x_max":0,"o":"m 722 0 l 940 0 l 600 979 l 359 979 l 19 0 l 229 0 l 304 237 l 648 237 z m 473 791 l 478 791 l 604 391 l 348 391 z m 341 1065 b 432 1154 393 1065 432 1105 b 341 1242 432 1202 393 1242 b 250 1154 290 1242 250 1202 b 341 1065 250 1105 290 1065 z m 618 1065 b 709 1154 669 1065 709 1105 b 618 1242 709 1202 669 1242 b 527 1154 566 1242 527 1202 b 618 1065 527 1105 566 1065 z "},"Ǟ":{"ha":958,"x_min":0,"x_max":0,"o":"m 722 0 l 940 0 l 600 979 l 359 979 l 19 0 l 229 0 l 304 237 l 648 237 z m 473 791 l 478 791 l 604 391 l 348 391 z m 344 1221 b 255 1135 293 1221 255 1183 b 344 1048 255 1087 293 1048 b 433 1135 395 1048 433 1087 b 344 1221 433 1183 395 1221 z m 245 1406 l 245 1305 l 714 1305 l 714 1406 z m 615 1221 b 526 1135 564 1221 526 1183 b 615 1048 526 1087 564 1048 b 704 1135 666 1048 704 1087 b 615 1221 704 1183 666 1221 z "},"Å":{"ha":958,"x_min":0,"x_max":0,"o":"m 722 0 l 940 0 l 600 979 l 359 979 l 19 0 l 229 0 l 304 237 l 648 237 z m 473 791 l 478 791 l 604 391 l 348 391 z m 479 1029 b 619 1166 555 1029 619 1091 b 479 1303 619 1242 555 1303 b 340 1166 404 1303 340 1242 b 479 1029 340 1091 404 1029 z m 479 1105 b 417 1166 446 1105 417 1133 b 479 1227 417 1200 446 1227 b 542 1166 513 1227 542 1200 b 479 1105 542 1133 513 1105 z "},"Ǻ":{"ha":958,"x_min":0,"x_max":0,"o":"m 722 0 l 940 0 l 600 979 l 359 979 l 19 0 l 229 0 l 304 237 l 648 237 z m 473 791 l 478 791 l 604 391 l 348 391 z m 479 1020 b 615 1152 556 1020 615 1078 b 479 1284 615 1227 556 1284 b 344 1152 403 1284 344 1227 b 479 1020 344 1078 403 1020 z m 479 1095 b 421 1152 447 1095 421 1120 b 479 1211 421 1185 447 1211 b 538 1152 512 1211 538 1185 b 479 1095 538 1120 512 1095 z m 493 1457 l 410 1326 l 551 1326 l 656 1457 z "},"Ã":{"ha":958,"x_min":0,"x_max":0,"o":"m 722 0 l 940 0 l 600 979 l 359 979 l 19 0 l 229 0 l 304 237 l 648 237 z m 473 791 l 478 791 l 604 391 l 348 391 z m 576 1060 b 724 1248 658 1060 724 1131 l 616 1248 b 570 1164 615 1194 600 1164 b 390 1255 521 1164 488 1255 b 241 1069 306 1255 241 1189 l 349 1069 b 396 1152 349 1119 365 1152 b 576 1060 446 1152 481 1060 z "},"Ằ":{"ha":958,"x_min":0,"x_max":0,"o":"m 722 0 l 940 0 l 600 979 l 359 979 l 19 0 l 229 0 l 304 237 l 648 237 z m 473 791 l 478 791 l 604 391 l 348 391 z m 722 1245 l 600 1245 b 479 1145 594 1188 549 1145 b 359 1245 410 1145 365 1188 l 237 1245 b 479 1044 241 1135 332 1044 b 722 1245 627 1044 718 1135 z m 565 1274 l 439 1442 l 273 1442 l 418 1274 z "},"Ǡ":{"ha":958,"x_min":0,"x_max":0,"o":"m 722 0 l 940 0 l 600 979 l 359 979 l 19 0 l 229 0 l 304 237 l 648 237 z m 473 791 l 478 791 l 604 391 l 348 391 z m 479 1055 b 573 1145 533 1055 573 1095 b 479 1235 573 1194 533 1235 b 386 1145 426 1235 386 1194 b 479 1055 386 1095 426 1055 z m 714 1406 l 245 1406 l 245 1305 l 714 1305 z "},"Ḁ":{"ha":958,"x_min":0,"x_max":0,"o":"m 722 0 l 940 0 l 600 979 l 359 979 l 19 0 l 229 0 l 304 237 l 648 237 z m 473 791 l 478 791 l 604 391 l 348 391 z m 479 -364 b 627 -220 560 -364 627 -299 b 479 -75 627 -140 560 -75 b 332 -220 399 -75 332 -140 b 479 -364 332 -299 399 -364 z m 479 -283 b 415 -220 444 -283 415 -255 b 479 -156 415 -184 444 -156 b 545 -220 515 -156 545 -184 b 479 -283 545 -255 515 -283 z "},"Â":{"ha":958,"x_min":0,"x_max":0,"o":"m 722 0 l 940 0 l 600 979 l 359 979 l 19 0 l 229 0 l 304 237 l 648 237 z m 473 791 l 478 791 l 604 391 l 348 391 z m 404 1258 l 221 1043 l 371 1043 l 477 1173 l 482 1173 l 588 1043 l 738 1043 l 555 1258 z "},"Ậ":{"ha":958,"x_min":0,"x_max":0,"o":"m 722 0 l 940 0 l 600 979 l 359 979 l 19 0 l 229 0 l 304 237 l 648 237 z m 473 791 l 478 791 l 604 391 l 348 391 z m 404 1258 l 221 1043 l 371 1043 l 477 1173 l 482 1173 l 588 1043 l 738 1043 l 555 1258 z m 479 -309 b 581 -208 536 -309 581 -264 b 479 -107 581 -153 536 -107 b 378 -208 422 -107 378 -153 b 479 -309 378 -264 422 -309 z "},"Ấ":{"ha":958,"x_min":0,"x_max":0,"o":"m 722 0 l 940 0 l 600 979 l 359 979 l 19 0 l 229 0 l 304 237 l 648 237 z m 473 791 l 478 791 l 604 391 l 348 391 z m 401 1234 l 219 1043 l 373 1043 l 477 1156 l 482 1156 l 586 1043 l 740 1043 l 558 1234 z m 553 1274 l 700 1274 l 846 1442 l 679 1442 z "},"Ẫ":{"ha":958,"x_min":0,"x_max":0,"o":"m 722 0 l 940 0 l 600 979 l 359 979 l 19 0 l 229 0 l 304 237 l 648 237 z m 473 791 l 478 791 l 604 391 l 348 391 z m 570 1272 b 719 1442 654 1272 719 1339 l 611 1442 b 562 1372 608 1399 591 1372 b 389 1455 515 1372 485 1455 b 240 1286 302 1455 240 1390 l 348 1286 b 397 1356 350 1326 367 1356 b 570 1272 444 1356 474 1272 z m 401 1231 l 219 1043 l 373 1043 l 477 1154 l 482 1154 l 586 1043 l 740 1043 l 558 1231 z "},"Ầ":{"ha":958,"x_min":0,"x_max":0,"o":"m 722 0 l 940 0 l 600 979 l 359 979 l 19 0 l 229 0 l 304 237 l 648 237 z m 473 791 l 478 791 l 604 391 l 348 391 z m 401 1234 l 219 1043 l 373 1043 l 477 1156 l 482 1156 l 586 1043 l 740 1043 l 558 1234 z m 730 1274 l 604 1442 l 437 1442 l 583 1274 z "},"Ẩ":{"ha":958,"x_min":0,"x_max":0,"o":"m 722 0 l 940 0 l 600 979 l 359 979 l 19 0 l 229 0 l 304 237 l 648 237 z m 473 791 l 478 791 l 604 391 l 348 391 z m 401 1234 l 219 1043 l 373 1043 l 477 1156 l 482 1156 l 586 1043 l 740 1043 l 558 1234 z m 559 1343 b 626 1355 576 1350 604 1355 b 688 1308 663 1355 688 1336 b 637 1244 688 1282 672 1257 l 700 1178 b 802 1318 764 1202 802 1259 b 651 1447 802 1397 743 1447 b 559 1429 617 1447 581 1440 z "},"Ă":{"ha":958,"x_min":0,"x_max":0,"o":"m 722 0 l 940 0 l 600 979 l 359 979 l 19 0 l 229 0 l 304 237 l 648 237 z m 473 791 l 478 791 l 604 391 l 348 391 z m 237 1261 b 479 1044 243 1144 329 1044 b 722 1261 630 1044 716 1144 l 600 1261 b 479 1145 594 1191 549 1145 b 359 1261 410 1145 365 1191 z "},"Ắ":{"ha":958,"x_min":0,"x_max":0,"o":"m 722 0 l 940 0 l 600 979 l 359 979 l 19 0 l 229 0 l 304 237 l 648 237 z m 473 791 l 478 791 l 604 391 l 348 391 z m 237 1245 b 479 1044 241 1135 332 1044 b 722 1245 627 1044 718 1135 l 600 1245 b 479 1145 594 1188 549 1145 b 359 1245 410 1145 365 1188 z m 394 1274 l 541 1274 l 686 1442 l 519 1442 z "},"Ẵ":{"ha":958,"x_min":0,"x_max":0,"o":"m 722 0 l 940 0 l 600 979 l 359 979 l 19 0 l 229 0 l 304 237 l 648 237 z m 473 791 l 478 791 l 604 391 l 348 391 z m 237 1238 b 479 1044 241 1139 332 1044 b 722 1238 627 1044 718 1139 l 600 1238 b 479 1145 594 1189 549 1145 b 359 1238 410 1145 365 1189 z m 570 1272 b 719 1442 654 1272 719 1339 l 611 1442 b 562 1372 608 1399 591 1372 b 389 1455 515 1372 485 1455 b 240 1289 302 1455 240 1390 l 348 1289 b 397 1356 350 1326 367 1356 b 570 1272 444 1356 474 1272 z "},"Ẳ":{"ha":958,"x_min":0,"x_max":0,"o":"m 722 0 l 940 0 l 600 979 l 359 979 l 19 0 l 229 0 l 304 237 l 648 237 z m 473 791 l 478 791 l 604 391 l 348 391 z m 353 1374 b 420 1388 370 1382 395 1388 b 484 1341 457 1388 484 1369 b 422 1275 484 1314 460 1288 l 473 1211 b 595 1357 543 1236 595 1298 b 446 1477 595 1430 537 1477 b 353 1459 412 1477 372 1469 z m 237 1245 b 479 1044 241 1128 341 1044 b 722 1245 618 1044 718 1128 l 600 1245 b 479 1145 594 1185 545 1145 b 359 1245 414 1145 365 1185 z "},"Ặ":{"ha":958,"x_min":0,"x_max":0,"o":"m 722 0 l 940 0 l 600 979 l 359 979 l 19 0 l 229 0 l 304 237 l 648 237 z m 473 791 l 478 791 l 604 391 l 348 391 z m 237 1261 b 479 1044 243 1144 329 1044 b 722 1261 630 1044 716 1144 l 600 1261 b 479 1145 594 1191 549 1145 b 359 1261 410 1145 365 1191 z m 479 -309 b 581 -208 536 -309 581 -264 b 479 -107 581 -153 536 -107 b 378 -208 422 -107 378 -153 b 479 -309 378 -264 422 -309 z "},"Ȃ":{"ha":958,"x_min":0,"x_max":0,"o":"m 722 0 l 940 0 l 600 979 l 359 979 l 19 0 l 229 0 l 304 237 l 648 237 z m 473 791 l 478 791 l 604 391 l 348 391 z m 237 1044 l 359 1044 b 479 1160 365 1114 410 1160 b 600 1044 549 1160 594 1114 l 722 1044 b 479 1261 716 1160 630 1261 b 237 1044 329 1261 243 1160 z "},"Ǎ":{"ha":958,"x_min":0,"x_max":0,"o":"m 722 0 l 940 0 l 600 979 l 359 979 l 19 0 l 229 0 l 304 237 l 648 237 z m 473 791 l 478 791 l 604 391 l 348 391 z m 404 1046 l 555 1046 l 738 1261 l 588 1261 l 482 1131 l 477 1131 l 371 1261 l 221 1261 z "},"Ȧ":{"ha":958,"x_min":0,"x_max":0,"o":"m 722 0 l 940 0 l 600 979 l 359 979 l 19 0 l 229 0 l 304 237 l 648 237 z m 473 791 l 478 791 l 604 391 l 348 391 z m 479 1059 b 581 1160 536 1059 581 1104 b 479 1261 581 1215 536 1261 b 378 1160 422 1261 378 1215 b 479 1059 378 1104 422 1059 z "},"Ạ":{"ha":958,"x_min":0,"x_max":0,"o":"m 722 0 l 940 0 l 600 979 l 359 979 l 19 0 l 229 0 l 304 237 l 648 237 z m 473 791 l 478 791 l 604 391 l 348 391 z m 479 -309 b 581 -208 536 -309 581 -264 b 479 -107 581 -153 536 -107 b 378 -208 422 -107 378 -153 b 479 -309 378 -264 422 -309 z "},"Ả":{"ha":958,"x_min":0,"x_max":0,"o":"m 722 0 l 940 0 l 600 979 l 359 979 l 19 0 l 229 0 l 304 237 l 648 237 z m 473 791 l 478 791 l 604 391 l 348 391 z m 354 1207 b 426 1220 374 1215 404 1220 b 492 1171 465 1220 492 1200 b 426 1098 492 1141 465 1112 l 484 1027 b 612 1181 559 1056 612 1116 b 451 1314 612 1263 549 1314 b 354 1297 415 1314 378 1308 z "},"Ȁ":{"ha":958,"x_min":0,"x_max":0,"o":"m 722 0 l 940 0 l 600 979 l 359 979 l 19 0 l 229 0 l 304 237 l 648 237 z m 473 791 l 478 791 l 604 391 l 348 391 z m 535 1057 l 691 1057 l 538 1263 l 354 1263 z m 264 1057 l 420 1057 l 267 1263 l 83 1263 z "},"Ā":{"ha":958,"x_min":0,"x_max":0,"o":"m 722 0 l 940 0 l 600 979 l 359 979 l 19 0 l 229 0 l 304 237 l 648 237 z m 473 791 l 478 791 l 604 391 l 348 391 z m 714 1199 l 245 1199 l 245 1099 l 714 1099 z "},"Ą":{"ha":958,"x_min":0,"x_max":0,"o":"m 473 791 l 478 791 l 604 391 l 348 391 z m 893 -299 l 893 -193 b 841 -199 882 -196 861 -199 b 759 -134 792 -199 759 -176 b 906 -3 759 -81 821 -26 l 939 1 l 600 979 l 359 979 l 19 0 l 229 0 l 304 237 l 648 237 l 722 0 b 614 -168 647 -48 614 -106 b 795 -313 614 -255 689 -313 b 893 -299 838 -313 873 -308 z "},"B":{"ha":888,"x_min":0,"x_max":0,"o":"m 515 0 b 853 280 724 0 853 108 b 623 517 853 410 755 507 l 623 522 b 806 734 726 538 806 627 b 507 979 806 884 691 979 l 81 979 l 81 0 z m 286 826 l 454 826 b 605 703 550 826 605 781 b 433 572 605 620 543 572 l 286 572 z m 286 153 l 286 437 l 458 437 b 644 296 578 437 644 388 b 463 153 644 203 581 153 z "},"Ḇ":{"ha":888,"x_min":0,"x_max":0,"o":"m 515 0 b 853 280 724 0 853 108 b 623 517 853 410 755 507 l 623 522 b 806 734 726 538 806 627 b 507 979 806 884 691 979 l 81 979 l 81 0 z m 286 826 l 454 826 b 605 703 550 826 605 781 b 433 572 605 620 543 572 l 286 572 z m 286 153 l 286 437 l 458 437 b 644 296 578 437 644 388 b 463 153 644 203 581 153 z m 659 -155 l 190 -155 l 190 -256 l 659 -256 z "},"Ḅ":{"ha":888,"x_min":0,"x_max":0,"o":"m 515 0 b 853 280 724 0 853 108 b 623 517 853 410 755 507 l 623 522 b 806 734 726 538 806 627 b 507 979 806 884 691 979 l 81 979 l 81 0 z m 286 826 l 454 826 b 605 703 550 826 605 781 b 433 572 605 620 543 572 l 286 572 z m 286 153 l 286 437 l 458 437 b 644 296 578 437 644 388 b 463 153 644 203 581 153 z m 425 -309 b 526 -208 481 -309 526 -264 b 425 -107 526 -153 481 -107 b 323 -208 368 -107 323 -153 b 425 -309 323 -264 368 -309 z "},"Ḃ":{"ha":888,"x_min":0,"x_max":0,"o":"m 515 0 b 853 280 724 0 853 108 b 623 517 853 410 755 507 l 623 522 b 806 734 726 538 806 627 b 507 979 806 884 691 979 l 81 979 l 81 0 z m 286 826 l 454 826 b 605 703 550 826 605 781 b 433 572 605 620 543 572 l 286 572 z m 286 153 l 286 437 l 458 437 b 644 296 578 437 644 388 b 463 153 644 203 581 153 z m 425 1059 b 526 1160 481 1059 526 1104 b 425 1261 526 1215 481 1261 b 323 1160 368 1261 323 1215 b 425 1059 323 1104 368 1059 z "},"C":{"ha":989,"x_min":0,"x_max":0,"o":"m 514 -17 b 945 340 754 -17 922 121 l 745 340 b 515 153 724 224 636 153 b 260 490 358 153 260 281 b 514 826 260 696 359 826 b 745 627 633 826 726 747 l 944 627 b 514 996 928 846 749 996 b 51 490 231 996 51 805 b 514 -17 51 174 229 -17 z "},"Ć":{"ha":989,"x_min":0,"x_max":0,"o":"m 514 -17 b 945 340 754 -17 922 121 l 745 340 b 515 153 724 224 636 153 b 260 490 358 153 260 281 b 514 826 260 696 359 826 b 745 627 633 826 726 747 l 944 627 b 514 996 928 846 749 996 b 51 490 231 996 51 805 b 514 -17 51 174 229 -17 z m 583 1057 l 764 1264 l 581 1264 l 427 1057 z "},"Č":{"ha":989,"x_min":0,"x_max":0,"o":"m 514 -17 b 945 340 754 -17 922 121 l 745 340 b 515 153 724 224 636 153 b 260 490 358 153 260 281 b 514 826 260 696 359 826 b 745 627 633 826 726 747 l 944 627 b 514 996 928 846 749 996 b 51 490 231 996 51 805 b 514 -17 51 174 229 -17 z m 429 1047 l 581 1047 l 764 1262 l 614 1262 l 508 1132 l 503 1132 l 397 1262 l 247 1262 z "},"Ĉ":{"ha":989,"x_min":0,"x_max":0,"o":"m 514 -17 b 945 340 754 -17 922 121 l 745 340 b 515 153 724 224 636 153 b 260 490 358 153 260 281 b 514 826 260 696 359 826 b 745 627 633 826 726 747 l 944 627 b 514 996 928 846 749 996 b 51 490 231 996 51 805 b 514 -17 51 174 229 -17 z m 429 1259 l 247 1044 l 397 1044 l 503 1174 l 508 1174 l 614 1044 l 764 1044 l 581 1259 z "},"Ċ":{"ha":989,"x_min":0,"x_max":0,"o":"m 514 -17 b 945 340 754 -17 922 121 l 745 340 b 515 153 724 224 636 153 b 260 490 358 153 260 281 b 514 826 260 696 359 826 b 745 627 633 826 726 747 l 944 627 b 514 996 928 846 749 996 b 51 490 231 996 51 805 b 514 -17 51 174 229 -17 z m 505 1059 b 606 1160 562 1059 606 1105 b 505 1261 606 1216 562 1261 b 404 1160 448 1261 404 1216 b 505 1059 404 1105 448 1059 z "},"Ç":{"ha":989,"x_min":0,"x_max":0,"o":"m 745 340 b 515 153 724 224 636 153 b 260 490 358 153 260 281 b 514 826 260 696 359 826 b 745 627 633 826 726 747 l 944 627 b 514 996 928 846 749 996 b 51 490 231 996 51 805 b 458 -14 51 195 206 9 l 425 -87 l 425 -154 l 468 -154 b 551 -191 528 -154 551 -163 b 476 -228 551 -216 527 -228 b 400 -220 450 -228 416 -224 l 400 -302 b 496 -312 418 -309 458 -313 b 665 -186 600 -311 665 -268 b 537 -75 665 -117 614 -75 l 565 -15 b 945 340 778 3 923 137 z "},"Ḉ":{"ha":989,"x_min":0,"x_max":0,"o":"m 764 1264 l 581 1264 l 427 1057 l 583 1057 z m 745 340 b 515 153 724 224 636 153 b 260 490 358 153 260 281 b 514 826 260 696 359 826 b 745 627 633 826 726 747 l 944 627 b 514 996 928 846 749 996 b 51 490 231 996 51 805 b 458 -14 51 195 206 9 l 425 -87 l 425 -154 l 468 -154 b 551 -191 528 -154 551 -163 b 476 -228 551 -216 527 -228 b 400 -220 450 -228 416 -224 l 400 -302 b 496 -312 418 -309 458 -313 b 665 -186 600 -311 665 -268 b 537 -75 665 -117 614 -75 l 565 -15 b 945 340 778 3 923 137 z "},"D":{"ha":972,"x_min":0,"x_max":0,"o":"m 81 979 l 81 0 l 455 0 b 922 493 749 0 922 182 b 455 979 922 804 749 979 z m 286 810 l 431 810 b 713 492 611 810 713 697 b 431 170 713 281 614 170 l 286 170 z "},"Ḋ":{"ha":972,"x_min":0,"x_max":0,"o":"m 81 979 l 81 0 l 455 0 b 922 493 749 0 922 182 b 455 979 922 804 749 979 z m 286 810 l 431 810 b 713 492 611 810 713 697 b 431 170 713 281 614 170 l 286 170 z m 437 1059 b 538 1160 494 1059 538 1104 b 437 1261 538 1215 494 1261 b 336 1160 380 1261 336 1215 b 437 1059 336 1104 380 1059 z "},"Ḓ":{"ha":972,"x_min":0,"x_max":0,"o":"m 81 979 l 81 0 l 455 0 b 922 493 749 0 922 182 b 455 979 922 804 749 979 z m 286 810 l 431 810 b 713 492 611 810 713 697 b 431 170 713 281 614 170 l 286 170 z m 361 -96 l 178 -311 l 328 -311 l 434 -180 l 439 -180 l 545 -311 l 695 -311 l 513 -96 z "},"Ḑ":{"ha":972,"x_min":0,"x_max":0,"o":"m 81 979 l 81 0 l 455 0 b 922 493 749 0 922 182 b 455 979 922 804 749 979 z m 286 810 l 431 810 b 713 492 611 810 713 697 b 431 170 713 281 614 170 l 286 170 z m 417 -320 l 532 -90 l 358 -90 l 270 -320 z "},"Ḏ":{"ha":972,"x_min":0,"x_max":0,"o":"m 81 979 l 81 0 l 455 0 b 922 493 749 0 922 182 b 455 979 922 804 749 979 z m 286 810 l 431 810 b 713 492 611 810 713 697 b 431 170 713 281 614 170 l 286 170 z m 671 -155 l 202 -155 l 202 -256 l 671 -256 z "},"Ď":{"ha":972,"x_min":0,"x_max":0,"o":"m 81 979 l 81 0 l 455 0 b 922 493 749 0 922 182 b 455 979 922 804 749 979 z m 286 810 l 431 810 b 713 492 611 810 713 697 b 431 170 713 281 614 170 l 286 170 z m 361 1046 l 513 1046 l 695 1261 l 545 1261 l 439 1131 l 434 1131 l 328 1261 l 178 1261 z "},"Ḍ":{"ha":972,"x_min":0,"x_max":0,"o":"m 81 979 l 81 0 l 455 0 b 922 493 749 0 922 182 b 455 979 922 804 749 979 z m 286 810 l 431 810 b 713 492 611 810 713 697 b 431 170 713 281 614 170 l 286 170 z m 437 -309 b 538 -208 494 -309 538 -264 b 437 -107 538 -153 494 -107 b 336 -208 380 -107 336 -153 b 437 -309 336 -264 380 -309 z "},"Đ":{"ha":985,"x_min":0,"x_max":0,"o":"m 300 170 l 300 422 l 473 422 l 473 572 l 300 572 l 300 810 l 444 810 b 726 492 625 810 726 697 b 444 170 726 281 627 170 z m 95 979 l 95 572 l 28 572 l 28 422 l 95 422 l 95 0 l 469 0 b 935 493 762 0 935 182 b 469 979 935 804 762 979 z "},"E":{"ha":796,"x_min":0,"x_max":0,"o":"m 730 170 l 286 170 l 286 416 l 705 416 l 705 574 l 286 574 l 286 810 l 730 810 l 730 979 l 81 979 l 81 0 l 730 0 z "},"È":{"ha":796,"x_min":0,"x_max":0,"o":"m 730 170 l 286 170 l 286 416 l 705 416 l 705 574 l 286 574 l 286 810 l 730 810 l 730 979 l 81 979 l 81 0 l 730 0 z m 326 1060 l 481 1060 l 328 1267 l 144 1267 z "},"Ȅ":{"ha":796,"x_min":0,"x_max":0,"o":"m 730 170 l 286 170 l 286 416 l 705 416 l 705 574 l 286 574 l 286 810 l 730 810 l 730 979 l 81 979 l 81 0 l 730 0 z m 461 1057 l 617 1057 l 464 1263 l 280 1263 z m 190 1057 l 346 1057 l 193 1263 l 9 1263 z "},"É":{"ha":796,"x_min":0,"x_max":0,"o":"m 730 170 l 286 170 l 286 416 l 705 416 l 705 574 l 286 574 l 286 810 l 730 810 l 730 979 l 81 979 l 81 0 l 730 0 z m 484 1057 l 665 1263 l 481 1263 l 328 1057 z "},"Ê":{"ha":796,"x_min":0,"x_max":0,"o":"m 730 170 l 286 170 l 286 416 l 705 416 l 705 574 l 286 574 l 286 810 l 730 810 l 730 979 l 81 979 l 81 0 l 730 0 z m 330 1258 l 147 1043 l 297 1043 l 403 1173 l 408 1173 l 514 1043 l 664 1043 l 481 1258 z "},"Ể":{"ha":796,"x_min":0,"x_max":0,"o":"m 730 170 l 286 170 l 286 416 l 705 416 l 705 574 l 286 574 l 286 810 l 730 810 l 730 979 l 81 979 l 81 0 l 730 0 z m 327 1234 l 145 1043 l 299 1043 l 403 1156 l 408 1156 l 512 1043 l 666 1043 l 484 1234 z m 486 1343 b 552 1355 503 1350 530 1355 b 614 1308 589 1355 614 1336 b 564 1244 614 1282 598 1257 l 626 1178 b 728 1318 690 1202 728 1259 b 577 1447 728 1397 669 1447 b 486 1429 543 1447 507 1440 z "},"Ề":{"ha":796,"x_min":0,"x_max":0,"o":"m 730 170 l 286 170 l 286 416 l 705 416 l 705 574 l 286 574 l 286 810 l 730 810 l 730 979 l 81 979 l 81 0 l 730 0 z m 327 1234 l 145 1043 l 299 1043 l 403 1156 l 408 1156 l 512 1043 l 666 1043 l 484 1234 z m 656 1274 l 530 1442 l 363 1442 l 509 1274 z "},"Ễ":{"ha":796,"x_min":0,"x_max":0,"o":"m 730 170 l 286 170 l 286 416 l 705 416 l 705 574 l 286 574 l 286 810 l 730 810 l 730 979 l 81 979 l 81 0 l 730 0 z m 496 1272 b 645 1442 580 1272 645 1339 l 537 1442 b 488 1372 534 1399 517 1372 b 315 1455 441 1372 411 1455 b 166 1286 229 1455 166 1390 l 274 1286 b 323 1356 276 1326 293 1356 b 496 1272 370 1356 400 1272 z m 327 1231 l 145 1043 l 299 1043 l 403 1154 l 408 1154 l 512 1043 l 666 1043 l 484 1231 z "},"Ệ":{"ha":796,"x_min":0,"x_max":0,"o":"m 730 170 l 286 170 l 286 416 l 705 416 l 705 574 l 286 574 l 286 810 l 730 810 l 730 979 l 81 979 l 81 0 l 730 0 z m 330 1258 l 147 1043 l 297 1043 l 403 1173 l 408 1173 l 514 1043 l 664 1043 l 481 1258 z m 406 -309 b 507 -208 463 -309 507 -264 b 406 -107 507 -153 463 -107 b 304 -208 349 -107 304 -153 b 406 -309 304 -264 349 -309 z "},"Ế":{"ha":796,"x_min":0,"x_max":0,"o":"m 730 170 l 286 170 l 286 416 l 705 416 l 705 574 l 286 574 l 286 810 l 730 810 l 730 979 l 81 979 l 81 0 l 730 0 z m 327 1234 l 145 1043 l 299 1043 l 403 1156 l 408 1156 l 512 1043 l 666 1043 l 484 1234 z m 479 1274 l 626 1274 l 772 1442 l 605 1442 z "},"Ë":{"ha":796,"x_min":0,"x_max":0,"o":"m 730 170 l 286 170 l 286 416 l 705 416 l 705 574 l 286 574 l 286 810 l 730 810 l 730 979 l 81 979 l 81 0 l 730 0 z m 267 1065 b 358 1154 319 1065 358 1105 b 267 1242 358 1202 319 1242 b 176 1154 216 1242 176 1202 b 267 1065 176 1105 216 1065 z m 544 1065 b 635 1154 595 1065 635 1105 b 544 1242 635 1202 595 1242 b 453 1154 492 1242 453 1202 b 544 1065 453 1105 492 1065 z "},"Ẹ":{"ha":796,"x_min":0,"x_max":0,"o":"m 730 170 l 286 170 l 286 416 l 705 416 l 705 574 l 286 574 l 286 810 l 730 810 l 730 979 l 81 979 l 81 0 l 730 0 z m 406 -309 b 507 -208 463 -309 507 -264 b 406 -107 507 -153 463 -107 b 304 -208 349 -107 304 -153 b 406 -309 304 -264 349 -309 z "},"Ȇ":{"ha":796,"x_min":0,"x_max":0,"o":"m 730 170 l 286 170 l 286 416 l 705 416 l 705 574 l 286 574 l 286 810 l 730 810 l 730 979 l 81 979 l 81 0 l 730 0 z m 163 1044 l 286 1044 b 406 1160 291 1114 336 1160 b 526 1044 475 1160 520 1114 l 648 1044 b 406 1261 642 1160 556 1261 b 163 1044 255 1261 169 1160 z "},"Ẻ":{"ha":796,"x_min":0,"x_max":0,"o":"m 730 170 l 286 170 l 286 416 l 705 416 l 705 574 l 286 574 l 286 810 l 730 810 l 730 979 l 81 979 l 81 0 l 730 0 z m 280 1207 b 352 1220 300 1215 330 1220 b 418 1171 391 1220 418 1200 b 352 1098 418 1141 391 1112 l 410 1027 b 538 1181 485 1056 538 1116 b 377 1314 538 1263 475 1314 b 280 1297 341 1314 304 1308 z "},"Ě":{"ha":796,"x_min":0,"x_max":0,"o":"m 730 170 l 286 170 l 286 416 l 705 416 l 705 574 l 286 574 l 286 810 l 730 810 l 730 979 l 81 979 l 81 0 l 730 0 z m 330 1046 l 481 1046 l 664 1261 l 514 1261 l 408 1131 l 403 1131 l 297 1261 l 147 1261 z "},"Ē":{"ha":796,"x_min":0,"x_max":0,"o":"m 730 170 l 286 170 l 286 416 l 705 416 l 705 574 l 286 574 l 286 810 l 730 810 l 730 979 l 81 979 l 81 0 l 730 0 z m 640 1199 l 171 1199 l 171 1099 l 640 1099 z "},"Ḕ":{"ha":796,"x_min":0,"x_max":0,"o":"m 730 170 l 286 170 l 286 416 l 705 416 l 705 574 l 286 574 l 286 810 l 730 810 l 730 979 l 81 979 l 81 0 l 730 0 z m 171 1084 l 640 1084 l 640 1185 l 171 1185 z m 483 1274 l 357 1442 l 191 1442 l 336 1274 z "},"Ḗ":{"ha":796,"x_min":0,"x_max":0,"o":"m 730 170 l 286 170 l 286 416 l 705 416 l 705 574 l 286 574 l 286 810 l 730 810 l 730 979 l 81 979 l 81 0 l 730 0 z m 640 1084 l 640 1185 l 171 1185 l 171 1084 z m 330 1274 l 477 1274 l 623 1442 l 456 1442 z "},"Ẽ":{"ha":796,"x_min":0,"x_max":0,"o":"m 730 170 l 286 170 l 286 416 l 705 416 l 705 574 l 286 574 l 286 810 l 730 810 l 730 979 l 81 979 l 81 0 l 730 0 z m 502 1060 b 650 1248 584 1060 650 1131 l 543 1248 b 496 1164 541 1194 526 1164 b 316 1255 447 1164 414 1255 b 167 1069 232 1255 167 1189 l 275 1069 b 322 1152 275 1119 291 1152 b 502 1060 372 1152 408 1060 z "},"Ḙ":{"ha":796,"x_min":0,"x_max":0,"o":"m 730 170 l 286 170 l 286 416 l 705 416 l 705 574 l 286 574 l 286 810 l 730 810 l 730 979 l 81 979 l 81 0 l 730 0 z m 330 -96 l 147 -311 l 297 -311 l 403 -180 l 408 -180 l 514 -311 l 664 -311 l 481 -96 z "},"Ĕ":{"ha":796,"x_min":0,"x_max":0,"o":"m 730 170 l 286 170 l 286 416 l 705 416 l 705 574 l 286 574 l 286 810 l 730 810 l 730 979 l 81 979 l 81 0 l 730 0 z m 163 1261 b 406 1044 169 1144 255 1044 b 648 1261 556 1044 642 1144 l 526 1261 b 406 1145 520 1191 475 1145 b 286 1261 336 1145 291 1191 z "},"Ḛ":{"ha":796,"x_min":0,"x_max":0,"o":"m 730 170 l 286 170 l 286 416 l 705 416 l 705 574 l 286 574 l 286 810 l 730 810 l 730 979 l 81 979 l 81 0 l 730 0 z m 502 -271 b 650 -83 584 -271 650 -201 l 543 -83 b 496 -168 541 -137 526 -168 b 316 -76 447 -168 414 -76 b 167 -262 232 -76 167 -142 l 275 -262 b 322 -179 275 -212 291 -179 b 502 -271 372 -179 408 -271 z "},"Ė":{"ha":796,"x_min":0,"x_max":0,"o":"m 730 170 l 286 170 l 286 416 l 705 416 l 705 574 l 286 574 l 286 810 l 730 810 l 730 979 l 81 979 l 81 0 l 730 0 z m 406 1059 b 507 1160 463 1059 507 1104 b 406 1261 507 1215 463 1261 b 304 1160 349 1261 304 1215 b 406 1059 304 1104 349 1059 z "},"Ȩ":{"ha":796,"x_min":0,"x_max":0,"o":"m 730 810 l 730 979 l 81 979 l 81 0 l 366 0 l 326 -87 l 326 -154 l 368 -154 b 452 -191 428 -154 452 -163 b 376 -228 452 -216 427 -228 b 300 -220 350 -228 317 -224 l 300 -302 b 397 -312 318 -309 358 -313 b 565 -186 500 -311 565 -268 b 437 -75 565 -117 514 -75 l 472 0 l 730 0 l 730 170 l 286 170 l 286 416 l 705 416 l 705 574 l 286 574 l 286 810 z "},"Ḝ":{"ha":796,"x_min":0,"x_max":0,"o":"m 526 1261 b 406 1145 520 1191 475 1145 b 286 1261 336 1145 291 1191 l 163 1261 b 406 1044 169 1144 255 1044 b 648 1261 556 1044 642 1144 z m 730 810 l 730 979 l 81 979 l 81 0 l 366 0 l 326 -87 l 326 -154 l 368 -154 b 452 -191 428 -154 452 -163 b 376 -228 452 -216 427 -228 b 300 -220 350 -228 317 -224 l 300 -302 b 397 -312 318 -309 358 -313 b 565 -186 500 -311 565 -268 b 437 -75 565 -117 514 -75 l 472 0 l 730 0 l 730 170 l 286 170 l 286 416 l 705 416 l 705 574 l 286 574 l 286 810 z "},"Ę":{"ha":796,"x_min":0,"x_max":0,"o":"m 81 0 l 524 0 l 524 -3 b 418 -169 459 -43 418 -104 b 599 -313 418 -255 494 -313 b 697 -299 643 -313 678 -308 l 697 -193 b 646 -199 686 -196 665 -199 b 563 -134 596 -199 563 -176 b 706 -1 563 -83 622 -26 l 730 5 l 730 170 l 286 170 l 286 416 l 705 416 l 705 574 l 286 574 l 286 810 l 730 810 l 730 979 l 81 979 z "},"F":{"ha":762,"x_min":0,"x_max":0,"o":"m 286 0 l 286 385 l 684 385 l 684 547 l 286 547 l 286 810 l 722 810 l 722 979 l 81 979 l 81 0 z "},"Ḟ":{"ha":762,"x_min":0,"x_max":0,"o":"m 286 0 l 286 385 l 684 385 l 684 547 l 286 547 l 286 810 l 722 810 l 722 979 l 81 979 l 81 0 z m 393 1059 b 494 1160 450 1059 494 1104 b 393 1261 494 1215 450 1261 b 292 1160 336 1261 292 1215 b 393 1059 292 1104 336 1059 z "},"G":{"ha":1010,"x_min":0,"x_max":0,"o":"m 956 411 l 956 522 l 544 522 l 544 372 l 757 372 l 756 357 b 526 153 752 235 659 153 b 260 495 363 153 260 283 b 518 826 260 703 357 826 b 742 663 629 826 712 765 l 947 663 b 517 996 918 861 746 996 b 51 492 230 996 51 806 b 522 -17 51 174 230 -17 b 956 411 795 -17 956 144 z "},"Ǵ":{"ha":1010,"x_min":0,"x_max":0,"o":"m 956 411 l 956 522 l 544 522 l 544 372 l 757 372 l 756 357 b 526 153 752 235 659 153 b 260 495 363 153 260 283 b 518 826 260 703 357 826 b 742 663 629 826 712 765 l 947 663 b 517 996 918 861 746 996 b 51 492 230 996 51 806 b 522 -17 51 174 230 -17 b 956 411 795 -17 956 144 z m 587 1057 l 768 1263 l 585 1263 l 431 1057 z "},"Ǧ":{"ha":1010,"x_min":0,"x_max":0,"o":"m 956 411 l 956 522 l 544 522 l 544 372 l 757 372 l 756 357 b 526 153 752 235 659 153 b 260 495 363 153 260 283 b 518 826 260 703 357 826 b 742 663 629 826 712 765 l 947 663 b 517 996 918 861 746 996 b 51 492 230 996 51 806 b 522 -17 51 174 230 -17 b 956 411 795 -17 956 144 z m 433 1046 l 585 1046 l 768 1261 l 618 1261 l 512 1131 l 507 1131 l 401 1261 l 251 1261 z "},"Ĝ":{"ha":1010,"x_min":0,"x_max":0,"o":"m 956 411 l 956 522 l 544 522 l 544 372 l 757 372 l 756 357 b 526 153 752 235 659 153 b 260 495 363 153 260 283 b 518 826 260 703 357 826 b 742 663 629 826 712 765 l 947 663 b 517 996 918 861 746 996 b 51 492 230 996 51 806 b 522 -17 51 174 230 -17 b 956 411 795 -17 956 144 z m 433 1258 l 251 1043 l 401 1043 l 507 1173 l 512 1173 l 618 1043 l 768 1043 l 585 1258 z "},"Ğ":{"ha":1010,"x_min":0,"x_max":0,"o":"m 956 411 l 956 522 l 544 522 l 544 372 l 757 372 l 756 357 b 526 153 752 235 659 153 b 260 495 363 153 260 283 b 518 826 260 703 357 826 b 742 663 629 826 712 765 l 947 663 b 517 996 918 861 746 996 b 51 492 230 996 51 806 b 522 -17 51 174 230 -17 b 956 411 795 -17 956 144 z m 267 1261 b 509 1044 273 1144 359 1044 b 752 1261 660 1044 746 1144 l 629 1261 b 509 1145 624 1191 579 1145 b 389 1261 439 1145 395 1191 z "},"Ḡ":{"ha":1010,"x_min":0,"x_max":0,"o":"m 956 411 l 956 522 l 544 522 l 544 372 l 757 372 l 756 357 b 526 153 752 235 659 153 b 260 495 363 153 260 283 b 518 826 260 703 357 826 b 742 663 629 826 712 765 l 947 663 b 517 996 918 861 746 996 b 51 492 230 996 51 806 b 522 -17 51 174 230 -17 b 956 411 795 -17 956 144 z m 744 1199 l 275 1199 l 275 1099 l 744 1099 z "},"Ġ":{"ha":1010,"x_min":0,"x_max":0,"o":"m 956 411 l 956 522 l 544 522 l 544 372 l 757 372 l 756 357 b 526 153 752 235 659 153 b 260 495 363 153 260 283 b 518 826 260 703 357 826 b 742 663 629 826 712 765 l 947 663 b 517 996 918 861 746 996 b 51 492 230 996 51 806 b 522 -17 51 174 230 -17 b 956 411 795 -17 956 144 z m 509 1059 b 610 1160 566 1059 610 1104 b 509 1261 610 1215 566 1261 b 408 1160 452 1261 408 1215 b 509 1059 408 1104 452 1059 z "},"Ģ":{"ha":1010,"x_min":0,"x_max":0,"o":"m 956 411 l 956 522 l 544 522 l 544 372 l 757 372 l 756 357 b 526 153 752 235 659 153 b 260 495 363 153 260 283 b 518 826 260 703 357 826 b 742 663 629 826 712 765 l 947 663 b 517 996 918 861 746 996 b 51 492 230 996 51 806 b 522 -17 51 174 230 -17 b 956 411 795 -17 956 144 z m 490 -320 l 604 -90 l 431 -90 l 342 -320 z "},"H":{"ha":1013,"x_min":0,"x_max":0,"o":"m 932 0 l 932 979 l 727 979 l 727 581 l 286 581 l 286 979 l 81 979 l 81 0 l 286 0 l 286 412 l 727 412 l 727 0 z "},"Ḧ":{"ha":1013,"x_min":0,"x_max":0,"o":"m 932 0 l 932 979 l 727 979 l 727 581 l 286 581 l 286 979 l 81 979 l 81 0 l 286 0 l 286 412 l 727 412 l 727 0 z m 368 1065 b 459 1154 420 1065 459 1105 b 368 1242 459 1202 420 1242 b 277 1154 317 1242 277 1202 b 368 1065 277 1105 317 1065 z m 645 1065 b 736 1154 696 1065 736 1105 b 645 1242 736 1202 696 1242 b 554 1154 593 1242 554 1202 b 645 1065 554 1105 593 1065 z "},"Ȟ":{"ha":1013,"x_min":0,"x_max":0,"o":"m 932 0 l 932 979 l 727 979 l 727 581 l 286 581 l 286 979 l 81 979 l 81 0 l 286 0 l 286 412 l 727 412 l 727 0 z m 431 1046 l 583 1046 l 765 1261 l 615 1261 l 509 1131 l 504 1131 l 398 1261 l 248 1261 z "},"Ĥ":{"ha":1013,"x_min":0,"x_max":0,"o":"m 932 0 l 932 979 l 727 979 l 727 581 l 286 581 l 286 979 l 81 979 l 81 0 l 286 0 l 286 412 l 727 412 l 727 0 z m 431 1258 l 248 1043 l 398 1043 l 504 1173 l 509 1173 l 615 1043 l 765 1043 l 583 1258 z "},"Ḥ":{"ha":1013,"x_min":0,"x_max":0,"o":"m 932 0 l 932 979 l 727 979 l 727 581 l 286 581 l 286 979 l 81 979 l 81 0 l 286 0 l 286 412 l 727 412 l 727 0 z m 507 -309 b 608 -208 564 -309 608 -264 b 507 -107 608 -153 564 -107 b 406 -208 450 -107 406 -153 b 507 -309 406 -264 450 -309 z "},"Ḣ":{"ha":1013,"x_min":0,"x_max":0,"o":"m 932 0 l 932 979 l 727 979 l 727 581 l 286 581 l 286 979 l 81 979 l 81 0 l 286 0 l 286 412 l 727 412 l 727 0 z m 507 1059 b 608 1160 564 1059 608 1104 b 507 1261 608 1215 564 1261 b 406 1160 450 1261 406 1215 b 507 1059 406 1104 450 1059 z "},"Ḫ":{"ha":1013,"x_min":0,"x_max":0,"o":"m 932 0 l 932 979 l 727 979 l 727 581 l 286 581 l 286 979 l 81 979 l 81 0 l 286 0 l 286 412 l 727 412 l 727 0 z m 264 -87 b 507 -304 270 -203 356 -304 b 749 -87 657 -304 743 -203 l 627 -87 b 507 -203 621 -157 576 -203 b 387 -87 437 -203 392 -157 z "},"Ḩ":{"ha":1013,"x_min":0,"x_max":0,"o":"m 727 979 l 727 581 l 286 581 l 286 979 l 81 979 l 81 0 l 180 0 l 140 -87 l 140 -154 l 182 -154 b 266 -191 242 -154 266 -163 b 191 -228 266 -216 241 -228 b 115 -220 164 -228 131 -224 l 115 -302 b 211 -312 132 -309 172 -313 b 379 -186 314 -311 379 -268 b 252 -75 379 -117 328 -75 l 286 0 l 286 8 l 286 412 l 727 412 l 727 0 l 932 0 l 932 979 z "},"Ħ":{"ha":1031,"x_min":0,"x_max":0,"o":"m 736 581 l 295 581 l 295 713 l 736 713 z m 1013 857 l 941 857 l 941 979 l 736 979 l 736 857 l 295 857 l 295 979 l 90 979 l 90 857 l 19 857 l 19 713 l 90 713 l 90 0 l 295 0 l 295 412 l 736 412 l 736 0 l 941 0 l 941 713 l 1013 713 z "},"I":{"ha":368,"x_min":0,"x_max":0,"o":"m 286 0 l 286 979 l 81 979 l 81 0 z "},"İ":{"ha":368,"x_min":0,"x_max":0,"o":"m 286 0 l 286 979 l 81 979 l 81 0 z m 184 1059 b 285 1160 241 1059 285 1104 b 184 1261 285 1215 241 1261 b 83 1160 127 1261 83 1215 b 184 1059 83 1104 127 1059 z "},"Ì":{"ha":368,"x_min":0,"x_max":0,"o":"m 286 0 l 286 979 l 81 979 l 81 0 z m 104 1060 l 260 1060 l 106 1267 l -77 1267 z "},"Ȉ":{"ha":368,"x_min":0,"x_max":0,"o":"m 286 0 l 286 979 l 81 979 l 81 0 z m 239 1057 l 395 1057 l 242 1263 l 58 1263 z m -32 1057 l 124 1057 l -29 1263 l -213 1263 z "},"Í":{"ha":368,"x_min":0,"x_max":0,"o":"m 286 0 l 286 979 l 81 979 l 81 0 z m 262 1057 l 443 1263 l 259 1263 l 106 1057 z "},"Î":{"ha":368,"x_min":0,"x_max":0,"o":"m 286 0 l 286 979 l 81 979 l 81 0 z m 108 1258 l -75 1043 l 75 1043 l 181 1173 l 186 1173 l 292 1043 l 442 1043 l 260 1258 z "},"Ǐ":{"ha":368,"x_min":0,"x_max":0,"o":"m 286 0 l 286 979 l 81 979 l 81 0 z m 108 1046 l 260 1046 l 442 1261 l 292 1261 l 186 1131 l 181 1131 l 75 1261 l -75 1261 z "},"Ï":{"ha":368,"x_min":0,"x_max":0,"o":"m 286 0 l 286 979 l 81 979 l 81 0 z m 45 1065 b 136 1154 97 1065 136 1105 b 45 1242 136 1202 97 1242 b -45 1154 -6 1242 -45 1202 b 45 1065 -45 1105 -6 1065 z m 322 1065 b 413 1154 374 1065 413 1105 b 322 1242 413 1202 374 1242 b 231 1154 271 1242 231 1202 b 322 1065 231 1105 271 1065 z "},"Ḯ":{"ha":368,"x_min":0,"x_max":0,"o":"m 286 0 l 286 979 l 81 979 l 81 0 z m 103 1274 l 250 1274 l 395 1442 l 229 1442 z m 48 1048 b 137 1135 99 1048 137 1087 b 48 1221 137 1183 99 1221 b -41 1135 -3 1221 -41 1183 b 48 1048 -41 1087 -3 1048 z m 319 1048 b 408 1135 370 1048 408 1087 b 319 1221 408 1183 370 1221 b 231 1135 269 1221 231 1183 b 319 1048 231 1087 269 1048 z "},"Ĭ":{"ha":368,"x_min":0,"x_max":0,"o":"m 286 0 l 286 979 l 81 979 l 81 0 z m -59 1261 b 184 1044 -53 1144 33 1044 b 427 1261 334 1044 420 1144 l 304 1261 b 184 1145 298 1191 254 1145 b 64 1261 114 1145 69 1191 z "},"Ị":{"ha":368,"x_min":0,"x_max":0,"o":"m 286 0 l 286 979 l 81 979 l 81 0 z m 184 -309 b 285 -208 241 -309 285 -264 b 184 -107 285 -153 241 -107 b 83 -208 127 -107 83 -153 b 184 -309 83 -264 127 -309 z "},"Ȋ":{"ha":368,"x_min":0,"x_max":0,"o":"m 286 0 l 286 979 l 81 979 l 81 0 z m -59 1044 l 64 1044 b 184 1160 69 1114 114 1160 b 304 1044 254 1160 298 1114 l 427 1044 b 184 1261 420 1160 334 1261 b -59 1044 33 1261 -53 1160 z "},"Ī":{"ha":368,"x_min":0,"x_max":0,"o":"m 286 0 l 286 979 l 81 979 l 81 0 z m 418 1199 l -51 1199 l -51 1099 l 418 1099 z "},"Ḭ":{"ha":368,"x_min":0,"x_max":0,"o":"m 286 0 l 286 979 l 81 979 l 81 0 z m 280 -271 b 429 -83 362 -271 429 -201 l 321 -83 b 274 -168 319 -137 304 -168 b 94 -76 225 -168 192 -76 b -55 -262 10 -76 -55 -142 l 53 -262 b 100 -179 53 -212 69 -179 b 280 -271 151 -179 186 -271 z "},"Ỉ":{"ha":368,"x_min":0,"x_max":0,"o":"m 286 0 l 286 979 l 81 979 l 81 0 z m 58 1207 b 130 1220 78 1215 108 1220 b 196 1171 170 1220 196 1200 b 130 1098 196 1141 169 1112 l 189 1027 b 316 1181 263 1056 316 1116 b 155 1314 316 1263 253 1314 b 58 1297 119 1314 82 1308 z "},"Ĩ":{"ha":368,"x_min":0,"x_max":0,"o":"m 286 0 l 286 979 l 81 979 l 81 0 z m 280 1060 b 429 1248 362 1060 429 1131 l 321 1248 b 274 1164 319 1194 304 1164 b 94 1255 225 1164 192 1255 b -55 1069 10 1255 -55 1189 l 53 1069 b 100 1152 53 1119 69 1152 b 280 1060 151 1152 186 1060 z "},"Į":{"ha":368,"x_min":0,"x_max":0,"o":"m 81 -21 b 5 -168 33 -63 5 -114 b 184 -313 5 -254 80 -313 b 286 -299 239 -313 269 -307 l 286 -193 b 235 -199 272 -196 252 -199 b 147 -131 182 -199 147 -175 b 271 -3 147 -77 210 -30 l 286 1 l 286 979 l 81 979 z "},"J":{"ha":775,"x_min":0,"x_max":0,"o":"m 21 288 b 352 -20 21 101 152 -20 b 686 307 562 -20 686 98 l 686 979 l 481 979 l 481 308 b 350 157 481 210 435 157 b 220 288 273 157 221 209 z "},"Ĵ":{"ha":775,"x_min":0,"x_max":0,"o":"m 21 288 b 352 -20 21 101 152 -20 b 686 307 562 -20 686 98 l 686 979 l 481 979 l 481 308 b 350 157 481 210 435 157 b 220 288 273 157 221 209 z m 511 1258 l 328 1043 l 478 1043 l 584 1173 l 589 1173 l 695 1043 l 845 1043 l 663 1258 z "},"K":{"ha":918,"x_min":0,"x_max":0,"o":"m 286 0 l 286 299 l 378 409 l 668 0 l 913 0 l 526 545 l 888 979 l 660 979 l 292 532 l 286 532 l 286 979 l 81 979 l 81 0 z "},"Ḱ":{"ha":918,"x_min":0,"x_max":0,"o":"m 286 0 l 286 299 l 378 409 l 668 0 l 913 0 l 526 545 l 888 979 l 660 979 l 292 532 l 286 532 l 286 979 l 81 979 l 81 0 z m 530 1057 l 711 1263 l 527 1263 l 374 1057 z "},"Ǩ":{"ha":918,"x_min":0,"x_max":0,"o":"m 286 0 l 286 299 l 378 409 l 668 0 l 913 0 l 526 545 l 888 979 l 660 979 l 292 532 l 286 532 l 286 979 l 81 979 l 81 0 z m 376 1046 l 528 1046 l 710 1261 l 560 1261 l 454 1131 l 449 1131 l 343 1261 l 193 1261 z "},"Ḳ":{"ha":918,"x_min":0,"x_max":0,"o":"m 286 0 l 286 299 l 378 409 l 668 0 l 913 0 l 526 545 l 888 979 l 660 979 l 292 532 l 286 532 l 286 979 l 81 979 l 81 0 z m 452 -309 b 553 -208 509 -309 553 -264 b 452 -107 553 -153 509 -107 b 351 -208 395 -107 351 -153 b 452 -309 351 -264 395 -309 z "},"Ḵ":{"ha":918,"x_min":0,"x_max":0,"o":"m 286 0 l 286 299 l 378 409 l 668 0 l 913 0 l 526 545 l 888 979 l 660 979 l 292 532 l 286 532 l 286 979 l 81 979 l 81 0 z m 686 -155 l 217 -155 l 217 -256 l 686 -256 z "},"Ķ":{"ha":918,"x_min":0,"x_max":0,"o":"m 286 0 l 286 299 l 378 409 l 668 0 l 913 0 l 526 545 l 888 979 l 660 979 l 292 532 l 286 532 l 286 979 l 81 979 l 81 0 z m 432 -320 l 547 -90 l 373 -90 l 285 -320 z "},"L":{"ha":754,"x_min":0,"x_max":0,"o":"m 714 170 l 286 170 l 286 979 l 81 979 l 81 0 l 714 0 z "},"Ĺ":{"ha":754,"x_min":0,"x_max":0,"o":"m 714 170 l 286 170 l 286 979 l 81 979 l 81 0 l 714 0 z m 262 1057 l 443 1263 l 259 1263 l 106 1057 z "},"Ḽ":{"ha":754,"x_min":0,"x_max":0,"o":"m 714 170 l 286 170 l 286 979 l 81 979 l 81 0 l 714 0 z m 315 -96 l 133 -311 l 283 -311 l 389 -180 l 394 -180 l 500 -311 l 650 -311 l 467 -96 z "},"Ḷ":{"ha":754,"x_min":0,"x_max":0,"o":"m 714 170 l 286 170 l 286 979 l 81 979 l 81 0 l 714 0 z m 391 -309 b 492 -208 448 -309 492 -264 b 391 -107 492 -153 448 -107 b 290 -208 334 -107 290 -153 b 391 -309 290 -264 334 -309 z "},"Ḹ":{"ha":754,"x_min":0,"x_max":0,"o":"m 714 170 l 286 170 l 286 979 l 81 979 l 81 0 l 714 0 z m 391 -309 b 492 -208 448 -309 492 -264 b 391 -107 492 -153 448 -107 b 290 -208 334 -107 290 -153 b 391 -309 290 -264 334 -309 z m 418 1199 l -51 1199 l -51 1099 l 418 1099 z "},"Ḻ":{"ha":754,"x_min":0,"x_max":0,"o":"m 714 170 l 286 170 l 286 979 l 81 979 l 81 0 l 714 0 z m 626 -155 l 157 -155 l 157 -256 l 626 -256 z "},"Ļ":{"ha":754,"x_min":0,"x_max":0,"o":"m 714 170 l 286 170 l 286 979 l 81 979 l 81 0 l 714 0 z m 372 -320 l 486 -90 l 313 -90 l 224 -320 z "},"Ľ":{"ha":754,"x_min":0,"x_max":0,"o":"m 458 979 l 458 637 l 591 637 l 625 979 z m 714 170 l 286 170 l 286 979 l 81 979 l 81 0 l 714 0 z "},"Ł":{"ha":763,"x_min":0,"x_max":0,"o":"m 295 170 l 295 536 l 494 635 l 494 771 l 295 671 l 295 979 l 90 979 l 90 568 l 24 534 l 24 399 l 90 433 l 90 0 l 723 0 l 723 170 z "},"M":{"ha":1199,"x_min":0,"x_max":0,"o":"m 1118 0 l 1118 979 l 880 979 l 602 285 l 597 285 l 319 979 l 81 979 l 81 0 l 264 0 l 264 661 l 269 661 l 535 9 l 664 9 l 930 661 l 935 661 l 935 0 z "},"Ḿ":{"ha":1199,"x_min":0,"x_max":0,"o":"m 1118 0 l 1118 979 l 880 979 l 602 285 l 597 285 l 319 979 l 81 979 l 81 0 l 264 0 l 264 661 l 269 661 l 535 9 l 664 9 l 930 661 l 935 661 l 935 0 z m 677 1057 l 859 1263 l 675 1263 l 522 1057 z "},"Ṁ":{"ha":1199,"x_min":0,"x_max":0,"o":"m 1118 0 l 1118 979 l 880 979 l 602 285 l 597 285 l 319 979 l 81 979 l 81 0 l 264 0 l 264 661 l 269 661 l 535 9 l 664 9 l 930 661 l 935 661 l 935 0 z m 600 1059 b 701 1160 656 1059 701 1104 b 600 1261 701 1215 656 1261 b 498 1160 543 1261 498 1215 b 600 1059 498 1104 543 1059 z "},"Ṃ":{"ha":1199,"x_min":0,"x_max":0,"o":"m 1118 0 l 1118 979 l 880 979 l 602 285 l 597 285 l 319 979 l 81 979 l 81 0 l 264 0 l 264 661 l 269 661 l 535 9 l 664 9 l 930 661 l 935 661 l 935 0 z m 600 -309 b 701 -208 656 -309 701 -264 b 600 -107 701 -153 656 -107 b 498 -208 543 -107 498 -153 b 600 -309 498 -264 543 -309 z "},"N":{"ha":992,"x_min":0,"x_max":0,"o":"m 277 0 l 277 641 l 283 641 l 741 0 l 911 0 l 911 979 l 715 979 l 715 341 l 709 341 l 252 979 l 81 979 l 81 0 z "},"Ǹ":{"ha":992,"x_min":0,"x_max":0,"o":"m 277 0 l 277 641 l 283 641 l 741 0 l 911 0 l 911 979 l 715 979 l 715 341 l 709 341 l 252 979 l 81 979 l 81 0 z m 416 1060 l 572 1060 l 419 1267 l 235 1267 z "},"Ń":{"ha":992,"x_min":0,"x_max":0,"o":"m 277 0 l 277 641 l 283 641 l 741 0 l 911 0 l 911 979 l 715 979 l 715 341 l 709 341 l 252 979 l 81 979 l 81 0 z m 574 1057 l 755 1263 l 572 1263 l 418 1057 z "},"Ñ":{"ha":992,"x_min":0,"x_max":0,"o":"m 277 0 l 277 641 l 283 641 l 741 0 l 911 0 l 911 979 l 715 979 l 715 341 l 709 341 l 252 979 l 81 979 l 81 0 z m 593 1060 b 741 1248 675 1060 741 1131 l 633 1248 b 587 1164 632 1194 616 1164 b 407 1255 538 1164 505 1255 b 258 1069 323 1255 258 1189 l 366 1069 b 413 1152 366 1119 382 1152 b 593 1060 463 1152 498 1060 z "},"Ṇ":{"ha":992,"x_min":0,"x_max":0,"o":"m 277 0 l 277 641 l 283 641 l 741 0 l 911 0 l 911 979 l 715 979 l 715 341 l 709 341 l 252 979 l 81 979 l 81 0 z m 496 -309 b 597 -208 553 -309 597 -264 b 496 -107 597 -153 553 -107 b 395 -208 439 -107 395 -153 b 496 -309 395 -264 439 -309 z "},"Ṅ":{"ha":992,"x_min":0,"x_max":0,"o":"m 277 0 l 277 641 l 283 641 l 741 0 l 911 0 l 911 979 l 715 979 l 715 341 l 709 341 l 252 979 l 81 979 l 81 0 z m 496 1059 b 597 1160 553 1059 597 1104 b 496 1261 597 1215 553 1261 b 395 1160 439 1261 395 1215 b 496 1059 395 1104 439 1059 z "},"Ň":{"ha":992,"x_min":0,"x_max":0,"o":"m 277 0 l 277 641 l 283 641 l 741 0 l 911 0 l 911 979 l 715 979 l 715 341 l 709 341 l 252 979 l 81 979 l 81 0 z m 420 1046 l 572 1046 l 755 1261 l 605 1261 l 499 1131 l 494 1131 l 388 1261 l 238 1261 z "},"Ṋ":{"ha":992,"x_min":0,"x_max":0,"o":"m 277 0 l 277 641 l 283 641 l 741 0 l 911 0 l 911 979 l 715 979 l 715 341 l 709 341 l 252 979 l 81 979 l 81 0 z m 420 -96 l 238 -311 l 388 -311 l 494 -180 l 499 -180 l 605 -311 l 755 -311 l 572 -96 z "},"Ṉ":{"ha":992,"x_min":0,"x_max":0,"o":"m 277 0 l 277 641 l 283 641 l 741 0 l 911 0 l 911 979 l 715 979 l 715 341 l 709 341 l 252 979 l 81 979 l 81 0 z m 731 -155 l 262 -155 l 262 -256 l 731 -256 z "},"Ņ":{"ha":992,"x_min":0,"x_max":0,"o":"m 277 0 l 277 641 l 283 641 l 741 0 l 911 0 l 911 979 l 715 979 l 715 341 l 709 341 l 252 979 l 81 979 l 81 0 z m 477 -320 l 591 -90 l 418 -90 l 330 -320 z "},"O":{"ha":1045,"x_min":0,"x_max":0,"o":"m 523 996 b 51 489 233 996 51 801 b 523 -17 51 178 233 -17 b 995 489 812 -17 995 178 b 523 996 995 801 812 996 z m 523 825 b 785 489 683 825 785 694 b 523 155 785 284 683 155 b 260 489 362 155 260 284 b 523 825 260 694 363 825 z "},"Ö":{"ha":1045,"x_min":0,"x_max":0,"o":"m 523 996 b 51 489 233 996 51 801 b 523 -17 51 178 233 -17 b 995 489 812 -17 995 178 b 523 996 995 801 812 996 z m 523 825 b 785 489 683 825 785 694 b 523 155 785 284 683 155 b 260 489 362 155 260 284 b 523 825 260 694 363 825 z m 385 1065 b 475 1154 436 1065 475 1105 b 385 1242 475 1202 436 1242 b 294 1154 333 1242 294 1202 b 385 1065 294 1105 333 1065 z m 661 1065 b 752 1154 713 1065 752 1105 b 661 1242 752 1202 713 1242 b 570 1154 610 1242 570 1202 b 661 1065 570 1105 610 1065 z "},"Ø":{"ha":1045,"x_min":0,"x_max":0,"o":"m 733 706 b 785 489 767 650 785 576 b 523 155 785 284 683 155 b 391 191 473 155 428 168 z m 328 248 b 260 489 284 306 260 389 b 523 825 260 694 363 825 b 677 772 583 825 635 806 z m 916 981 l 842 1021 l 781 929 b 523 996 710 972 623 996 b 51 489 233 996 51 801 b 218 82 51 309 111 169 l 164 1 l 233 -45 l 288 36 b 523 -17 354 1 433 -17 b 995 489 812 -17 995 178 b 848 879 995 657 942 791 z "},"Õ":{"ha":1045,"x_min":0,"x_max":0,"o":"m 523 996 b 51 489 233 996 51 801 b 523 -17 51 178 233 -17 b 995 489 812 -17 995 178 b 523 996 995 801 812 996 z m 523 825 b 785 489 683 825 785 694 b 523 155 785 284 683 155 b 260 489 362 155 260 284 b 523 825 260 694 363 825 z m 619 1060 b 768 1248 701 1060 768 1131 l 660 1248 b 613 1164 659 1194 643 1164 b 433 1255 564 1164 531 1255 b 284 1069 349 1255 284 1189 l 392 1069 b 439 1152 392 1119 408 1152 b 619 1060 490 1152 525 1060 z "},"Ó":{"ha":1045,"x_min":0,"x_max":0,"o":"m 523 996 b 51 489 233 996 51 801 b 523 -17 51 178 233 -17 b 995 489 812 -17 995 178 b 523 996 995 801 812 996 z m 523 825 b 785 489 683 825 785 694 b 523 155 785 284 683 155 b 260 489 362 155 260 284 b 523 825 260 694 363 825 z m 601 1057 l 782 1263 l 598 1263 l 445 1057 z "},"Ô":{"ha":1045,"x_min":0,"x_max":0,"o":"m 523 996 b 51 489 233 996 51 801 b 523 -17 51 178 233 -17 b 995 489 812 -17 995 178 b 523 996 995 801 812 996 z m 523 825 b 785 489 683 825 785 694 b 523 155 785 284 683 155 b 260 489 362 155 260 284 b 523 825 260 694 363 825 z m 447 1258 l 264 1043 l 414 1043 l 520 1173 l 526 1173 l 631 1043 l 781 1043 l 599 1258 z "},"Ò":{"ha":1045,"x_min":0,"x_max":0,"o":"m 523 996 b 51 489 233 996 51 801 b 523 -17 51 178 233 -17 b 995 489 812 -17 995 178 b 523 996 995 801 812 996 z m 523 825 b 785 489 683 825 785 694 b 523 155 785 284 683 155 b 260 489 362 155 260 284 b 523 825 260 694 363 825 z m 443 1060 l 599 1060 l 446 1267 l 262 1267 z "},"Ổ":{"ha":1045,"x_min":0,"x_max":0,"o":"m 523 996 b 51 489 233 996 51 801 b 523 -17 51 178 233 -17 b 995 489 812 -17 995 178 b 523 996 995 801 812 996 z m 523 825 b 785 489 683 825 785 694 b 523 155 785 284 683 155 b 260 489 362 155 260 284 b 523 825 260 694 363 825 z m 444 1234 l 262 1043 l 416 1043 l 520 1156 l 526 1156 l 629 1043 l 783 1043 l 602 1234 z m 603 1343 b 669 1355 620 1350 647 1355 b 731 1308 707 1355 731 1336 b 681 1244 731 1282 715 1257 l 743 1178 b 846 1318 808 1202 846 1259 b 694 1447 846 1397 787 1447 b 603 1429 661 1447 625 1440 z "},"Ồ":{"ha":1045,"x_min":0,"x_max":0,"o":"m 523 996 b 51 489 233 996 51 801 b 523 -17 51 178 233 -17 b 995 489 812 -17 995 178 b 523 996 995 801 812 996 z m 523 825 b 785 489 683 825 785 694 b 523 155 785 284 683 155 b 260 489 362 155 260 284 b 523 825 260 694 363 825 z m 444 1234 l 262 1043 l 416 1043 l 520 1156 l 526 1156 l 629 1043 l 783 1043 l 602 1234 z m 773 1274 l 648 1442 l 481 1442 l 627 1274 z "},"Ọ":{"ha":1045,"x_min":0,"x_max":0,"o":"m 523 996 b 51 489 233 996 51 801 b 523 -17 51 178 233 -17 b 995 489 812 -17 995 178 b 523 996 995 801 812 996 z m 523 825 b 785 489 683 825 785 694 b 523 155 785 284 683 155 b 260 489 362 155 260 284 b 523 825 260 694 363 825 z m 523 -309 b 624 -208 580 -309 624 -264 b 523 -107 624 -153 580 -107 b 422 -208 466 -107 422 -153 b 523 -309 422 -264 466 -309 z "},"Ȍ":{"ha":1045,"x_min":0,"x_max":0,"o":"m 523 996 b 51 489 233 996 51 801 b 523 -17 51 178 233 -17 b 995 489 812 -17 995 178 b 523 996 995 801 812 996 z m 523 825 b 785 489 683 825 785 694 b 523 155 785 284 683 155 b 260 489 362 155 260 284 b 523 825 260 694 363 825 z m 578 1057 l 734 1057 l 581 1263 l 397 1263 z m 307 1057 l 463 1057 l 310 1263 l 126 1263 z "},"Ṍ":{"ha":1045,"x_min":0,"x_max":0,"o":"m 523 996 b 51 489 233 996 51 801 b 523 -17 51 178 233 -17 b 995 489 812 -17 995 178 b 523 996 995 801 812 996 z m 523 825 b 785 489 683 825 785 694 b 523 155 785 284 683 155 b 260 489 362 155 260 284 b 523 825 260 694 363 825 z m 615 1044 b 760 1226 696 1044 760 1113 l 654 1226 b 608 1146 654 1177 638 1146 b 431 1237 559 1146 524 1237 b 286 1057 348 1237 286 1171 l 391 1057 b 438 1135 391 1103 408 1135 b 615 1044 487 1135 522 1044 z m 448 1280 l 594 1280 l 740 1442 l 573 1442 z "},"Ṓ":{"ha":1045,"x_min":0,"x_max":0,"o":"m 523 996 b 51 489 233 996 51 801 b 523 -17 51 178 233 -17 b 995 489 812 -17 995 178 b 523 996 995 801 812 996 z m 523 825 b 785 489 683 825 785 694 b 523 155 785 284 683 155 b 260 489 362 155 260 284 b 523 825 260 694 363 825 z m 758 1084 l 758 1185 l 288 1185 l 288 1084 z m 448 1274 l 594 1274 l 740 1442 l 573 1442 z "},"Ỗ":{"ha":1045,"x_min":0,"x_max":0,"o":"m 523 996 b 51 489 233 996 51 801 b 523 -17 51 178 233 -17 b 995 489 812 -17 995 178 b 523 996 995 801 812 996 z m 523 825 b 785 489 683 825 785 694 b 523 155 785 284 683 155 b 260 489 362 155 260 284 b 523 825 260 694 363 825 z m 613 1272 b 762 1442 697 1272 762 1339 l 654 1442 b 605 1372 652 1399 634 1372 b 433 1455 558 1372 528 1455 b 283 1286 346 1455 283 1390 l 391 1286 b 441 1356 393 1326 410 1356 b 613 1272 488 1356 517 1272 z m 444 1231 l 262 1043 l 416 1043 l 520 1154 l 526 1154 l 629 1043 l 783 1043 l 602 1231 z "},"Ȱ":{"ha":1045,"x_min":0,"x_max":0,"o":"m 523 996 b 51 489 233 996 51 801 b 523 -17 51 178 233 -17 b 995 489 812 -17 995 178 b 523 996 995 801 812 996 z m 523 825 b 785 489 683 825 785 694 b 523 155 785 284 683 155 b 260 489 362 155 260 284 b 523 825 260 694 363 825 z m 523 1055 b 616 1145 576 1055 616 1095 b 523 1235 616 1194 576 1235 b 429 1145 469 1235 429 1194 b 523 1055 429 1095 469 1055 z m 758 1406 l 288 1406 l 288 1305 l 758 1305 z "},"Ṑ":{"ha":1045,"x_min":0,"x_max":0,"o":"m 523 996 b 51 489 233 996 51 801 b 523 -17 51 178 233 -17 b 995 489 812 -17 995 178 b 523 996 995 801 812 996 z m 523 825 b 785 489 683 825 785 694 b 523 155 785 284 683 155 b 260 489 362 155 260 284 b 523 825 260 694 363 825 z m 288 1084 l 758 1084 l 758 1185 l 288 1185 z m 600 1274 l 475 1442 l 308 1442 l 454 1274 z "},"Ǒ":{"ha":1045,"x_min":0,"x_max":0,"o":"m 523 996 b 51 489 233 996 51 801 b 523 -17 51 178 233 -17 b 995 489 812 -17 995 178 b 523 996 995 801 812 996 z m 523 825 b 785 489 683 825 785 694 b 523 155 785 284 683 155 b 260 489 362 155 260 284 b 523 825 260 694 363 825 z m 447 1046 l 599 1046 l 781 1261 l 631 1261 l 526 1131 l 520 1131 l 414 1261 l 264 1261 z "},"Ǿ":{"ha":1045,"x_min":0,"x_max":0,"o":"m 791 1263 l 607 1263 l 454 1057 l 610 1057 z m 733 706 b 785 489 767 650 785 576 b 523 155 785 284 683 155 b 391 191 473 155 428 168 z m 328 248 b 260 489 284 306 260 389 b 523 825 260 694 363 825 b 677 772 583 825 635 806 z m 916 981 l 842 1021 l 781 929 b 523 996 710 972 623 996 b 51 489 233 996 51 801 b 218 82 51 309 111 169 l 164 1 l 233 -45 l 288 36 b 523 -17 354 1 433 -17 b 995 489 812 -17 995 178 b 848 879 995 657 942 791 z "},"Ő":{"ha":1045,"x_min":0,"x_max":0,"o":"m 523 996 b 51 489 233 996 51 801 b 523 -17 51 178 233 -17 b 995 489 812 -17 995 178 b 523 996 995 801 812 996 z m 523 825 b 785 489 683 825 785 694 b 523 155 785 284 683 155 b 260 489 362 155 260 284 b 523 825 260 694 363 825 z m 739 1057 l 920 1263 l 736 1263 l 583 1057 z m 467 1057 l 648 1263 l 465 1263 l 311 1057 z "},"Ŏ":{"ha":1045,"x_min":0,"x_max":0,"o":"m 523 996 b 51 489 233 996 51 801 b 523 -17 51 178 233 -17 b 995 489 812 -17 995 178 b 523 996 995 801 812 996 z m 523 825 b 785 489 683 825 785 694 b 523 155 785 284 683 155 b 260 489 362 155 260 284 b 523 825 260 694 363 825 z m 280 1261 b 523 1044 286 1144 372 1044 b 766 1261 673 1044 760 1144 l 643 1261 b 523 1145 637 1191 593 1145 b 403 1261 453 1145 408 1191 z "},"Ȏ":{"ha":1045,"x_min":0,"x_max":0,"o":"m 523 996 b 51 489 233 996 51 801 b 523 -17 51 178 233 -17 b 995 489 812 -17 995 178 b 523 996 995 801 812 996 z m 523 825 b 785 489 683 825 785 694 b 523 155 785 284 683 155 b 260 489 362 155 260 284 b 523 825 260 694 363 825 z m 280 1044 l 403 1044 b 523 1160 408 1114 453 1160 b 643 1044 593 1160 637 1114 l 766 1044 b 523 1261 760 1160 673 1261 b 280 1044 372 1261 286 1160 z "},"Ỏ":{"ha":1045,"x_min":0,"x_max":0,"o":"m 523 996 b 51 489 233 996 51 801 b 523 -17 51 178 233 -17 b 995 489 812 -17 995 178 b 523 996 995 801 812 996 z m 523 825 b 785 489 683 825 785 694 b 523 155 785 284 683 155 b 260 489 362 155 260 284 b 523 825 260 694 363 825 z m 397 1207 b 469 1220 417 1215 447 1220 b 535 1171 509 1220 535 1200 b 469 1098 535 1141 508 1112 l 528 1027 b 655 1181 602 1056 655 1116 b 494 1314 655 1263 592 1314 b 397 1297 458 1314 421 1308 z "},"Ȫ":{"ha":1045,"x_min":0,"x_max":0,"o":"m 523 996 b 51 489 233 996 51 801 b 523 -17 51 178 233 -17 b 995 489 812 -17 995 178 b 523 996 995 801 812 996 z m 523 825 b 785 489 683 825 785 694 b 523 155 785 284 683 155 b 260 489 362 155 260 284 b 523 825 260 694 363 825 z m 387 1221 b 298 1135 336 1221 298 1183 b 387 1048 298 1087 336 1048 b 476 1135 438 1048 476 1087 b 387 1221 476 1183 438 1221 z m 288 1406 l 288 1305 l 758 1305 l 758 1406 z m 659 1221 b 570 1135 608 1221 570 1183 b 659 1048 570 1087 608 1048 b 747 1135 709 1048 747 1087 b 659 1221 747 1183 709 1221 z "},"Ȭ":{"ha":1045,"x_min":0,"x_max":0,"o":"m 523 996 b 51 489 233 996 51 801 b 523 -17 51 178 233 -17 b 995 489 812 -17 995 178 b 523 996 995 801 812 996 z m 523 825 b 785 489 683 825 785 694 b 523 155 785 284 683 155 b 260 489 362 155 260 284 b 523 825 260 694 363 825 z m 615 1044 b 760 1226 696 1044 760 1113 l 654 1226 b 608 1146 654 1177 638 1146 b 431 1237 559 1146 524 1237 b 286 1057 348 1237 286 1171 l 391 1057 b 438 1135 391 1103 408 1135 b 615 1044 487 1135 522 1044 z m 758 1406 l 288 1406 l 288 1305 l 758 1305 z "},"Ȯ":{"ha":1045,"x_min":0,"x_max":0,"o":"m 523 996 b 51 489 233 996 51 801 b 523 -17 51 178 233 -17 b 995 489 812 -17 995 178 b 523 996 995 801 812 996 z m 523 825 b 785 489 683 825 785 694 b 523 155 785 284 683 155 b 260 489 362 155 260 284 b 523 825 260 694 363 825 z m 523 1059 b 624 1160 580 1059 624 1104 b 523 1261 624 1215 580 1261 b 422 1160 466 1261 422 1215 b 523 1059 422 1104 466 1059 z "},"Ộ":{"ha":1045,"x_min":0,"x_max":0,"o":"m 523 996 b 51 489 233 996 51 801 b 523 -17 51 178 233 -17 b 995 489 812 -17 995 178 b 523 996 995 801 812 996 z m 523 825 b 785 489 683 825 785 694 b 523 155 785 284 683 155 b 260 489 362 155 260 284 b 523 825 260 694 363 825 z m 447 1258 l 264 1043 l 414 1043 l 520 1173 l 526 1173 l 631 1043 l 781 1043 l 599 1258 z m 523 -309 b 624 -208 580 -309 624 -264 b 523 -107 624 -153 580 -107 b 422 -208 466 -107 422 -153 b 523 -309 422 -264 466 -309 z "},"Ố":{"ha":1045,"x_min":0,"x_max":0,"o":"m 523 996 b 51 489 233 996 51 801 b 523 -17 51 178 233 -17 b 995 489 812 -17 995 178 b 523 996 995 801 812 996 z m 523 825 b 785 489 683 825 785 694 b 523 155 785 284 683 155 b 260 489 362 155 260 284 b 523 825 260 694 363 825 z m 444 1234 l 262 1043 l 416 1043 l 520 1156 l 526 1156 l 629 1043 l 783 1043 l 602 1234 z m 597 1274 l 743 1274 l 889 1442 l 722 1442 z "},"Ṏ":{"ha":1045,"x_min":0,"x_max":0,"o":"m 523 996 b 51 489 233 996 51 801 b 523 -17 51 178 233 -17 b 995 489 812 -17 995 178 b 523 996 995 801 812 996 z m 523 825 b 785 489 683 825 785 694 b 523 155 785 284 683 155 b 260 489 362 155 260 284 b 523 825 260 694 363 825 z m 615 1045 b 760 1222 696 1045 760 1114 l 654 1222 b 608 1146 654 1176 638 1146 b 431 1236 559 1146 524 1236 b 286 1058 348 1236 286 1171 l 391 1058 b 438 1135 391 1103 408 1135 b 615 1045 487 1135 522 1045 z m 387 1459 b 298 1373 336 1459 298 1421 b 387 1286 298 1324 336 1286 b 476 1373 438 1286 476 1324 b 387 1459 476 1421 438 1459 z m 659 1459 b 570 1373 608 1459 570 1421 b 659 1286 570 1324 608 1286 b 747 1373 709 1286 747 1324 b 659 1459 747 1421 709 1459 z "},"Ō":{"ha":1045,"x_min":0,"x_max":0,"o":"m 523 996 b 51 489 233 996 51 801 b 523 -17 51 178 233 -17 b 995 489 812 -17 995 178 b 523 996 995 801 812 996 z m 523 825 b 785 489 683 825 785 694 b 523 155 785 284 683 155 b 260 489 362 155 260 284 b 523 825 260 694 363 825 z m 758 1199 l 288 1199 l 288 1099 l 758 1099 z "},"Ǫ":{"ha":1045,"x_min":0,"x_max":0,"o":"m 685 -313 b 783 -299 728 -313 764 -308 l 783 -193 b 731 -199 772 -196 751 -199 b 649 -131 682 -199 649 -176 b 790 42 649 -82 698 -32 b 995 489 926 153 995 299 b 523 996 995 800 813 996 b 51 489 233 996 51 800 b 523 -17 51 178 232 -17 b 606 -9 549 -17 587 -12 l 606 -13 b 504 -172 546 -48 504 -111 b 685 -313 504 -256 579 -313 z m 523 825 b 785 489 684 825 785 694 b 523 155 785 285 684 155 b 260 489 362 155 260 285 b 523 825 260 694 362 825 z "},"Ǭ":{"ha":1045,"x_min":0,"x_max":0,"o":"m 685 -313 b 783 -299 728 -313 764 -308 l 783 -193 b 731 -199 772 -196 751 -199 b 649 -131 682 -199 649 -176 b 790 42 649 -82 698 -32 b 995 489 926 153 995 299 b 523 996 995 800 813 996 b 51 489 233 996 51 800 b 523 -17 51 178 232 -17 b 606 -9 549 -17 587 -12 l 606 -13 b 504 -172 546 -48 504 -111 b 685 -313 504 -256 579 -313 z m 523 825 b 785 489 684 825 785 694 b 523 155 785 285 684 155 b 260 489 362 155 260 285 b 523 825 260 694 362 825 z m 758 1199 l 288 1199 l 288 1099 l 758 1099 z "},"Ơ":{"ha":1084,"x_min":0,"x_max":0,"o":"m 523 -17 b 995 489 813 -17 995 178 b 864 831 995 625 939 774 l 864 836 l 905 836 b 1046 976 994 836 1046 888 l 1046 1133 l 889 1133 l 889 1022 b 815 962 889 980 866 962 b 523 996 707 962 640 996 b 51 489 233 996 51 800 b 523 -17 51 178 232 -17 z m 523 155 b 260 489 362 155 260 285 b 523 825 260 694 362 825 b 785 489 684 825 785 694 b 523 155 785 285 684 155 z "},"Ợ":{"ha":1084,"x_min":0,"x_max":0,"o":"m 523 -17 b 995 489 813 -17 995 178 b 864 831 995 625 939 774 l 864 836 l 905 836 b 1046 976 994 836 1046 888 l 1046 1133 l 889 1133 l 889 1022 b 815 962 889 980 866 962 b 523 996 707 962 640 996 b 51 489 233 996 51 800 b 523 -17 51 178 232 -17 z m 523 155 b 260 489 362 155 260 285 b 523 825 260 694 362 825 b 785 489 684 825 785 694 b 523 155 785 285 684 155 z m 523 -309 b 624 -208 580 -309 624 -264 b 523 -107 624 -153 580 -107 b 422 -208 466 -107 422 -153 b 523 -309 422 -264 466 -309 z "},"Ở":{"ha":1084,"x_min":0,"x_max":0,"o":"m 523 -17 b 995 489 813 -17 995 178 b 864 831 995 625 939 774 l 864 836 l 905 836 b 1046 976 994 836 1046 888 l 1046 1133 l 889 1133 l 889 1022 b 815 962 889 980 866 962 b 523 996 707 962 640 996 b 51 489 233 996 51 800 b 523 -17 51 178 232 -17 z m 523 155 b 260 489 362 155 260 285 b 523 825 260 694 362 825 b 785 489 684 825 785 694 b 523 155 785 285 684 155 z m 397 1207 b 469 1220 417 1215 447 1220 b 535 1171 509 1220 535 1200 b 469 1098 535 1141 508 1112 l 528 1027 b 655 1181 602 1056 655 1116 b 494 1314 655 1263 592 1314 b 397 1297 458 1314 421 1308 z "},"Ỡ":{"ha":1084,"x_min":0,"x_max":0,"o":"m 523 -17 b 995 489 813 -17 995 178 b 864 831 995 625 939 774 l 864 836 l 905 836 b 1046 976 994 836 1046 888 l 1046 1133 l 889 1133 l 889 1022 b 815 962 889 980 866 962 b 523 996 707 962 640 996 b 51 489 233 996 51 800 b 523 -17 51 178 232 -17 z m 523 155 b 260 489 362 155 260 285 b 523 825 260 694 362 825 b 785 489 684 825 785 694 b 523 155 785 285 684 155 z m 619 1060 b 768 1248 701 1060 768 1131 l 660 1248 b 613 1164 659 1194 643 1164 b 433 1255 564 1164 531 1255 b 284 1069 349 1255 284 1189 l 392 1069 b 439 1152 392 1119 408 1152 b 619 1060 490 1152 525 1060 z "},"Ờ":{"ha":1084,"x_min":0,"x_max":0,"o":"m 523 -17 b 995 489 813 -17 995 178 b 864 831 995 625 939 774 l 864 836 l 905 836 b 1046 976 994 836 1046 888 l 1046 1133 l 889 1133 l 889 1022 b 815 962 889 980 866 962 b 523 996 707 962 640 996 b 51 489 233 996 51 800 b 523 -17 51 178 232 -17 z m 523 155 b 260 489 362 155 260 285 b 523 825 260 694 362 825 b 785 489 684 825 785 694 b 523 155 785 285 684 155 z m 443 1060 l 599 1060 l 446 1267 l 262 1267 z "},"Ớ":{"ha":1084,"x_min":0,"x_max":0,"o":"m 523 -17 b 995 489 813 -17 995 178 b 864 831 995 625 939 774 l 864 836 l 905 836 b 1046 976 994 836 1046 888 l 1046 1133 l 889 1133 l 889 1022 b 815 962 889 980 866 962 b 523 996 707 962 640 996 b 51 489 233 996 51 800 b 523 -17 51 178 232 -17 z m 523 155 b 260 489 362 155 260 285 b 523 825 260 694 362 825 b 785 489 684 825 785 694 b 523 155 785 285 684 155 z m 601 1057 l 782 1263 l 598 1263 l 445 1057 z "},"P":{"ha":858,"x_min":0,"x_max":0,"o":"m 81 979 l 81 0 l 286 0 l 286 309 l 469 309 b 819 644 675 309 819 443 b 479 979 819 845 680 979 z m 286 817 l 425 817 b 610 643 543 817 610 754 b 425 469 610 531 542 469 l 286 469 z "},"Ṗ":{"ha":858,"x_min":0,"x_max":0,"o":"m 81 979 l 81 0 l 286 0 l 286 309 l 469 309 b 819 644 675 309 819 443 b 479 979 819 845 680 979 z m 286 817 l 425 817 b 610 643 543 817 610 754 b 425 469 610 531 542 469 l 286 469 z m 399 1059 b 500 1160 456 1059 500 1104 b 399 1261 500 1215 456 1261 b 298 1160 342 1261 298 1215 b 399 1059 298 1104 342 1059 z "},"Ṕ":{"ha":858,"x_min":0,"x_max":0,"o":"m 81 979 l 81 0 l 286 0 l 286 309 l 469 309 b 819 644 675 309 819 443 b 479 979 819 845 680 979 z m 286 817 l 425 817 b 610 643 543 817 610 754 b 425 469 610 531 542 469 l 286 469 z m 477 1057 l 659 1263 l 475 1263 l 321 1057 z "},"Q":{"ha":1045,"x_min":0,"x_max":0,"o":"m 523 -17 b 694 10 585 -17 642 -8 l 764 -92 l 962 -92 l 838 95 b 994 489 939 178 994 317 b 523 996 994 800 812 996 b 51 489 233 996 51 800 b 523 -17 51 175 233 -17 z m 523 153 b 260 489 362 153 260 284 b 523 827 260 694 362 827 b 785 489 683 827 785 694 b 713 264 785 395 760 317 l 671 322 l 486 322 l 593 162 b 523 153 571 156 548 153 z "},"R":{"ha":889,"x_min":0,"x_max":0,"o":"m 286 819 l 460 819 b 626 663 562 819 626 758 b 463 507 626 566 566 507 l 286 507 z m 286 358 l 450 358 l 450 358 l 633 0 l 865 0 l 659 389 b 836 667 771 433 836 541 b 482 979 836 860 707 979 l 81 979 l 81 0 l 286 0 z "},"Ř":{"ha":889,"x_min":0,"x_max":0,"o":"m 286 819 l 460 819 b 626 663 562 819 626 758 b 463 507 626 566 566 507 l 286 507 z m 286 358 l 450 358 l 450 358 l 633 0 l 865 0 l 659 389 b 836 667 771 433 836 541 b 482 979 836 860 707 979 l 81 979 l 81 0 l 286 0 z m 342 1046 l 494 1046 l 676 1261 l 526 1261 l 420 1131 l 415 1131 l 309 1261 l 159 1261 z "},"Ṟ":{"ha":889,"x_min":0,"x_max":0,"o":"m 286 819 l 460 819 b 626 663 562 819 626 758 b 463 507 626 566 566 507 l 286 507 z m 286 358 l 450 358 l 450 358 l 633 0 l 865 0 l 659 389 b 836 667 771 433 836 541 b 482 979 836 860 707 979 l 81 979 l 81 0 l 286 0 z m 652 -155 l 183 -155 l 183 -256 l 652 -256 z "},"Ṝ":{"ha":889,"x_min":0,"x_max":0,"o":"m 286 819 l 460 819 b 626 663 562 819 626 758 b 463 507 626 566 566 507 l 286 507 z m 286 358 l 450 358 l 450 358 l 633 0 l 865 0 l 659 389 b 836 667 771 433 836 541 b 482 979 836 860 707 979 l 81 979 l 81 0 l 286 0 z m 418 -309 b 519 -208 475 -309 519 -264 b 418 -107 519 -153 475 -107 b 317 -208 361 -107 317 -153 b 418 -309 317 -264 361 -309 z m 652 1199 l 183 1199 l 183 1099 l 652 1099 z "},"Ȑ":{"ha":889,"x_min":0,"x_max":0,"o":"m 286 819 l 460 819 b 626 663 562 819 626 758 b 463 507 626 566 566 507 l 286 507 z m 286 358 l 450 358 l 450 358 l 633 0 l 865 0 l 659 389 b 836 667 771 433 836 541 b 482 979 836 860 707 979 l 81 979 l 81 0 l 286 0 z m 473 1057 l 629 1057 l 476 1263 l 292 1263 z m 202 1057 l 358 1057 l 205 1263 l 21 1263 z "},"Ȓ":{"ha":889,"x_min":0,"x_max":0,"o":"m 286 819 l 460 819 b 626 663 562 819 626 758 b 463 507 626 566 566 507 l 286 507 z m 286 358 l 450 358 l 450 358 l 633 0 l 865 0 l 659 389 b 836 667 771 433 836 541 b 482 979 836 860 707 979 l 81 979 l 81 0 l 286 0 z m 175 1044 l 298 1044 b 418 1160 303 1114 348 1160 b 538 1044 488 1160 532 1114 l 661 1044 b 418 1261 654 1160 568 1261 b 175 1044 267 1261 181 1160 z "},"Ŕ":{"ha":889,"x_min":0,"x_max":0,"o":"m 286 819 l 460 819 b 626 663 562 819 626 758 b 463 507 626 566 566 507 l 286 507 z m 286 358 l 450 358 l 450 358 l 633 0 l 865 0 l 659 389 b 836 667 771 433 836 541 b 482 979 836 860 707 979 l 81 979 l 81 0 l 286 0 z m 496 1057 l 677 1263 l 493 1263 l 340 1057 z "},"Ṛ":{"ha":889,"x_min":0,"x_max":0,"o":"m 286 819 l 460 819 b 626 663 562 819 626 758 b 463 507 626 566 566 507 l 286 507 z m 286 358 l 450 358 l 450 358 l 633 0 l 865 0 l 659 389 b 836 667 771 433 836 541 b 482 979 836 860 707 979 l 81 979 l 81 0 l 286 0 z m 418 -309 b 519 -208 475 -309 519 -264 b 418 -107 519 -153 475 -107 b 317 -208 361 -107 317 -153 b 418 -309 317 -264 361 -309 z "},"Ṙ":{"ha":889,"x_min":0,"x_max":0,"o":"m 286 819 l 460 819 b 626 663 562 819 626 758 b 463 507 626 566 566 507 l 286 507 z m 286 358 l 450 358 l 450 358 l 633 0 l 865 0 l 659 389 b 836 667 771 433 836 541 b 482 979 836 860 707 979 l 81 979 l 81 0 l 286 0 z m 418 1059 b 519 1160 475 1059 519 1104 b 418 1261 519 1215 475 1261 b 317 1160 361 1261 317 1215 b 418 1059 317 1104 361 1059 z "},"Ŗ":{"ha":889,"x_min":0,"x_max":0,"o":"m 286 819 l 460 819 b 626 663 562 819 626 758 b 463 507 626 566 566 507 l 286 507 z m 286 358 l 450 358 l 450 358 l 633 0 l 865 0 l 659 389 b 836 667 771 433 836 541 b 482 979 836 860 707 979 l 81 979 l 81 0 l 286 0 z m 398 -320 l 513 -90 l 339 -90 l 251 -320 z "},"S":{"ha":877,"x_min":0,"x_max":0,"o":"m 45 279 b 436 -17 51 95 201 -17 b 833 293 679 -17 833 103 b 551 568 833 442 747 526 l 433 593 b 273 713 320 619 273 653 b 441 834 273 786 340 834 b 623 701 544 834 616 784 l 815 701 b 441 996 812 878 669 996 b 66 696 222 996 66 876 b 336 422 66 553 155 461 l 463 395 b 628 269 581 368 628 333 b 444 145 628 197 553 145 b 242 279 336 145 252 198 z "},"Š":{"ha":877,"x_min":0,"x_max":0,"o":"m 45 279 b 436 -17 51 95 201 -17 b 833 293 679 -17 833 103 b 551 568 833 442 747 526 l 433 593 b 273 713 320 619 273 653 b 441 834 273 786 340 834 b 623 701 544 834 616 784 l 815 701 b 441 996 812 878 669 996 b 66 696 222 996 66 876 b 336 422 66 553 155 461 l 463 395 b 628 269 581 368 628 333 b 444 145 628 197 553 145 b 242 279 336 145 252 198 z m 368 1046 l 519 1046 l 702 1261 l 552 1261 l 446 1131 l 441 1131 l 335 1261 l 185 1261 z "},"Ş":{"ha":877,"x_min":0,"x_max":0,"o":"m 433 593 b 273 713 320 619 273 653 b 441 834 273 786 340 834 b 623 701 544 834 616 784 l 815 701 b 441 996 812 878 669 996 b 66 696 222 996 66 876 b 336 422 66 553 155 461 l 463 395 b 628 269 581 368 628 333 b 444 145 628 197 553 145 b 242 279 336 145 252 198 l 45 279 b 391 -16 50 107 182 -2 l 358 -87 l 358 -154 l 401 -154 b 484 -191 460 -154 484 -163 b 409 -228 484 -216 460 -228 b 333 -220 382 -228 349 -224 l 333 -302 b 429 -312 351 -309 391 -313 b 597 -186 532 -311 597 -268 b 470 -75 597 -117 547 -75 l 498 -14 b 833 293 705 5 833 120 b 551 568 833 442 747 526 z "},"Ṡ":{"ha":877,"x_min":0,"x_max":0,"o":"m 45 279 b 436 -17 51 95 201 -17 b 833 293 679 -17 833 103 b 551 568 833 442 747 526 l 433 593 b 273 713 320 619 273 653 b 441 834 273 786 340 834 b 623 701 544 834 616 784 l 815 701 b 441 996 812 878 669 996 b 66 696 222 996 66 876 b 336 422 66 553 155 461 l 463 395 b 628 269 581 368 628 333 b 444 145 628 197 553 145 b 242 279 336 145 252 198 z m 444 1059 b 545 1160 500 1059 545 1104 b 444 1261 545 1215 500 1261 b 342 1160 387 1261 342 1215 b 444 1059 342 1104 387 1059 z "},"Ṣ":{"ha":877,"x_min":0,"x_max":0,"o":"m 45 279 b 436 -17 51 95 201 -17 b 833 293 679 -17 833 103 b 551 568 833 442 747 526 l 433 593 b 273 713 320 619 273 653 b 441 834 273 786 340 834 b 623 701 544 834 616 784 l 815 701 b 441 996 812 878 669 996 b 66 696 222 996 66 876 b 336 422 66 553 155 461 l 463 395 b 628 269 581 368 628 333 b 444 145 628 197 553 145 b 242 279 336 145 252 198 z m 438 -309 b 539 -208 495 -309 539 -264 b 438 -107 539 -153 495 -107 b 337 -208 381 -107 337 -153 b 438 -309 337 -264 381 -309 z "},"Ș":{"ha":877,"x_min":0,"x_max":0,"o":"m 45 279 b 436 -17 51 95 201 -17 b 833 293 679 -17 833 103 b 551 568 833 442 747 526 l 433 593 b 273 713 320 619 273 653 b 441 834 273 786 340 834 b 623 701 544 834 616 784 l 815 701 b 441 996 812 878 669 996 b 66 696 222 996 66 876 b 336 422 66 553 155 461 l 463 395 b 628 269 581 368 628 333 b 444 145 628 197 553 145 b 242 279 336 145 252 198 z m 418 -320 l 533 -90 l 359 -90 l 271 -320 z "},"Ṩ":{"ha":877,"x_min":0,"x_max":0,"o":"m 45 279 b 436 -17 51 95 201 -17 b 833 293 679 -17 833 103 b 551 568 833 442 747 526 l 433 593 b 273 713 320 619 273 653 b 441 834 273 786 340 834 b 623 701 544 834 616 784 l 815 701 b 441 996 812 878 669 996 b 66 696 222 996 66 876 b 336 422 66 553 155 461 l 463 395 b 628 269 581 368 628 333 b 444 145 628 197 553 145 b 242 279 336 145 252 198 z m 438 -309 b 539 -208 495 -309 539 -264 b 438 -107 539 -153 495 -107 b 337 -208 381 -107 337 -153 b 438 -309 337 -264 381 -309 z m 444 1059 b 545 1160 500 1059 545 1104 b 444 1261 545 1215 500 1261 b 342 1160 387 1261 342 1215 b 444 1059 342 1104 387 1059 z "},"Ṧ":{"ha":877,"x_min":0,"x_max":0,"o":"m 45 279 b 436 -17 51 95 201 -17 b 833 293 679 -17 833 103 b 551 568 833 442 747 526 l 433 593 b 273 713 320 619 273 653 b 441 834 273 786 340 834 b 623 701 544 834 616 784 l 815 701 b 441 996 812 878 669 996 b 66 696 222 996 66 876 b 336 422 66 553 155 461 l 463 395 b 628 269 581 368 628 333 b 444 145 628 197 553 145 b 242 279 336 145 252 198 z m 365 1043 l 522 1043 l 704 1234 l 550 1234 l 446 1121 l 441 1121 l 337 1234 l 183 1234 z m 444 1256 b 534 1344 496 1256 534 1296 b 444 1432 534 1393 496 1432 b 353 1344 391 1432 353 1393 b 444 1256 353 1296 391 1256 z "},"Ŝ":{"ha":877,"x_min":0,"x_max":0,"o":"m 45 279 b 436 -17 51 95 201 -17 b 833 293 679 -17 833 103 b 551 568 833 442 747 526 l 433 593 b 273 713 320 619 273 653 b 441 834 273 786 340 834 b 623 701 544 834 616 784 l 815 701 b 441 996 812 878 669 996 b 66 696 222 996 66 876 b 336 422 66 553 155 461 l 463 395 b 628 269 581 368 628 333 b 444 145 628 197 553 145 b 242 279 336 145 252 198 z m 368 1258 l 185 1043 l 335 1043 l 441 1173 l 446 1173 l 552 1043 l 702 1043 l 519 1258 z "},"Ṥ":{"ha":877,"x_min":0,"x_max":0,"o":"m 45 279 b 436 -17 51 95 201 -17 b 833 293 679 -17 833 103 b 551 568 833 442 747 526 l 433 593 b 273 713 320 619 273 653 b 441 834 273 786 340 834 b 623 701 544 834 616 784 l 815 701 b 441 996 812 878 669 996 b 66 696 222 996 66 876 b 336 422 66 553 155 461 l 463 395 b 628 269 581 368 628 333 b 444 145 628 197 553 145 b 242 279 336 145 252 198 z m 602 1057 l 783 1263 l 600 1263 l 446 1057 z m 290 1064 b 391 1165 347 1064 391 1109 b 290 1266 391 1221 347 1266 b 189 1165 233 1266 189 1221 b 290 1064 189 1109 233 1064 z "},"Ś":{"ha":877,"x_min":0,"x_max":0,"o":"m 45 279 b 436 -17 51 95 201 -17 b 833 293 679 -17 833 103 b 551 568 833 442 747 526 l 433 593 b 273 713 320 619 273 653 b 441 834 273 786 340 834 b 623 701 544 834 616 784 l 815 701 b 441 996 812 878 669 996 b 66 696 222 996 66 876 b 336 422 66 553 155 461 l 463 395 b 628 269 581 368 628 333 b 444 145 628 197 553 145 b 242 279 336 145 252 198 z m 522 1057 l 703 1263 l 519 1263 l 366 1057 z "},"ẞ":{"ha":1754,"x_min":0,"x_max":0,"o":"m 45 279 b 436 -17 51 95 201 -17 b 833 293 679 -17 833 103 b 551 568 833 442 747 526 l 433 593 b 273 713 320 619 273 653 b 441 834 273 786 340 834 b 623 701 544 834 616 784 l 815 701 b 441 996 812 878 669 996 b 66 696 222 996 66 876 b 336 422 66 553 155 461 l 463 395 b 628 269 581 368 628 333 b 444 145 628 197 553 145 b 242 279 336 145 252 198 z m 922 279 b 1313 -17 928 95 1078 -17 b 1710 293 1556 -17 1710 103 b 1428 568 1710 442 1624 526 l 1310 593 b 1149 713 1197 619 1149 653 b 1318 834 1149 786 1217 834 b 1500 701 1421 834 1493 784 l 1692 701 b 1318 996 1689 878 1546 996 b 943 696 1099 996 943 876 b 1213 422 943 553 1032 461 l 1340 395 b 1505 269 1458 368 1505 333 b 1321 145 1505 197 1430 145 b 1119 279 1213 145 1128 198 z "},"T":{"ha":836,"x_min":0,"x_max":0,"o":"m 520 0 l 520 810 l 804 810 l 804 979 l 33 979 l 33 810 l 315 810 l 315 0 z "},"Ṱ":{"ha":836,"x_min":0,"x_max":0,"o":"m 520 0 l 520 810 l 804 810 l 804 979 l 33 979 l 33 810 l 315 810 l 315 0 z m 342 -96 l 159 -311 l 309 -311 l 415 -180 l 420 -180 l 526 -311 l 676 -311 l 494 -96 z "},"Ṭ":{"ha":836,"x_min":0,"x_max":0,"o":"m 520 0 l 520 810 l 804 810 l 804 979 l 33 979 l 33 810 l 315 810 l 315 0 z m 418 -309 b 519 -208 475 -309 519 -264 b 418 -107 519 -153 475 -107 b 317 -208 361 -107 317 -153 b 418 -309 317 -264 361 -309 z "},"Ț":{"ha":836,"x_min":0,"x_max":0,"o":"m 520 0 l 520 810 l 804 810 l 804 979 l 33 979 l 33 810 l 315 810 l 315 0 z m 389 -320 l 503 -90 l 330 -90 l 241 -320 z "},"Ṫ":{"ha":836,"x_min":0,"x_max":0,"o":"m 520 0 l 520 810 l 804 810 l 804 979 l 33 979 l 33 810 l 315 810 l 315 0 z m 418 1059 b 519 1160 475 1059 519 1104 b 418 1261 519 1215 475 1261 b 317 1160 361 1261 317 1215 b 418 1059 317 1104 361 1059 z "},"Ţ":{"ha":836,"x_min":0,"x_max":0,"o":"m 520 0 l 520 810 l 804 810 l 804 979 l 33 979 l 33 810 l 315 810 l 315 0 l 381 0 l 341 -87 l 341 -154 l 384 -154 b 467 -191 444 -154 467 -163 b 392 -228 467 -216 443 -228 b 316 -220 366 -228 332 -224 l 316 -302 b 412 -312 334 -309 374 -313 b 581 -186 515 -311 581 -268 b 453 -75 581 -117 530 -75 l 488 0 z "},"Ṯ":{"ha":836,"x_min":0,"x_max":0,"o":"m 520 0 l 520 810 l 804 810 l 804 979 l 33 979 l 33 810 l 315 810 l 315 0 z m 652 -155 l 183 -155 l 183 -256 l 652 -256 z "},"Ť":{"ha":836,"x_min":0,"x_max":0,"o":"m 520 0 l 520 810 l 804 810 l 804 979 l 33 979 l 33 810 l 315 810 l 315 0 z m 342 1046 l 494 1046 l 676 1261 l 526 1261 l 420 1131 l 415 1131 l 309 1261 l 159 1261 z "},"Ŧ":{"ha":860,"x_min":0,"x_max":0,"o":"m 810 810 l 810 979 l 39 979 l 39 810 l 322 810 l 322 543 l 136 543 l 136 399 l 322 399 l 322 0 l 527 0 l 527 399 l 724 399 l 724 543 l 527 543 l 527 810 z "},"U":{"ha":983,"x_min":0,"x_max":0,"o":"m 286 979 l 81 979 l 81 346 b 492 -17 81 130 241 -17 b 901 346 742 -17 901 130 l 901 979 l 696 979 l 696 366 b 492 159 696 241 623 159 b 286 366 360 159 286 241 z "},"Ù":{"ha":983,"x_min":0,"x_max":0,"o":"m 286 979 l 81 979 l 81 346 b 492 -17 81 130 241 -17 b 901 346 742 -17 901 130 l 901 979 l 696 979 l 696 366 b 492 159 696 241 623 159 b 286 366 360 159 286 241 z m 412 1060 l 568 1060 l 414 1267 l 231 1267 z "},"Ȕ":{"ha":983,"x_min":0,"x_max":0,"o":"m 286 979 l 81 979 l 81 346 b 492 -17 81 130 241 -17 b 901 346 742 -17 901 130 l 901 979 l 696 979 l 696 366 b 492 159 696 241 623 159 b 286 366 360 159 286 241 z m 547 1057 l 703 1057 l 550 1263 l 366 1263 z m 276 1057 l 432 1057 l 279 1263 l 95 1263 z "},"Ú":{"ha":983,"x_min":0,"x_max":0,"o":"m 286 979 l 81 979 l 81 346 b 492 -17 81 130 241 -17 b 901 346 742 -17 901 130 l 901 979 l 696 979 l 696 366 b 492 159 696 241 623 159 b 286 366 360 159 286 241 z m 570 1057 l 751 1263 l 567 1263 l 414 1057 z "},"Ű":{"ha":983,"x_min":0,"x_max":0,"o":"m 286 979 l 81 979 l 81 346 b 492 -17 81 130 241 -17 b 901 346 742 -17 901 130 l 901 979 l 696 979 l 696 366 b 492 159 696 241 623 159 b 286 366 360 159 286 241 z m 707 1057 l 888 1263 l 705 1263 l 551 1057 z m 436 1057 l 617 1263 l 433 1263 l 280 1057 z "},"Û":{"ha":983,"x_min":0,"x_max":0,"o":"m 286 979 l 81 979 l 81 346 b 492 -17 81 130 241 -17 b 901 346 742 -17 901 130 l 901 979 l 696 979 l 696 366 b 492 159 696 241 623 159 b 286 366 360 159 286 241 z m 416 1258 l 233 1043 l 383 1043 l 489 1173 l 494 1173 l 600 1043 l 750 1043 l 568 1258 z "},"Ǔ":{"ha":983,"x_min":0,"x_max":0,"o":"m 286 979 l 81 979 l 81 346 b 492 -17 81 130 241 -17 b 901 346 742 -17 901 130 l 901 979 l 696 979 l 696 366 b 492 159 696 241 623 159 b 286 366 360 159 286 241 z m 416 1046 l 568 1046 l 750 1261 l 600 1261 l 494 1131 l 489 1131 l 383 1261 l 233 1261 z "},"Ṷ":{"ha":983,"x_min":0,"x_max":0,"o":"m 286 979 l 81 979 l 81 346 b 492 -17 81 130 241 -17 b 901 346 742 -17 901 130 l 901 979 l 696 979 l 696 366 b 492 159 696 241 623 159 b 286 366 360 159 286 241 z m 416 -96 l 233 -311 l 383 -311 l 489 -180 l 494 -180 l 600 -311 l 750 -311 l 568 -96 z "},"Ü":{"ha":983,"x_min":0,"x_max":0,"o":"m 286 979 l 81 979 l 81 346 b 492 -17 81 130 241 -17 b 901 346 742 -17 901 130 l 901 979 l 696 979 l 696 366 b 492 159 696 241 623 159 b 286 366 360 159 286 241 z m 353 1065 b 444 1154 405 1065 444 1105 b 353 1242 444 1202 405 1242 b 262 1154 302 1242 262 1202 b 353 1065 262 1105 302 1065 z m 630 1065 b 721 1154 682 1065 721 1105 b 630 1242 721 1202 682 1242 b 539 1154 578 1242 539 1202 b 630 1065 539 1105 578 1065 z "},"Ǜ":{"ha":983,"x_min":0,"x_max":0,"o":"m 286 979 l 81 979 l 81 346 b 492 -17 81 130 241 -17 b 901 346 742 -17 901 130 l 901 979 l 696 979 l 696 366 b 492 159 696 241 623 159 b 286 366 360 159 286 241 z m 569 1274 l 444 1442 l 277 1442 l 422 1274 z m 356 1048 b 445 1135 407 1048 445 1087 b 356 1221 445 1183 407 1221 b 267 1135 305 1221 267 1183 b 356 1048 267 1087 305 1048 z m 627 1048 b 716 1135 678 1048 716 1087 b 627 1221 716 1183 678 1221 b 538 1135 576 1221 538 1183 b 627 1048 538 1087 576 1048 z "},"Ǘ":{"ha":983,"x_min":0,"x_max":0,"o":"m 286 979 l 81 979 l 81 346 b 492 -17 81 130 241 -17 b 901 346 742 -17 901 130 l 901 979 l 696 979 l 696 366 b 492 159 696 241 623 159 b 286 366 360 159 286 241 z m 411 1274 l 557 1274 l 703 1442 l 536 1442 z m 356 1048 b 445 1135 407 1048 445 1087 b 356 1221 445 1183 407 1221 b 267 1135 305 1221 267 1183 b 356 1048 267 1087 305 1048 z m 627 1048 b 716 1135 678 1048 716 1087 b 627 1221 716 1183 678 1221 b 538 1135 576 1221 538 1183 b 627 1048 538 1087 576 1048 z "},"Ǖ":{"ha":983,"x_min":0,"x_max":0,"o":"m 286 979 l 81 979 l 81 346 b 492 -17 81 130 241 -17 b 901 346 742 -17 901 130 l 901 979 l 696 979 l 696 366 b 492 159 696 241 623 159 b 286 366 360 159 286 241 z m 356 1221 b 267 1135 305 1221 267 1183 b 356 1048 267 1087 305 1048 b 445 1135 407 1048 445 1087 b 356 1221 445 1183 407 1221 z m 257 1406 l 257 1305 l 726 1305 l 726 1406 z m 627 1221 b 538 1135 576 1221 538 1183 b 627 1048 538 1087 576 1048 b 716 1135 678 1048 716 1087 b 627 1221 716 1183 678 1221 z "},"Ǚ":{"ha":983,"x_min":0,"x_max":0,"o":"m 286 979 l 81 979 l 81 346 b 492 -17 81 130 241 -17 b 901 346 742 -17 901 130 l 901 979 l 696 979 l 696 366 b 492 159 696 241 623 159 b 286 366 360 159 286 241 z m 418 1269 l 566 1269 l 739 1451 l 589 1451 l 496 1350 l 487 1350 l 394 1451 l 244 1451 z m 356 1221 b 267 1135 305 1221 267 1183 b 356 1048 267 1087 305 1048 b 445 1135 407 1048 445 1087 b 356 1221 445 1183 407 1221 z m 627 1221 b 538 1135 576 1221 538 1183 b 627 1048 538 1087 576 1048 b 716 1135 678 1048 716 1087 b 627 1221 716 1183 678 1221 z "},"Ṳ":{"ha":983,"x_min":0,"x_max":0,"o":"m 286 979 l 81 979 l 81 346 b 492 -17 81 130 241 -17 b 901 346 742 -17 901 130 l 901 979 l 696 979 l 696 366 b 492 159 696 241 623 159 b 286 366 360 159 286 241 z m 353 -276 b 444 -188 405 -276 444 -237 b 353 -100 444 -139 405 -100 b 262 -188 302 -100 262 -139 b 353 -276 262 -237 302 -276 z m 630 -276 b 721 -188 682 -276 721 -237 b 630 -100 721 -139 682 -100 b 539 -188 578 -100 539 -139 b 630 -276 539 -237 578 -276 z "},"Ṵ":{"ha":983,"x_min":0,"x_max":0,"o":"m 286 979 l 81 979 l 81 346 b 492 -17 81 130 241 -17 b 901 346 742 -17 901 130 l 901 979 l 696 979 l 696 366 b 492 159 696 241 623 159 b 286 366 360 159 286 241 z m 588 -271 b 736 -83 670 -271 736 -201 l 629 -83 b 582 -168 627 -137 612 -168 b 402 -76 533 -168 500 -76 b 253 -262 318 -76 253 -142 l 361 -262 b 408 -179 361 -212 377 -179 b 588 -271 458 -179 494 -271 z "},"Ủ":{"ha":983,"x_min":0,"x_max":0,"o":"m 286 979 l 81 979 l 81 346 b 492 -17 81 130 241 -17 b 901 346 742 -17 901 130 l 901 979 l 696 979 l 696 366 b 492 159 696 241 623 159 b 286 366 360 159 286 241 z m 366 1207 b 438 1220 386 1215 416 1220 b 504 1171 477 1220 504 1200 b 438 1098 504 1141 477 1112 l 496 1027 b 624 1181 571 1056 624 1116 b 463 1314 624 1263 561 1314 b 366 1297 427 1314 390 1308 z "},"Ŭ":{"ha":983,"x_min":0,"x_max":0,"o":"m 286 979 l 81 979 l 81 346 b 492 -17 81 130 241 -17 b 901 346 742 -17 901 130 l 901 979 l 696 979 l 696 366 b 492 159 696 241 623 159 b 286 366 360 159 286 241 z m 249 1261 b 492 1044 255 1144 341 1044 b 734 1261 642 1044 728 1144 l 612 1261 b 492 1145 606 1191 562 1145 b 372 1261 422 1145 377 1191 z "},"Ȗ":{"ha":983,"x_min":0,"x_max":0,"o":"m 286 979 l 81 979 l 81 346 b 492 -17 81 130 241 -17 b 901 346 742 -17 901 130 l 901 979 l 696 979 l 696 366 b 492 159 696 241 623 159 b 286 366 360 159 286 241 z m 249 1044 l 372 1044 b 492 1160 377 1114 422 1160 b 612 1044 562 1160 606 1114 l 734 1044 b 492 1261 728 1160 642 1261 b 249 1044 341 1261 255 1160 z "},"Ṹ":{"ha":983,"x_min":0,"x_max":0,"o":"m 286 979 l 81 979 l 81 346 b 492 -17 81 130 241 -17 b 901 346 742 -17 901 130 l 901 979 l 696 979 l 696 366 b 492 159 696 241 623 159 b 286 366 360 159 286 241 z m 584 1044 b 729 1226 665 1044 729 1113 l 623 1226 b 577 1146 623 1177 607 1146 b 400 1237 528 1146 492 1237 b 254 1057 317 1237 254 1171 l 360 1057 b 407 1135 359 1103 376 1135 b 584 1044 456 1135 491 1044 z m 416 1280 l 563 1280 l 709 1442 l 542 1442 z "},"Ụ":{"ha":983,"x_min":0,"x_max":0,"o":"m 286 979 l 81 979 l 81 346 b 492 -17 81 130 241 -17 b 901 346 742 -17 901 130 l 901 979 l 696 979 l 696 366 b 492 159 696 241 623 159 b 286 366 360 159 286 241 z m 492 -309 b 593 -208 549 -309 593 -264 b 492 -107 593 -153 549 -107 b 391 -208 435 -107 391 -153 b 492 -309 391 -264 435 -309 z "},"Ũ":{"ha":983,"x_min":0,"x_max":0,"o":"m 286 979 l 81 979 l 81 346 b 492 -17 81 130 241 -17 b 901 346 742 -17 901 130 l 901 979 l 696 979 l 696 366 b 492 159 696 241 623 159 b 286 366 360 159 286 241 z m 588 1060 b 736 1248 670 1060 736 1131 l 629 1248 b 582 1164 627 1194 612 1164 b 402 1255 533 1164 500 1255 b 253 1069 318 1255 253 1189 l 361 1069 b 408 1152 361 1119 377 1152 b 588 1060 458 1152 494 1060 z "},"Ū":{"ha":983,"x_min":0,"x_max":0,"o":"m 286 979 l 81 979 l 81 346 b 492 -17 81 130 241 -17 b 901 346 742 -17 901 130 l 901 979 l 696 979 l 696 366 b 492 159 696 241 623 159 b 286 366 360 159 286 241 z m 726 1199 l 257 1199 l 257 1099 l 726 1099 z "},"Ṻ":{"ha":983,"x_min":0,"x_max":0,"o":"m 286 979 l 81 979 l 81 346 b 492 -17 81 130 241 -17 b 901 346 742 -17 901 130 l 901 979 l 696 979 l 696 366 b 492 159 696 241 623 159 b 286 366 360 159 286 241 z m 726 1084 l 726 1185 l 257 1185 l 257 1084 z m 356 1277 b 445 1364 407 1277 445 1316 b 356 1451 445 1412 407 1451 b 267 1364 305 1451 267 1412 b 356 1277 267 1316 305 1277 z m 627 1277 b 716 1364 678 1277 716 1316 b 627 1451 716 1412 678 1451 b 538 1364 576 1451 538 1412 b 627 1277 538 1316 576 1277 z "},"Ů":{"ha":983,"x_min":0,"x_max":0,"o":"m 286 979 l 81 979 l 81 346 b 492 -17 81 130 241 -17 b 901 346 742 -17 901 130 l 901 979 l 696 979 l 696 366 b 492 159 696 241 623 159 b 286 366 360 159 286 241 z m 492 1029 b 631 1166 568 1029 631 1091 b 492 1303 631 1242 568 1303 b 352 1166 416 1303 352 1242 b 492 1029 352 1091 416 1029 z m 492 1105 b 429 1166 458 1105 429 1133 b 492 1227 429 1200 458 1227 b 554 1166 526 1227 554 1200 b 492 1105 554 1133 526 1105 z "},"Ų":{"ha":983,"x_min":0,"x_max":0,"o":"m 647 -313 b 745 -299 691 -313 726 -308 l 745 -193 b 694 -199 734 -196 713 -199 b 611 -130 645 -199 611 -175 b 743 41 611 -78 657 -25 b 901 346 849 124 901 222 l 901 979 l 696 979 l 696 366 b 492 159 696 237 619 159 b 286 366 364 159 286 237 l 286 979 l 81 979 l 81 346 b 492 -17 81 127 244 -17 b 568 -7 516 -17 547 -13 l 568 -11 b 466 -172 508 -50 466 -111 b 647 -313 466 -256 542 -313 z "},"Ư":{"ha":1135,"x_min":0,"x_max":0,"o":"m 492 -17 b 901 346 739 -17 901 127 l 901 848 l 966 848 b 1120 992 1061 848 1120 901 l 1120 1154 l 963 1154 l 963 1031 b 909 979 963 996 944 979 l 696 979 l 696 366 b 492 159 696 237 619 159 b 286 366 364 159 286 237 l 286 979 l 81 979 l 81 346 b 492 -17 81 127 244 -17 z "},"Ừ":{"ha":1135,"x_min":0,"x_max":0,"o":"m 492 -17 b 901 346 739 -17 901 127 l 901 848 l 966 848 b 1120 992 1061 848 1120 901 l 1120 1154 l 963 1154 l 963 1031 b 909 979 963 996 944 979 l 696 979 l 696 366 b 492 159 696 237 619 159 b 286 366 364 159 286 237 l 286 979 l 81 979 l 81 346 b 492 -17 81 127 244 -17 z m 412 1060 l 568 1060 l 414 1267 l 231 1267 z "},"Ứ":{"ha":1135,"x_min":0,"x_max":0,"o":"m 492 -17 b 901 346 739 -17 901 127 l 901 848 l 966 848 b 1120 992 1061 848 1120 901 l 1120 1154 l 963 1154 l 963 1031 b 909 979 963 996 944 979 l 696 979 l 696 366 b 492 159 696 237 619 159 b 286 366 364 159 286 237 l 286 979 l 81 979 l 81 346 b 492 -17 81 127 244 -17 z m 570 1057 l 751 1263 l 567 1263 l 414 1057 z "},"Ự":{"ha":1135,"x_min":0,"x_max":0,"o":"m 492 -17 b 901 346 739 -17 901 127 l 901 848 l 966 848 b 1120 992 1061 848 1120 901 l 1120 1154 l 963 1154 l 963 1031 b 909 979 963 996 944 979 l 696 979 l 696 366 b 492 159 696 237 619 159 b 286 366 364 159 286 237 l 286 979 l 81 979 l 81 346 b 492 -17 81 127 244 -17 z m 492 -309 b 593 -208 549 -309 593 -264 b 492 -107 593 -153 549 -107 b 391 -208 435 -107 391 -153 b 492 -309 391 -264 435 -309 z "},"Ử":{"ha":1135,"x_min":0,"x_max":0,"o":"m 492 -17 b 901 346 739 -17 901 127 l 901 848 l 966 848 b 1120 992 1061 848 1120 901 l 1120 1154 l 963 1154 l 963 1031 b 909 979 963 996 944 979 l 696 979 l 696 366 b 492 159 696 237 619 159 b 286 366 364 159 286 237 l 286 979 l 81 979 l 81 346 b 492 -17 81 127 244 -17 z m 366 1207 b 438 1220 386 1215 416 1220 b 504 1171 477 1220 504 1200 b 438 1098 504 1141 477 1112 l 496 1027 b 624 1181 571 1056 624 1116 b 463 1314 624 1263 561 1314 b 366 1297 427 1314 390 1308 z "},"Ữ":{"ha":1135,"x_min":0,"x_max":0,"o":"m 492 -17 b 901 346 739 -17 901 127 l 901 848 l 966 848 b 1120 992 1061 848 1120 901 l 1120 1154 l 963 1154 l 963 1031 b 909 979 963 996 944 979 l 696 979 l 696 366 b 492 159 696 237 619 159 b 286 366 364 159 286 237 l 286 979 l 81 979 l 81 346 b 492 -17 81 127 244 -17 z m 588 1060 b 736 1248 670 1060 736 1131 l 629 1248 b 582 1164 627 1194 612 1164 b 402 1255 533 1164 500 1255 b 253 1069 318 1255 253 1189 l 361 1069 b 408 1152 361 1119 377 1152 b 588 1060 458 1152 494 1060 z "},"V":{"ha":942,"x_min":0,"x_max":0,"o":"m 595 0 l 924 979 l 701 979 l 477 211 l 472 211 l 248 979 l 19 979 l 348 0 z "},"Ṽ":{"ha":942,"x_min":0,"x_max":0,"o":"m 595 0 l 924 979 l 701 979 l 477 211 l 472 211 l 248 979 l 19 979 l 348 0 z m 568 1060 b 716 1248 650 1060 716 1131 l 608 1248 b 562 1164 607 1194 591 1164 b 382 1255 513 1164 479 1255 b 233 1069 298 1255 233 1189 l 340 1069 b 388 1152 340 1119 357 1152 b 568 1060 438 1152 473 1060 z "},"Ṿ":{"ha":942,"x_min":0,"x_max":0,"o":"m 595 0 l 924 979 l 701 979 l 477 211 l 472 211 l 248 979 l 19 979 l 348 0 z m 471 -309 b 572 -208 528 -309 572 -264 b 471 -107 572 -153 528 -107 b 370 -208 414 -107 370 -153 b 471 -309 370 -264 414 -309 z "},"W":{"ha":1341,"x_min":0,"x_max":0,"o":"m 667 669 l 673 669 l 859 0 l 1053 0 l 1312 979 l 1100 979 l 945 270 l 940 270 l 757 979 l 584 979 l 401 270 l 395 270 l 241 979 l 29 979 l 288 0 l 481 0 z "},"Ẁ":{"ha":1341,"x_min":0,"x_max":0,"o":"m 667 669 l 673 669 l 859 0 l 1053 0 l 1312 979 l 1100 979 l 945 270 l 940 270 l 757 979 l 584 979 l 401 270 l 395 270 l 241 979 l 29 979 l 288 0 l 481 0 z m 591 1060 l 747 1060 l 593 1267 l 410 1267 z "},"Ẃ":{"ha":1341,"x_min":0,"x_max":0,"o":"m 667 669 l 673 669 l 859 0 l 1053 0 l 1312 979 l 1100 979 l 945 270 l 940 270 l 757 979 l 584 979 l 401 270 l 395 270 l 241 979 l 29 979 l 288 0 l 481 0 z m 749 1057 l 930 1263 l 746 1263 l 593 1057 z "},"Ẇ":{"ha":1341,"x_min":0,"x_max":0,"o":"m 667 669 l 673 669 l 859 0 l 1053 0 l 1312 979 l 1100 979 l 945 270 l 940 270 l 757 979 l 584 979 l 401 270 l 395 270 l 241 979 l 29 979 l 288 0 l 481 0 z m 671 1059 b 772 1160 728 1059 772 1104 b 671 1261 772 1215 728 1261 b 570 1160 614 1261 570 1215 b 671 1059 570 1104 614 1059 z "},"Ẉ":{"ha":1341,"x_min":0,"x_max":0,"o":"m 667 669 l 673 669 l 859 0 l 1053 0 l 1312 979 l 1100 979 l 945 270 l 940 270 l 757 979 l 584 979 l 401 270 l 395 270 l 241 979 l 29 979 l 288 0 l 481 0 z m 671 -309 b 772 -208 728 -309 772 -264 b 671 -107 772 -153 728 -107 b 570 -208 614 -107 570 -153 b 671 -309 570 -264 614 -309 z "},"Ẅ":{"ha":1341,"x_min":0,"x_max":0,"o":"m 667 669 l 673 669 l 859 0 l 1053 0 l 1312 979 l 1100 979 l 945 270 l 940 270 l 757 979 l 584 979 l 401 270 l 395 270 l 241 979 l 29 979 l 288 0 l 481 0 z m 532 1065 b 623 1154 584 1065 623 1105 b 532 1242 623 1202 584 1242 b 441 1154 481 1242 441 1202 b 532 1065 441 1105 481 1065 z m 809 1065 b 900 1154 861 1065 900 1105 b 809 1242 900 1202 861 1242 b 718 1154 758 1242 718 1202 b 809 1065 718 1105 758 1065 z "},"Ŵ":{"ha":1341,"x_min":0,"x_max":0,"o":"m 667 669 l 673 669 l 859 0 l 1053 0 l 1312 979 l 1100 979 l 945 270 l 940 270 l 757 979 l 584 979 l 401 270 l 395 270 l 241 979 l 29 979 l 288 0 l 481 0 z m 595 1258 l 412 1043 l 562 1043 l 668 1173 l 673 1173 l 779 1043 l 929 1043 l 747 1258 z "},"X":{"ha":952,"x_min":0,"x_max":0,"o":"m 29 0 l 250 0 l 466 342 l 471 342 l 686 0 l 919 0 l 603 487 l 603 492 l 923 979 l 694 979 l 485 626 l 479 626 l 272 979 l 31 979 l 340 496 l 340 490 z "},"Ẋ":{"ha":952,"x_min":0,"x_max":0,"o":"m 29 0 l 250 0 l 466 342 l 471 342 l 686 0 l 919 0 l 603 487 l 603 492 l 923 979 l 694 979 l 485 626 l 479 626 l 272 979 l 31 979 l 340 496 l 340 490 z m 476 1059 b 577 1160 533 1059 577 1104 b 476 1261 577 1215 533 1261 b 375 1160 419 1261 375 1215 b 476 1059 375 1104 419 1059 z "},"Ẍ":{"ha":952,"x_min":0,"x_max":0,"o":"m 29 0 l 250 0 l 466 342 l 471 342 l 686 0 l 919 0 l 603 487 l 603 492 l 923 979 l 694 979 l 485 626 l 479 626 l 272 979 l 31 979 l 340 496 l 340 490 z m 338 1065 b 429 1154 389 1065 429 1105 b 338 1242 429 1202 389 1242 b 247 1154 286 1242 247 1202 b 338 1065 247 1105 286 1065 z m 614 1065 b 705 1154 666 1065 705 1105 b 614 1242 705 1202 666 1242 b 524 1154 563 1242 524 1202 b 614 1065 524 1105 563 1065 z "},"Y":{"ha":924,"x_min":0,"x_max":0,"o":"m 564 0 l 564 366 l 905 979 l 686 979 l 466 561 l 461 561 l 242 979 l 19 979 l 359 366 l 359 0 z "},"Ỳ":{"ha":924,"x_min":0,"x_max":0,"o":"m 564 0 l 564 366 l 905 979 l 686 979 l 466 561 l 461 561 l 242 979 l 19 979 l 359 366 l 359 0 z m 382 1060 l 538 1060 l 385 1267 l 201 1267 z "},"Ý":{"ha":924,"x_min":0,"x_max":0,"o":"m 564 0 l 564 366 l 905 979 l 686 979 l 466 561 l 461 561 l 242 979 l 19 979 l 359 366 l 359 0 z m 540 1057 l 721 1263 l 537 1263 l 384 1057 z "},"Ẏ":{"ha":924,"x_min":0,"x_max":0,"o":"m 564 0 l 564 366 l 905 979 l 686 979 l 466 561 l 461 561 l 242 979 l 19 979 l 359 366 l 359 0 z m 462 1059 b 563 1160 519 1059 563 1104 b 462 1261 563 1215 519 1261 b 361 1160 405 1261 361 1215 b 462 1059 361 1104 405 1059 z "},"Ỵ":{"ha":924,"x_min":0,"x_max":0,"o":"m 564 0 l 564 366 l 905 979 l 686 979 l 466 561 l 461 561 l 242 979 l 19 979 l 359 366 l 359 0 z m 462 -309 b 563 -208 519 -309 563 -264 b 462 -107 563 -153 519 -107 b 361 -208 405 -107 361 -153 b 462 -309 361 -264 405 -309 z "},"Ÿ":{"ha":924,"x_min":0,"x_max":0,"o":"m 564 0 l 564 366 l 905 979 l 686 979 l 466 561 l 461 561 l 242 979 l 19 979 l 359 366 l 359 0 z m 323 1065 b 414 1154 375 1065 414 1105 b 323 1242 414 1202 375 1242 b 233 1154 272 1242 233 1202 b 323 1065 233 1105 272 1065 z m 600 1065 b 691 1154 652 1065 691 1105 b 600 1242 691 1202 652 1242 b 509 1154 549 1242 509 1202 b 600 1065 509 1105 549 1065 z "},"Ỹ":{"ha":924,"x_min":0,"x_max":0,"o":"m 564 0 l 564 366 l 905 979 l 686 979 l 466 561 l 461 561 l 242 979 l 19 979 l 359 366 l 359 0 z m 558 1060 b 707 1248 640 1060 707 1131 l 599 1248 b 552 1164 597 1194 582 1164 b 372 1255 503 1164 470 1255 b 223 1069 288 1255 223 1189 l 331 1069 b 378 1152 331 1119 347 1152 b 558 1060 429 1152 464 1060 z "},"Ŷ":{"ha":924,"x_min":0,"x_max":0,"o":"m 564 0 l 564 366 l 905 979 l 686 979 l 466 561 l 461 561 l 242 979 l 19 979 l 359 366 l 359 0 z m 386 1258 l 203 1043 l 353 1043 l 459 1173 l 465 1173 l 570 1043 l 720 1043 l 538 1258 z "},"Ȳ":{"ha":924,"x_min":0,"x_max":0,"o":"m 564 0 l 564 366 l 905 979 l 686 979 l 466 561 l 461 561 l 242 979 l 19 979 l 359 366 l 359 0 z m 696 1199 l 227 1199 l 227 1099 l 696 1099 z "},"Ỷ":{"ha":924,"x_min":0,"x_max":0,"o":"m 564 0 l 564 366 l 905 979 l 686 979 l 466 561 l 461 561 l 242 979 l 19 979 l 359 366 l 359 0 z m 336 1207 b 408 1220 356 1215 386 1220 b 474 1171 448 1220 474 1200 b 408 1098 474 1141 447 1112 l 467 1027 b 594 1181 541 1056 594 1116 b 433 1314 594 1263 531 1314 b 336 1297 397 1314 360 1308 z "},"Z":{"ha":876,"x_min":0,"x_max":0,"o":"m 60 0 l 816 0 l 816 170 l 307 170 l 307 174 l 802 846 l 802 979 l 72 979 l 72 810 l 557 810 l 557 804 l 60 134 z "},"Ź":{"ha":876,"x_min":0,"x_max":0,"o":"m 60 0 l 816 0 l 816 170 l 307 170 l 307 174 l 802 846 l 802 979 l 72 979 l 72 810 l 557 810 l 557 804 l 60 134 z m 516 1057 l 697 1263 l 513 1263 l 360 1057 z "},"Ž":{"ha":876,"x_min":0,"x_max":0,"o":"m 60 0 l 816 0 l 816 170 l 307 170 l 307 174 l 802 846 l 802 979 l 72 979 l 72 810 l 557 810 l 557 804 l 60 134 z m 362 1046 l 514 1046 l 696 1261 l 547 1261 l 441 1131 l 435 1131 l 330 1261 l 180 1261 z "},"Ẑ":{"ha":876,"x_min":0,"x_max":0,"o":"m 60 0 l 816 0 l 816 170 l 307 170 l 307 174 l 802 846 l 802 979 l 72 979 l 72 810 l 557 810 l 557 804 l 60 134 z m 362 1258 l 180 1043 l 330 1043 l 435 1173 l 441 1173 l 547 1043 l 696 1043 l 514 1258 z "},"Ẕ":{"ha":876,"x_min":0,"x_max":0,"o":"m 60 0 l 816 0 l 816 170 l 307 170 l 307 174 l 802 846 l 802 979 l 72 979 l 72 810 l 557 810 l 557 804 l 60 134 z m 673 -155 l 203 -155 l 203 -256 l 673 -256 z "},"Ẓ":{"ha":876,"x_min":0,"x_max":0,"o":"m 60 0 l 816 0 l 816 170 l 307 170 l 307 174 l 802 846 l 802 979 l 72 979 l 72 810 l 557 810 l 557 804 l 60 134 z m 438 -309 b 539 -208 495 -309 539 -264 b 438 -107 539 -153 495 -107 b 337 -208 381 -107 337 -153 b 438 -309 337 -264 381 -309 z "},"Ż":{"ha":876,"x_min":0,"x_max":0,"o":"m 60 0 l 816 0 l 816 170 l 307 170 l 307 174 l 802 846 l 802 979 l 72 979 l 72 810 l 557 810 l 557 804 l 60 134 z m 438 1059 b 539 1160 495 1059 539 1104 b 438 1261 539 1215 495 1261 b 337 1160 381 1261 337 1215 b 438 1059 337 1104 381 1059 z "},"Æ":{"ha":1383,"x_min":0,"x_max":0,"o":"m 563 821 l 655 821 l 655 406 l 390 406 z m 655 0 l 1296 0 l 1296 169 l 842 169 l 842 413 l 1271 413 l 1271 570 l 842 570 l 842 810 l 1296 810 l 1296 979 l 435 979 l 19 0 l 223 0 l 330 253 l 655 253 z "},"Ǣ":{"ha":1383,"x_min":0,"x_max":0,"o":"m 563 821 l 655 821 l 655 406 l 390 406 z m 655 0 l 1296 0 l 1296 169 l 842 169 l 842 413 l 1271 413 l 1271 570 l 842 570 l 842 810 l 1296 810 l 1296 979 l 435 979 l 19 0 l 223 0 l 330 253 l 655 253 z m 1135 1199 l 666 1199 l 666 1099 l 1135 1099 z "},"Ǽ":{"ha":1383,"x_min":0,"x_max":0,"o":"m 563 821 l 655 821 l 655 406 l 390 406 z m 655 0 l 1296 0 l 1296 169 l 842 169 l 842 413 l 1271 413 l 1271 570 l 842 570 l 842 810 l 1296 810 l 1296 979 l 435 979 l 19 0 l 223 0 l 330 253 l 655 253 z m 911 1057 l 1092 1263 l 908 1263 l 755 1057 z "},"Œ":{"ha":1503,"x_min":0,"x_max":0,"o":"m 528 827 b 793 489 689 827 793 694 b 528 153 793 284 690 153 b 263 489 367 153 263 284 b 528 827 263 694 367 827 z m 816 0 l 1437 0 l 1437 170 l 1000 170 l 1000 416 l 1411 416 l 1411 574 l 1000 574 l 1000 810 l 1437 810 l 1437 979 l 816 979 l 816 817 l 816 817 b 498 1000 759 933 642 1000 b 54 489 235 1000 54 796 b 496 -22 54 183 235 -22 b 816 160 640 -22 767 51 l 816 160 z "},"Ð":{"ha":989,"x_min":0,"x_max":0,"o":"m 300 170 l 300 422 l 473 422 l 473 572 l 300 572 l 300 810 l 444 810 b 726 492 625 810 726 697 b 444 170 726 281 627 170 z m 95 979 l 95 572 l 28 572 l 28 422 l 95 422 l 95 0 l 469 0 b 935 493 762 0 935 182 b 469 979 935 804 762 979 z "},"Þ":{"ha":902,"x_min":0,"x_max":0,"o":"m 102 979 l 102 0 l 307 0 l 307 199 l 507 199 b 839 509 696 199 839 316 b 517 819 839 703 701 819 l 309 819 l 309 979 z m 307 656 l 461 656 b 631 509 564 656 631 607 b 460 360 631 410 564 360 l 307 360 z "},"Α":{"ha":958,"x_min":0,"x_max":0,"o":"m 722 0 l 940 0 l 600 979 l 359 979 l 19 0 l 229 0 l 304 237 l 648 237 z m 473 791 l 478 791 l 604 391 l 348 391 z "},"Β":{"ha":888,"x_min":0,"x_max":0,"o":"m 515 0 b 853 280 724 0 853 108 b 623 517 853 410 755 507 l 623 522 b 806 734 726 538 806 627 b 507 979 806 884 691 979 l 81 979 l 81 0 z m 286 826 l 454 826 b 605 703 550 826 605 781 b 433 572 605 620 543 572 l 286 572 z m 286 153 l 286 437 l 458 437 b 644 296 578 437 644 388 b 463 153 644 203 581 153 z "},"Γ":{"ha":748,"x_min":0,"x_max":0,"o":"m 286 0 l 286 810 l 709 810 l 709 979 l 81 979 l 81 0 z "},"Δ":{"ha":945,"x_min":0,"x_max":0,"o":"m 910 0 l 910 117 l 593 979 l 353 979 l 36 117 l 36 0 z m 251 174 l 465 798 l 469 798 l 680 174 l 680 169 l 251 169 z "},"Ε":{"ha":796,"x_min":0,"x_max":0,"o":"m 730 170 l 286 170 l 286 416 l 705 416 l 705 574 l 286 574 l 286 810 l 730 810 l 730 979 l 81 979 l 81 0 l 730 0 z "},"Ζ":{"ha":876,"x_min":0,"x_max":0,"o":"m 60 0 l 816 0 l 816 170 l 307 170 l 307 174 l 802 846 l 802 979 l 72 979 l 72 810 l 557 810 l 557 804 l 60 134 z "},"Η":{"ha":1013,"x_min":0,"x_max":0,"o":"m 932 0 l 932 979 l 727 979 l 727 581 l 286 581 l 286 979 l 81 979 l 81 0 l 286 0 l 286 412 l 727 412 l 727 0 z "},"Θ":{"ha":1076,"x_min":0,"x_max":0,"o":"m 711 409 l 711 564 l 364 564 l 364 409 z m 538 996 b 51 490 229 996 51 798 b 538 -17 51 180 233 -17 b 1025 490 843 -17 1025 180 b 538 996 1025 798 848 996 z m 538 825 b 819 490 715 825 819 698 b 538 155 819 281 715 155 b 257 490 361 155 257 281 b 538 825 257 698 361 825 z "},"Ι":{"ha":368,"x_min":0,"x_max":0,"o":"m 286 0 l 286 979 l 81 979 l 81 0 z "},"Κ":{"ha":918,"x_min":0,"x_max":0,"o":"m 286 0 l 286 299 l 378 409 l 668 0 l 913 0 l 526 545 l 888 979 l 660 979 l 292 532 l 286 532 l 286 979 l 81 979 l 81 0 z "},"Λ":{"ha":938,"x_min":0,"x_max":0,"o":"m 702 0 l 919 0 l 589 979 l 349 979 l 19 0 l 229 0 l 463 781 l 468 781 z "},"Μ":{"ha":1199,"x_min":0,"x_max":0,"o":"m 1118 0 l 1118 979 l 880 979 l 602 285 l 597 285 l 319 979 l 81 979 l 81 0 l 264 0 l 264 661 l 269 661 l 535 9 l 664 9 l 930 661 l 935 661 l 935 0 z "},"Ν":{"ha":992,"x_min":0,"x_max":0,"o":"m 277 0 l 277 641 l 283 641 l 741 0 l 911 0 l 911 979 l 715 979 l 715 341 l 709 341 l 252 979 l 81 979 l 81 0 z "},"Ξ":{"ha":870,"x_min":0,"x_max":0,"o":"m 66 979 l 66 806 l 804 806 l 804 979 z m 745 413 l 745 574 l 125 574 l 125 413 z m 66 173 l 66 0 l 804 0 l 804 173 z "},"Ο":{"ha":1045,"x_min":0,"x_max":0,"o":"m 523 996 b 51 489 233 996 51 801 b 523 -17 51 178 233 -17 b 995 489 812 -17 995 178 b 523 996 995 801 812 996 z m 523 825 b 785 489 683 825 785 694 b 523 155 785 284 683 155 b 260 489 362 155 260 284 b 523 825 260 694 363 825 z "},"Π":{"ha":1000,"x_min":0,"x_max":0,"o":"m 918 0 l 918 979 l 81 979 l 81 0 l 286 0 l 286 810 l 713 810 l 713 0 z "},"Ρ":{"ha":858,"x_min":0,"x_max":0,"o":"m 81 979 l 81 0 l 286 0 l 286 309 l 469 309 b 819 644 675 309 819 443 b 479 979 819 845 680 979 z m 286 817 l 425 817 b 610 643 543 817 610 754 b 425 469 610 531 542 469 l 286 469 z "},"Σ":{"ha":859,"x_min":0,"x_max":0,"o":"m 311 174 l 542 496 l 542 500 l 330 804 l 330 810 l 781 810 l 781 979 l 75 979 l 75 834 l 319 491 l 60 125 l 60 0 l 799 0 l 799 170 l 311 170 z "},"Τ":{"ha":836,"x_min":0,"x_max":0,"o":"m 520 0 l 520 810 l 804 810 l 804 979 l 33 979 l 33 810 l 315 810 l 315 0 z "},"Υ":{"ha":924,"x_min":0,"x_max":0,"o":"m 564 0 l 564 366 l 905 979 l 686 979 l 466 561 l 461 561 l 242 979 l 19 979 l 359 366 l 359 0 z "},"Φ":{"ha":1212,"x_min":0,"x_max":0,"o":"m 969 484 b 700 193 969 313 869 205 l 700 776 b 969 484 869 763 969 656 z m 243 484 b 512 776 243 656 342 763 l 512 193 b 243 484 342 205 243 313 z m 700 -72 l 700 31 b 1170 484 981 44 1170 224 b 700 938 1170 745 981 925 l 700 1041 l 512 1041 l 512 938 b 42 484 232 925 42 745 b 512 31 42 224 232 44 l 512 -72 z "},"Χ":{"ha":952,"x_min":0,"x_max":0,"o":"m 29 0 l 250 0 l 466 342 l 471 342 l 686 0 l 919 0 l 603 487 l 603 492 l 923 979 l 694 979 l 485 626 l 479 626 l 272 979 l 31 979 l 340 496 l 340 490 z "},"Ψ":{"ha":1142,"x_min":0,"x_max":0,"o":"m 669 0 l 669 210 b 1074 612 920 214 1074 370 l 1074 979 l 880 979 l 880 611 b 669 376 880 467 808 386 l 669 979 l 474 979 l 474 376 b 262 611 334 386 262 467 l 262 979 l 68 979 l 68 612 b 474 210 68 370 222 214 l 474 0 z "},"Ω":{"ha":1062,"x_min":0,"x_max":0,"o":"m 799 534 b 614 203 799 380 736 279 l 614 0 l 1005 0 l 1005 162 l 807 162 l 807 168 b 1005 549 927 241 1005 379 b 531 996 1005 814 813 996 b 58 549 250 996 58 814 b 256 168 58 379 135 241 l 256 162 l 58 162 l 58 0 l 449 0 l 449 203 b 263 534 327 279 263 380 b 531 825 263 715 369 825 b 799 534 693 825 799 715 z "},"Ά":{"ha":1018,"x_min":0,"x_max":0,"o":"m 782 0 l 1000 0 l 659 979 l 418 979 l 79 0 l 289 0 l 363 237 l 707 237 z m 533 791 l 538 791 l 663 391 l 408 391 z m 53 763 l 210 763 l 313 979 l 106 979 z "},"Έ":{"ha":1086,"x_min":0,"x_max":0,"o":"m 20 763 l 177 763 l 280 979 l 74 979 z m 1020 170 l 576 170 l 576 416 l 995 416 l 995 574 l 576 574 l 576 810 l 1020 810 l 1020 979 l 372 979 l 372 0 l 1020 0 z "},"Ή":{"ha":1303,"x_min":0,"x_max":0,"o":"m 20 747 l 177 747 l 280 962 l 74 962 z m 1222 0 l 1222 979 l 1017 979 l 1017 581 l 576 581 l 576 979 l 372 979 l 372 0 l 576 0 l 576 412 l 1017 412 l 1017 0 z "},"Ί":{"ha":658,"x_min":0,"x_max":0,"o":"m 20 747 l 177 747 l 280 962 l 74 962 z m 576 0 l 576 979 l 372 979 l 372 0 z "},"Ϊ":{"ha":368,"x_min":0,"x_max":0,"o":"m 286 0 l 286 979 l 81 979 l 81 0 z m 45 1065 b 136 1154 97 1065 136 1105 b 45 1242 136 1202 97 1242 b -45 1154 -6 1242 -45 1202 b 45 1065 -45 1105 -6 1065 z m 322 1065 b 413 1154 374 1065 413 1105 b 322 1242 413 1202 374 1242 b 231 1154 271 1242 231 1202 b 322 1065 231 1105 271 1065 z "},"Ό":{"ha":1217,"x_min":0,"x_max":0,"o":"m 12 747 l 169 747 l 272 962 l 66 962 z m 694 996 b 222 489 404 996 222 801 b 694 -17 222 178 404 -17 b 1166 489 984 -17 1166 178 b 694 996 1166 801 984 996 z m 694 825 b 957 489 854 825 957 694 b 694 155 957 284 854 155 b 431 489 534 155 431 284 b 694 825 431 694 534 825 z "},"Ύ":{"ha":1227,"x_min":0,"x_max":0,"o":"m 14 747 l 170 747 l 273 962 l 67 962 z m 868 0 l 868 366 l 1209 979 l 989 979 l 770 561 l 765 561 l 546 979 l 323 979 l 663 366 l 663 0 z "},"Ϋ":{"ha":924,"x_min":0,"x_max":0,"o":"m 564 0 l 564 366 l 905 979 l 686 979 l 466 561 l 461 561 l 242 979 l 19 979 l 359 366 l 359 0 z m 323 1065 b 414 1154 375 1065 414 1105 b 323 1242 414 1202 375 1242 b 233 1154 272 1242 233 1202 b 323 1065 233 1105 272 1065 z m 600 1065 b 691 1154 652 1065 691 1105 b 600 1242 691 1202 652 1242 b 509 1154 549 1242 509 1202 b 600 1065 509 1105 549 1065 z "},"Ώ":{"ha":1240,"x_min":0,"x_max":0,"o":"m 22 747 l 179 747 l 282 962 l 76 962 z m 977 534 b 791 203 977 380 913 279 l 791 0 l 1183 0 l 1183 162 l 985 162 l 985 168 b 1183 549 1105 241 1183 379 b 709 996 1183 814 991 996 b 235 549 427 996 235 814 b 433 168 235 379 313 241 l 433 162 l 235 162 l 235 0 l 627 0 l 627 203 b 441 534 505 279 441 380 b 709 825 441 715 547 825 b 977 534 871 825 977 715 z "},"А":{"ha":972,"x_min":0,"x_max":0,"o":"m 729 0 l 947 0 l 606 979 l 366 979 l 26 0 l 236 0 l 311 237 l 654 237 z m 480 791 l 485 791 l 610 391 l 355 391 z "},"Ӑ":{"ha":972,"x_min":0,"x_max":0,"o":"m 729 0 l 947 0 l 606 979 l 366 979 l 26 0 l 236 0 l 311 237 l 654 237 z m 480 791 l 485 791 l 610 391 l 355 391 z m 243 1263 b 478 1053 243 1136 339 1053 b 713 1263 617 1053 713 1136 l 594 1263 b 478 1149 593 1195 546 1149 b 362 1263 410 1149 363 1195 z "},"Ӓ":{"ha":972,"x_min":0,"x_max":0,"o":"m 729 0 l 947 0 l 606 979 l 366 979 l 26 0 l 236 0 l 311 237 l 654 237 z m 480 791 l 485 791 l 610 391 l 355 391 z m 348 1065 b 439 1154 399 1065 439 1105 b 348 1242 439 1202 399 1242 b 257 1154 296 1242 257 1202 b 348 1065 257 1105 296 1065 z m 625 1065 b 715 1154 676 1065 715 1105 b 625 1242 715 1202 676 1242 b 534 1154 573 1242 534 1202 b 625 1065 534 1105 573 1065 z "},"Б":{"ha":886,"x_min":0,"x_max":0,"o":"m 829 309 b 483 611 829 490 687 611 l 293 611 l 293 810 l 739 810 l 739 979 l 88 979 l 88 0 l 490 0 b 829 309 690 0 829 123 z m 293 163 l 293 455 l 438 455 b 619 309 553 455 619 404 b 439 163 619 214 553 163 z "},"В":{"ha":902,"x_min":0,"x_max":0,"o":"m 522 0 b 860 280 730 0 860 108 b 629 517 860 410 762 507 l 629 522 b 813 734 733 538 813 627 b 514 979 813 884 698 979 l 88 979 l 88 0 z m 293 826 l 461 826 b 612 703 557 826 612 781 b 440 572 612 620 549 572 l 293 572 z m 293 153 l 293 437 l 465 437 b 651 296 585 437 651 388 b 469 153 651 203 587 153 z "},"Г":{"ha":762,"x_min":0,"x_max":0,"o":"m 294 0 l 294 809 l 719 809 l 719 979 l 88 979 l 88 0 z "},"Ѓ":{"ha":762,"x_min":0,"x_max":0,"o":"m 294 0 l 294 809 l 719 809 l 719 979 l 88 979 l 88 0 z m 497 1046 l 678 1253 l 494 1253 l 341 1046 z "},"Ґ":{"ha":762,"x_min":0,"x_max":0,"o":"m 294 809 l 719 809 l 719 1172 l 527 1172 l 527 979 l 88 979 l 88 0 l 294 0 z "},"Ӷ":{"ha":762,"x_min":0,"x_max":0,"o":"m 719 809 l 719 979 l 88 979 l 88 0 l 103 0 l 245 0 l 245 -193 l 431 -193 l 431 169 l 294 169 l 294 809 z "},"Ғ":{"ha":776,"x_min":0,"x_max":0,"o":"m 734 809 l 734 979 l 103 979 l 103 548 l 37 548 l 37 406 l 103 406 l 103 0 l 309 0 l 309 406 l 612 406 l 612 548 l 309 548 l 309 809 z "},"Ӻ":{"ha":776,"x_min":0,"x_max":0,"o":"m 734 809 l 734 979 l 103 979 l 103 548 l 40 548 l 40 406 l 103 406 l 103 240 l 103 0 l 103 -11 b 7 -98 103 -73 77 -98 b -18 -97 2 -98 -14 -98 l -18 -245 b 35 -248 -9 -246 22 -248 b 308 -16 212 -248 308 -170 l 308 0 l 309 0 l 309 406 l 660 406 l 660 548 l 309 548 l 309 809 z "},"Д":{"ha":1059,"x_min":0,"x_max":0,"o":"m 370 410 l 396 810 l 705 810 l 705 170 l 305 170 l 305 175 b 370 410 349 226 363 301 z m 203 0 l 846 0 l 846 -193 l 1031 -193 l 1031 170 l 909 170 l 909 979 l 216 979 l 182 426 b 85 170 174 293 154 216 l 17 170 l 17 -193 l 203 -193 z "},"Е":{"ha":810,"x_min":0,"x_max":0,"o":"m 736 170 l 293 170 l 293 416 l 711 416 l 711 574 l 293 574 l 293 810 l 736 810 l 736 979 l 88 979 l 88 0 l 736 0 z "},"Ё":{"ha":810,"x_min":0,"x_max":0,"o":"m 736 170 l 293 170 l 293 416 l 711 416 l 711 574 l 293 574 l 293 810 l 736 810 l 736 979 l 88 979 l 88 0 l 736 0 z m 274 1065 b 365 1154 326 1065 365 1105 b 274 1242 365 1202 326 1242 b 183 1154 222 1242 183 1202 b 274 1065 183 1105 222 1065 z m 551 1065 b 642 1154 602 1065 642 1105 b 551 1242 642 1202 602 1242 b 460 1154 499 1242 460 1202 b 551 1065 460 1105 499 1065 z "},"Ӗ":{"ha":810,"x_min":0,"x_max":0,"o":"m 736 170 l 293 170 l 293 416 l 711 416 l 711 574 l 293 574 l 293 810 l 736 810 l 736 979 l 88 979 l 88 0 l 736 0 z m 176 1263 b 411 1053 176 1136 272 1053 b 646 1263 550 1053 646 1136 l 527 1263 b 411 1149 526 1195 479 1149 b 295 1263 343 1149 296 1195 z "},"Ѐ":{"ha":810,"x_min":0,"x_max":0,"o":"m 736 170 l 293 170 l 293 416 l 711 416 l 711 574 l 293 574 l 293 810 l 736 810 l 736 979 l 88 979 l 88 0 l 736 0 z m 332 1060 l 488 1060 l 335 1267 l 151 1267 z "},"Ж":{"ha":1400,"x_min":0,"x_max":0,"o":"m 984 515 l 1358 979 l 1131 979 l 804 564 l 798 564 l 798 979 l 599 979 l 599 564 l 593 564 l 267 979 l 35 979 l 412 511 l 12 0 l 258 0 l 593 430 l 599 430 l 599 0 l 798 0 l 798 430 l 804 430 l 1137 0 l 1388 0 z "},"Ӂ":{"ha":1400,"x_min":0,"x_max":0,"o":"m 820 1261 b 700 1145 814 1191 770 1145 b 580 1261 630 1145 585 1191 l 457 1261 b 700 1044 463 1144 549 1044 b 943 1261 850 1044 937 1144 z m 984 515 l 1358 979 l 1131 979 l 804 564 l 798 564 l 798 979 l 599 979 l 599 564 l 593 564 l 267 979 l 35 979 l 412 511 l 12 0 l 258 0 l 593 430 l 599 430 l 599 0 l 798 0 l 798 430 l 804 430 l 1137 0 l 1388 0 z "},"Ӝ":{"ha":1400,"x_min":0,"x_max":0,"o":"m 838 1065 b 929 1154 890 1065 929 1105 b 838 1242 929 1202 890 1242 b 747 1154 787 1242 747 1202 b 838 1065 747 1105 787 1065 z m 562 1065 b 652 1154 613 1065 652 1105 b 562 1242 652 1202 613 1242 b 471 1154 510 1242 471 1202 b 562 1065 471 1105 510 1065 z m 984 515 l 1358 979 l 1131 979 l 804 564 l 798 564 l 798 979 l 599 979 l 599 564 l 593 564 l 267 979 l 35 979 l 412 511 l 12 0 l 258 0 l 593 430 l 599 430 l 599 0 l 798 0 l 798 430 l 804 430 l 1137 0 l 1388 0 z "},"Җ":{"ha":1404,"x_min":0,"x_max":0,"o":"m 1255 169 l 984 515 l 1358 979 l 1131 979 l 804 564 l 798 564 l 798 979 l 599 979 l 599 564 l 593 564 l 267 979 l 35 979 l 412 511 l 12 0 l 258 0 l 593 430 l 599 430 l 599 0 l 798 0 l 798 430 l 804 430 l 1137 0 l 1143 0 l 1210 0 l 1210 -193 l 1396 -193 l 1396 169 z "},"З":{"ha":872,"x_min":0,"x_max":0,"o":"m 302 420 l 433 420 b 612 284 545 420 612 370 b 437 140 612 199 542 140 b 245 278 326 140 252 194 l 50 278 b 435 -25 58 95 211 -25 b 823 271 660 -25 823 99 b 607 509 823 401 739 494 l 607 515 b 791 739 717 538 791 628 b 439 1004 791 896 649 1004 b 71 704 220 1004 78 888 l 260 704 b 434 844 266 790 332 844 b 596 715 534 844 596 795 b 431 580 596 634 529 580 l 302 580 z "},"Ӟ":{"ha":872,"x_min":0,"x_max":0,"o":"m 302 420 l 433 420 b 612 284 545 420 612 370 b 437 140 612 199 542 140 b 245 278 326 140 252 194 l 50 278 b 435 -25 58 95 211 -25 b 823 271 660 -25 823 99 b 607 509 823 401 739 494 l 607 515 b 791 739 717 538 791 628 b 439 1004 791 896 649 1004 b 71 704 220 1004 78 888 l 260 704 b 434 844 266 790 332 844 b 596 715 534 844 596 795 b 431 580 596 634 529 580 l 302 580 z m 298 1065 b 389 1154 350 1065 389 1105 b 298 1242 389 1202 350 1242 b 208 1154 247 1242 208 1202 b 298 1065 208 1105 247 1065 z m 575 1065 b 666 1154 627 1065 666 1105 b 575 1242 666 1202 627 1242 b 484 1154 524 1242 484 1202 b 575 1065 484 1105 524 1065 z "},"Ҙ":{"ha":872,"x_min":0,"x_max":0,"o":"m 607 515 b 791 739 717 538 791 628 b 439 1004 791 896 649 1004 b 71 704 220 1004 78 888 l 260 704 b 434 844 266 790 332 844 b 596 715 534 844 596 795 b 431 580 596 634 529 580 l 302 580 l 302 420 l 433 420 b 612 284 545 420 612 370 b 437 140 612 199 542 140 b 245 278 326 140 252 194 l 50 278 b 353 -20 57 118 174 7 l 353 -193 l 538 -193 l 538 -16 b 823 271 708 16 823 127 b 607 509 823 401 739 494 z "},"И":{"ha":1030,"x_min":0,"x_max":0,"o":"m 738 0 l 942 0 l 942 979 l 745 979 l 300 316 l 292 316 l 292 979 l 88 979 l 88 0 l 286 0 l 730 662 l 738 662 z "},"Й":{"ha":1030,"x_min":0,"x_max":0,"o":"m 738 0 l 942 0 l 942 979 l 745 979 l 300 316 l 292 316 l 292 979 l 88 979 l 88 0 l 286 0 l 730 662 l 738 662 z m 279 1246 b 515 1036 279 1119 376 1036 b 750 1246 654 1036 750 1119 l 631 1246 b 515 1133 629 1178 583 1133 b 399 1246 447 1133 400 1178 z "},"Ѝ":{"ha":1030,"x_min":0,"x_max":0,"o":"m 738 0 l 942 0 l 942 979 l 745 979 l 300 316 l 292 316 l 292 979 l 88 979 l 88 0 l 286 0 l 730 662 l 738 662 z m 451 1057 l 607 1057 l 454 1263 l 270 1263 z "},"Ӣ":{"ha":1030,"x_min":0,"x_max":0,"o":"m 738 0 l 942 0 l 942 979 l 745 979 l 300 316 l 292 316 l 292 979 l 88 979 l 88 0 l 286 0 l 730 662 l 738 662 z m 748 1199 l 279 1199 l 279 1099 l 748 1099 z "},"Ӥ":{"ha":1030,"x_min":0,"x_max":0,"o":"m 738 0 l 942 0 l 942 979 l 745 979 l 300 316 l 292 316 l 292 979 l 88 979 l 88 0 l 286 0 l 730 662 l 738 662 z m 371 1065 b 462 1154 422 1065 462 1105 b 371 1242 462 1202 422 1242 b 280 1154 319 1242 280 1202 b 371 1065 280 1105 319 1065 z m 648 1065 b 739 1154 699 1065 739 1105 b 648 1242 739 1202 699 1242 b 557 1154 596 1242 557 1202 b 648 1065 557 1105 596 1065 z "},"Ҋ":{"ha":1074,"x_min":0,"x_max":0,"o":"m 631 1246 b 515 1133 629 1178 583 1133 b 399 1246 447 1133 400 1178 l 279 1246 b 515 1036 279 1119 376 1036 b 750 1246 654 1036 750 1119 z m 942 169 l 942 979 l 745 979 l 300 316 l 292 316 l 292 979 l 88 979 l 88 0 l 286 0 l 730 662 l 738 662 l 738 169 l 738 0 l 855 0 l 801 -193 l 982 -193 l 1063 127 l 1063 169 z "},"К":{"ha":936,"x_min":0,"x_max":0,"o":"m 486 515 l 891 979 l 660 979 l 298 564 l 293 564 l 293 979 l 88 979 l 88 0 l 293 0 l 293 430 l 298 430 l 667 0 l 923 0 z "},"Ќ":{"ha":936,"x_min":0,"x_max":0,"o":"m 729 1253 l 545 1253 l 392 1046 l 548 1046 z m 486 515 l 891 979 l 660 979 l 298 564 l 293 564 l 293 979 l 88 979 l 88 0 l 293 0 l 293 430 l 298 430 l 667 0 l 923 0 z "},"Қ":{"ha":937,"x_min":0,"x_max":0,"o":"m 780 169 l 486 515 l 891 979 l 660 979 l 298 564 l 293 564 l 293 979 l 88 979 l 88 0 l 293 0 l 293 430 l 298 430 l 667 0 l 672 0 l 743 0 l 743 -193 l 929 -193 l 929 169 z "},"Ҝ":{"ha":1013,"x_min":0,"x_max":0,"o":"m 686 501 l 970 979 l 758 979 l 507 559 l 492 559 l 492 760 l 366 760 l 366 559 l 293 559 l 293 979 l 88 979 l 88 0 l 293 0 l 293 409 l 366 409 l 366 208 l 492 208 l 492 409 l 508 409 l 766 0 l 1000 0 z "},"Ҟ":{"ha":984,"x_min":0,"x_max":0,"o":"m 524 513 l 942 979 l 711 979 l 348 574 l 331 574 l 331 748 l 462 748 l 462 891 l 331 891 l 331 979 l 126 979 l 126 891 l 20 891 l 20 748 l 126 748 l 126 0 l 331 0 l 331 418 l 348 418 l 718 0 l 971 0 z "},"Ҡ":{"ha":1290,"x_min":0,"x_max":0,"o":"m 840 515 l 1246 979 l 1015 979 l 653 564 l 648 564 l 648 810 l 648 979 l 443 979 l 39 979 l 39 810 l 443 810 l 443 0 l 648 0 l 648 430 l 653 430 l 1022 0 l 1278 0 z "},"Ӄ":{"ha":952,"x_min":0,"x_max":0,"o":"m 917 979 l 689 979 l 323 562 l 315 562 l 315 979 l 111 979 l 111 0 l 315 0 l 315 393 l 334 393 b 665 125 535 393 665 285 b 450 -119 665 -12 583 -119 b 393 -115 427 -119 409 -117 l 393 -277 b 476 -285 412 -281 444 -285 b 872 131 711 -285 872 -109 b 526 536 872 323 742 482 z "},"Л":{"ha":996,"x_min":0,"x_max":0,"o":"m 908 0 l 908 979 l 235 979 l 205 400 b 76 174 198 253 167 174 b 31 180 58 174 40 178 l 31 1 b 104 -9 44 -4 71 -9 b 394 387 300 -9 380 134 l 418 810 l 703 810 l 703 0 z "},"Ӆ":{"ha":1039,"x_min":0,"x_max":0,"o":"m 908 169 l 908 979 l 235 979 l 205 400 b 76 174 198 253 167 174 b 31 180 58 174 40 178 l 31 1 b 104 -9 44 -4 71 -9 b 394 387 300 -9 380 134 l 418 810 l 703 810 l 703 169 l 703 0 l 820 0 l 766 -193 l 947 -193 l 1029 127 l 1029 169 z "},"Ԯ":{"ha":1057,"x_min":0,"x_max":0,"o":"m 908 169 l 908 979 l 235 979 l 205 400 b 76 174 198 253 167 174 b 31 180 58 174 40 178 l 31 1 b 104 -9 44 -4 71 -9 b 394 387 300 -9 380 134 l 418 810 l 703 810 l 703 169 l 703 0 l 844 0 l 844 -193 l 1030 -193 l 1030 169 z "},"Ԓ":{"ha":996,"x_min":0,"x_max":0,"o":"m 235 979 l 205 400 b 76 174 198 253 167 174 b 31 180 58 174 40 178 l 31 1 b 104 -9 44 -4 71 -9 b 394 387 300 -9 380 134 l 418 810 l 703 810 l 703 245 l 703 0 l 703 -11 b 608 -98 703 -73 677 -98 b 583 -97 602 -98 587 -98 l 583 -245 b 635 -248 591 -246 622 -248 b 908 -16 814 -248 908 -170 l 908 0 l 908 245 l 908 979 z "},"М":{"ha":1213,"x_min":0,"x_max":0,"o":"m 1124 0 l 1124 979 l 887 979 l 609 285 l 604 285 l 326 979 l 88 979 l 88 0 l 271 0 l 271 661 l 276 661 l 542 9 l 671 9 l 937 661 l 942 661 l 942 0 z "},"Ӎ":{"ha":1278,"x_min":0,"x_max":0,"o":"m 1124 169 l 1124 979 l 887 979 l 609 285 l 604 285 l 326 979 l 88 979 l 88 0 l 271 0 l 271 661 l 276 661 l 542 9 l 671 9 l 937 661 l 942 661 l 942 169 l 942 0 l 1059 0 l 1005 -193 l 1185 -193 l 1267 127 l 1267 169 z "},"Н":{"ha":1027,"x_min":0,"x_max":0,"o":"m 939 0 l 939 979 l 734 979 l 734 581 l 293 581 l 293 979 l 88 979 l 88 0 l 293 0 l 293 412 l 734 412 l 734 0 z "},"Ӈ":{"ha":1027,"x_min":0,"x_max":0,"o":"m 734 979 l 734 581 l 293 581 l 293 979 l 88 979 l 88 0 l 293 0 l 293 412 l 734 412 l 734 240 l 734 0 l 734 -11 b 639 -98 734 -73 708 -98 b 614 -97 633 -98 618 -98 l 614 -245 b 667 -248 622 -246 652 -248 b 939 -16 846 -248 939 -170 l 939 0 l 939 240 l 939 979 z "},"Ң":{"ha":1088,"x_min":0,"x_max":0,"o":"m 939 169 l 939 979 l 734 979 l 734 581 l 293 581 l 293 979 l 88 979 l 88 0 l 293 0 l 293 412 l 734 412 l 734 169 l 734 0 l 876 0 l 876 -193 l 1061 -193 l 1061 169 z "},"Ӊ":{"ha":1069,"x_min":0,"x_max":0,"o":"m 939 169 l 939 979 l 734 979 l 734 581 l 293 581 l 293 979 l 88 979 l 88 0 l 293 0 l 293 412 l 734 412 l 734 169 l 734 0 l 851 0 l 797 -193 l 978 -193 l 1059 127 l 1059 169 z "},"Ҥ":{"ha":1407,"x_min":0,"x_max":0,"o":"m 1364 979 l 939 979 l 734 979 l 734 810 l 734 581 l 293 581 l 293 979 l 88 979 l 88 0 l 293 0 l 293 412 l 734 412 l 734 0 l 939 0 l 939 810 l 1364 810 z "},"О":{"ha":1059,"x_min":0,"x_max":0,"o":"m 530 996 b 58 489 239 996 58 801 b 530 -17 58 178 239 -17 b 1002 489 819 -17 1002 178 b 530 996 1002 801 819 996 z m 530 825 b 792 489 690 825 792 694 b 530 155 792 284 690 155 b 267 489 369 155 267 284 b 530 825 267 694 370 825 z "},"Ӧ":{"ha":1059,"x_min":0,"x_max":0,"o":"m 530 996 b 58 489 239 996 58 801 b 530 -17 58 178 239 -17 b 1002 489 819 -17 1002 178 b 530 996 1002 801 819 996 z m 530 825 b 792 489 690 825 792 694 b 530 155 792 284 690 155 b 267 489 369 155 267 284 b 530 825 267 694 370 825 z m 391 1065 b 482 1154 443 1065 482 1105 b 391 1242 482 1202 443 1242 b 300 1154 340 1242 300 1202 b 391 1065 300 1105 340 1065 z m 668 1065 b 759 1154 720 1065 759 1105 b 668 1242 759 1202 720 1242 b 577 1154 616 1242 577 1202 b 668 1065 577 1105 616 1065 z "},"Ө":{"ha":1056,"x_min":0,"x_max":0,"o":"m 787 419 b 529 147 766 252 670 147 b 269 419 386 147 290 252 z m 271 575 b 529 832 296 734 392 832 b 785 575 666 832 761 734 z m 529 1004 b 58 490 241 1004 58 807 b 529 -25 58 173 238 -25 b 999 490 818 -25 999 173 b 529 1004 999 806 817 1004 z "},"Ӫ":{"ha":1056,"x_min":0,"x_max":0,"o":"m 668 1065 b 759 1154 720 1065 759 1105 b 668 1242 759 1202 720 1242 b 577 1154 616 1242 577 1202 b 668 1065 577 1105 616 1065 z m 391 1065 b 482 1154 443 1065 482 1105 b 391 1242 482 1202 443 1242 b 300 1154 340 1242 300 1202 b 391 1065 300 1105 340 1065 z m 787 419 b 529 147 766 252 670 147 b 269 419 386 147 290 252 z m 271 575 b 529 832 296 734 392 832 b 785 575 666 832 761 734 z m 529 1004 b 58 490 241 1004 58 807 b 529 -25 58 173 238 -25 b 999 490 818 -25 999 173 b 529 1004 999 806 817 1004 z "},"Ѳ":{"ha":1056,"x_min":0,"x_max":0,"o":"m 529 147 b 271 408 389 147 294 247 b 380 447 290 429 324 447 b 665 385 477 447 543 386 b 788 428 712 385 755 399 b 529 147 770 255 673 147 z m 529 832 b 785 578 665 832 760 736 b 673 536 766 555 730 536 b 386 598 572 536 507 598 b 269 559 340 598 300 584 b 529 832 290 728 387 832 z m 529 1004 b 58 490 241 1004 58 807 b 529 -25 58 173 238 -25 b 999 490 818 -25 999 173 b 529 1004 999 806 817 1004 z "},"П":{"ha":1017,"x_min":0,"x_max":0,"o":"m 928 0 l 928 979 l 88 979 l 88 0 l 294 0 l 294 809 l 724 809 l 724 0 z "},"Ԥ":{"ha":1078,"x_min":0,"x_max":0,"o":"m 928 169 l 928 979 l 88 979 l 88 0 l 294 0 l 294 809 l 724 809 l 724 169 l 724 0 l 865 0 l 865 -193 l 1050 -193 l 1050 169 z "},"Џ":{"ha":1017,"x_min":0,"x_max":0,"o":"m 412 0 l 412 -193 l 604 -193 l 604 0 l 928 0 l 928 979 l 724 979 l 724 169 l 293 169 l 293 979 l 88 979 l 88 0 z "},"Р":{"ha":878,"x_min":0,"x_max":0,"o":"m 88 979 l 88 0 l 293 0 l 293 309 l 476 309 b 825 644 682 309 825 443 b 486 979 825 845 687 979 z m 293 817 l 432 817 b 617 643 549 817 617 754 b 431 469 617 531 549 469 l 293 469 z "},"Ҏ":{"ha":875,"x_min":0,"x_max":0,"o":"m 290 467 l 290 816 l 429 816 b 616 642 547 816 616 755 b 570 515 616 587 600 544 l 482 649 l 384 585 l 458 468 b 428 467 448 467 438 467 z m 85 979 l 85 0 l 290 0 l 290 309 l 448 309 b 538 317 480 309 510 312 l 642 155 l 768 241 l 681 373 b 822 642 770 432 822 527 b 483 979 822 844 684 979 z "},"С":{"ha":1002,"x_min":0,"x_max":0,"o":"m 521 -22 b 950 320 753 -22 918 111 l 749 320 b 522 153 720 216 636 153 b 267 490 365 153 267 281 b 521 826 267 696 366 826 b 748 648 633 826 722 756 l 949 648 b 521 1000 924 857 749 1000 b 58 490 237 1000 58 805 b 521 -22 58 174 236 -22 z "},"Ҫ":{"ha":1003,"x_min":0,"x_max":0,"o":"m 752 340 b 522 153 730 224 643 153 b 267 490 365 153 267 281 b 521 826 267 696 366 826 b 751 627 640 826 732 747 l 951 627 b 521 996 935 846 756 996 b 58 490 237 996 58 805 b 465 -14 58 195 213 9 l 432 -87 l 432 -154 l 475 -154 b 558 -191 534 -154 558 -163 b 483 -228 558 -216 534 -228 b 407 -220 456 -228 423 -224 l 407 -302 b 503 -312 425 -309 465 -313 b 671 -186 606 -311 671 -268 b 544 -75 671 -117 621 -75 l 572 -15 b 951 340 785 3 930 137 z "},"Т":{"ha":849,"x_min":0,"x_max":0,"o":"m 527 0 l 527 810 l 810 810 l 810 979 l 39 979 l 39 810 l 322 810 l 322 0 z "},"Ҭ":{"ha":849,"x_min":0,"x_max":0,"o":"m 810 810 l 810 979 l 39 979 l 39 810 l 322 810 l 322 0 l 326 0 l 467 0 l 467 -193 l 652 -193 l 652 169 l 527 169 l 527 810 z "},"У":{"ha":906,"x_min":0,"x_max":0,"o":"m 237 -9 b 584 280 412 -9 498 81 l 884 979 l 668 979 l 465 435 l 456 435 l 243 979 l 26 979 l 351 233 b 212 162 316 180 272 162 b 153 168 178 162 159 166 l 153 1 b 237 -9 158 -2 195 -9 z "},"Ў":{"ha":906,"x_min":0,"x_max":0,"o":"m 237 -9 b 584 280 412 -9 498 81 l 884 979 l 668 979 l 465 435 l 456 435 l 243 979 l 26 979 l 351 233 b 212 162 316 180 272 162 b 153 168 178 162 159 166 l 153 1 b 237 -9 158 -2 195 -9 z m 225 1246 b 460 1036 225 1119 321 1036 b 696 1246 600 1036 696 1119 l 576 1246 b 460 1133 575 1178 528 1133 b 345 1246 393 1133 346 1178 z "},"Ӯ":{"ha":906,"x_min":0,"x_max":0,"o":"m 237 -9 b 584 280 412 -9 498 81 l 884 979 l 668 979 l 465 435 l 456 435 l 243 979 l 26 979 l 351 233 b 212 162 316 180 272 162 b 153 168 178 162 159 166 l 153 1 b 237 -9 158 -2 195 -9 z m 695 1200 l 226 1200 l 226 1099 l 695 1099 z "},"Ӱ":{"ha":906,"x_min":0,"x_max":0,"o":"m 237 -9 b 584 280 412 -9 498 81 l 884 979 l 668 979 l 465 435 l 456 435 l 243 979 l 26 979 l 351 233 b 212 162 316 180 272 162 b 153 168 178 162 159 166 l 153 1 b 237 -9 158 -2 195 -9 z m 322 1065 b 413 1154 374 1065 413 1105 b 322 1242 413 1202 374 1242 b 231 1154 271 1242 231 1202 b 322 1065 231 1105 271 1065 z m 599 1065 b 690 1154 650 1065 690 1105 b 599 1242 690 1202 650 1242 b 508 1154 547 1242 508 1202 b 599 1065 508 1105 547 1065 z "},"Ӳ":{"ha":906,"x_min":0,"x_max":0,"o":"m 237 -9 b 584 280 412 -9 498 81 l 884 979 l 668 979 l 465 435 l 456 435 l 243 979 l 26 979 l 351 233 b 212 162 316 180 272 162 b 153 168 178 162 159 166 l 153 1 b 237 -9 158 -2 195 -9 z m 677 1057 l 858 1263 l 674 1263 l 521 1057 z m 406 1057 l 587 1263 l 403 1263 l 250 1057 z "},"Ф":{"ha":1198,"x_min":0,"x_max":0,"o":"m 500 249 b 254 492 351 255 254 346 b 500 734 254 635 351 726 z m 944 491 b 697 249 944 347 847 256 l 697 734 b 944 491 847 727 944 636 z m 498 84 l 498 -20 l 700 -20 l 700 84 b 1150 491 971 93 1150 243 b 700 898 1150 739 972 890 l 700 999 l 498 999 l 498 898 b 47 492 227 889 47 739 b 498 84 47 243 227 92 z "},"Х":{"ha":966,"x_min":0,"x_max":0,"o":"m 36 0 l 257 0 l 473 342 l 478 342 l 692 0 l 926 0 l 610 487 l 610 492 l 930 979 l 701 979 l 492 626 l 486 626 l 279 979 l 38 979 l 347 496 l 347 490 z "},"Ҳ":{"ha":972,"x_min":0,"x_max":0,"o":"m 816 169 l 610 487 l 610 492 l 930 979 l 701 979 l 492 626 l 486 626 l 279 979 l 38 979 l 347 496 l 347 490 l 36 0 l 257 0 l 473 342 l 478 342 l 692 0 l 770 0 l 770 -193 l 956 -193 l 956 169 z "},"Ӿ":{"ha":966,"x_min":0,"x_max":0,"o":"m 857 429 l 857 557 l 652 557 l 930 979 l 701 979 l 492 626 l 486 626 l 279 979 l 38 979 l 307 557 l 108 557 l 108 429 l 307 429 l 36 0 l 257 0 l 473 342 l 478 342 l 692 0 l 926 0 l 648 429 z "},"Ӽ":{"ha":964,"x_min":0,"x_max":0,"o":"m 38 979 l 349 493 l 36 0 l 257 0 l 470 336 l 482 336 l 607 137 b 667 31 634 94 653 60 b 686 -44 681 2 686 -20 b 599 -117 686 -88 650 -117 b 552 -114 580 -117 566 -116 l 552 -270 b 637 -276 570 -273 600 -276 b 890 -47 788 -276 890 -184 b 852 99 890 0 880 43 b 770 239 831 141 806 185 l 608 490 l 930 979 l 701 979 l 495 632 l 483 632 l 279 979 z "},"Ц":{"ha":1078,"x_min":0,"x_max":0,"o":"m 1050 -193 l 1050 169 l 928 169 l 928 979 l 724 979 l 724 169 l 293 169 l 293 979 l 88 979 l 88 0 l 865 0 l 865 -193 z "},"Ҵ":{"ha":1318,"x_min":0,"x_max":0,"o":"m 1169 169 l 1169 979 l 964 979 l 964 169 l 527 169 l 527 810 l 808 810 l 808 979 l 527 979 l 322 979 l 39 979 l 39 810 l 322 810 l 322 0 l 1106 0 l 1106 -193 l 1291 -193 l 1291 169 z "},"Ч":{"ha":975,"x_min":0,"x_max":0,"o":"m 886 0 l 886 979 l 682 979 l 682 582 b 484 513 655 555 593 513 b 278 716 350 513 278 589 l 278 979 l 73 979 l 73 701 b 447 338 73 491 206 338 b 673 402 566 338 646 380 l 682 402 l 682 0 z "},"Ӵ":{"ha":975,"x_min":0,"x_max":0,"o":"m 886 0 l 886 979 l 682 979 l 682 582 b 484 513 655 555 593 513 b 278 716 350 513 278 589 l 278 979 l 73 979 l 73 701 b 447 338 73 491 206 338 b 673 402 566 338 646 380 l 682 402 l 682 0 z m 353 1065 b 444 1154 404 1065 444 1105 b 353 1242 444 1202 404 1242 b 262 1154 301 1242 262 1202 b 353 1065 262 1105 301 1065 z m 629 1065 b 720 1154 681 1065 720 1105 b 629 1242 720 1202 681 1242 b 538 1154 578 1242 538 1202 b 629 1065 538 1105 578 1065 z "},"Ҷ":{"ha":1036,"x_min":0,"x_max":0,"o":"m 886 169 l 886 979 l 682 979 l 682 582 b 484 513 655 555 593 513 b 278 716 350 513 278 589 l 278 979 l 73 979 l 73 701 b 447 338 73 491 206 338 b 673 402 566 338 646 380 l 682 402 l 682 169 l 682 0 l 823 0 l 823 -193 l 1008 -193 l 1008 169 z "},"Ӌ":{"ha":975,"x_min":0,"x_max":0,"o":"m 682 979 l 682 582 b 484 513 655 555 593 513 b 278 716 350 513 278 589 l 278 979 l 73 979 l 73 701 b 447 338 73 491 206 338 b 673 402 566 338 646 380 l 682 402 l 682 169 l 559 169 l 559 -193 l 745 -193 l 745 0 l 886 0 l 886 169 l 886 979 z "},"Ҹ":{"ha":988,"x_min":0,"x_max":0,"o":"m 695 979 l 695 589 b 560 521 666 558 619 532 l 560 717 l 425 717 l 425 519 b 278 716 326 538 278 609 l 278 979 l 73 979 l 73 701 b 425 338 73 496 205 348 l 425 189 l 560 189 l 560 350 b 686 405 609 361 652 379 l 695 405 l 695 0 l 900 0 l 900 979 z "},"Һ":{"ha":986,"x_min":0,"x_max":0,"o":"m 88 979 l 88 0 l 293 0 l 293 391 b 493 475 333 442 403 475 b 696 273 625 475 696 400 l 696 0 l 901 0 l 901 289 b 534 651 901 500 765 651 b 305 581 440 651 360 623 l 293 581 l 293 979 z "},"Ԧ":{"ha":1050,"x_min":0,"x_max":0,"o":"m 901 169 l 901 289 b 534 651 901 500 765 651 b 305 581 440 651 360 623 l 293 581 l 293 979 l 88 979 l 88 0 l 293 0 l 293 391 b 493 475 333 442 403 475 b 696 273 625 475 696 400 l 696 169 l 696 0 l 838 0 l 838 -193 l 1023 -193 l 1023 169 z "},"Ћ":{"ha":1185,"x_min":0,"x_max":0,"o":"m 724 441 b 896 250 834 441 896 370 l 896 0 l 1101 0 l 1101 262 b 766 615 1101 473 981 615 b 536 533 670 615 591 585 l 531 533 l 531 810 l 818 810 l 818 979 l 39 979 l 39 810 l 326 810 l 326 0 l 531 0 l 531 330 b 724 441 563 393 637 441 z "},"Ш":{"ha":1347,"x_min":0,"x_max":0,"o":"m 88 0 l 1259 0 l 1259 979 l 1054 979 l 1054 169 l 776 169 l 776 979 l 571 979 l 571 169 l 293 169 l 293 979 l 88 979 z "},"Щ":{"ha":1408,"x_min":0,"x_max":0,"o":"m 1381 -193 l 1381 169 l 1259 169 l 1259 979 l 1054 979 l 1054 169 l 776 169 l 776 979 l 571 979 l 571 169 l 293 169 l 293 979 l 88 979 l 88 0 l 1196 0 l 1196 -193 z "},"Ъ":{"ha":1056,"x_min":0,"x_max":0,"o":"m 671 0 b 1010 326 872 0 1010 130 b 661 650 1010 520 867 650 l 471 650 l 471 979 l 39 979 l 39 810 l 267 810 l 267 0 z m 471 163 l 471 489 l 616 489 b 801 326 732 489 801 431 b 617 163 801 220 733 163 z "},"Ы":{"ha":1232,"x_min":0,"x_max":0,"o":"m 88 0 l 493 0 b 832 326 694 0 832 130 b 483 650 832 519 689 650 l 293 650 l 293 979 l 88 979 z m 293 163 l 293 489 l 438 489 b 623 326 555 489 623 431 b 439 163 623 220 555 163 z m 1144 0 l 1144 979 l 939 979 l 939 0 z "},"Ӹ":{"ha":1232,"x_min":0,"x_max":0,"o":"m 88 0 l 493 0 b 832 326 694 0 832 130 b 483 650 832 519 689 650 l 293 650 l 293 979 l 88 979 z m 293 163 l 293 489 l 438 489 b 623 326 555 489 623 431 b 439 163 623 220 555 163 z m 1144 0 l 1144 979 l 939 979 l 939 0 z m 477 1065 b 568 1154 529 1065 568 1105 b 477 1242 568 1202 529 1242 b 387 1154 426 1242 387 1202 b 477 1065 387 1105 426 1065 z m 754 1065 b 845 1154 806 1065 845 1105 b 754 1242 845 1202 806 1242 b 663 1154 703 1242 663 1202 b 754 1065 663 1105 703 1065 z "},"Ҍ":{"ha":1025,"x_min":0,"x_max":0,"o":"m 441 163 l 441 475 l 589 475 b 770 319 703 475 770 420 b 590 163 770 218 704 163 z m 441 637 l 441 773 l 714 773 l 714 919 l 441 919 l 441 1032 l 236 1032 l 236 919 l 9 919 l 9 773 l 236 773 l 236 0 l 644 0 b 979 319 843 0 979 127 b 633 637 979 509 838 637 z "},"Ѣ":{"ha":1025,"x_min":0,"x_max":0,"o":"m 441 163 l 441 475 l 589 475 b 770 319 703 475 770 420 b 590 163 770 218 704 163 z m 441 637 l 441 773 l 714 773 l 714 919 l 441 919 l 441 1032 l 236 1032 l 236 919 l 9 919 l 9 773 l 236 773 l 236 0 l 644 0 b 979 319 843 0 979 127 b 633 637 979 509 838 637 z "},"Ь":{"ha":878,"x_min":0,"x_max":0,"o":"m 88 0 l 493 0 b 832 326 694 0 832 130 b 483 650 832 519 689 650 l 293 650 l 293 979 l 88 979 z m 293 163 l 293 489 l 438 489 b 623 326 555 489 623 431 b 439 163 623 220 555 163 z "},"Љ":{"ha":1493,"x_min":0,"x_max":0,"o":"m 394 387 l 418 810 l 703 810 l 703 0 l 1108 0 b 1447 326 1309 0 1447 130 b 1097 650 1447 520 1303 650 l 908 650 l 908 979 l 235 979 l 205 400 b 76 174 199 271 176 174 b 31 180 58 174 40 178 l 31 1 b 104 -9 43 -4 71 -9 b 394 387 307 -9 381 146 z m 908 163 l 908 489 l 1053 489 b 1238 326 1169 489 1238 431 b 1054 163 1238 220 1170 163 z "},"Њ":{"ha":1503,"x_min":0,"x_max":0,"o":"m 293 422 l 713 422 l 713 0 l 1118 0 b 1457 298 1320 0 1457 120 b 1108 588 1457 471 1316 588 l 918 588 l 918 979 l 713 979 l 713 588 l 293 588 l 293 979 l 88 979 l 88 0 l 293 0 z m 918 163 l 918 429 l 1074 429 b 1251 300 1186 429 1251 382 b 1074 163 1251 213 1187 163 z "},"Э":{"ha":1002,"x_min":0,"x_max":0,"o":"m 485 -22 b 944 490 768 -22 944 174 b 485 1000 944 805 767 1000 b 52 648 256 1000 78 857 l 254 648 b 485 826 279 756 371 826 b 730 576 616 826 715 731 l 346 576 l 346 417 l 732 417 b 484 153 720 253 621 153 b 253 320 368 153 281 216 l 52 320 b 485 -22 83 111 251 -22 z "},"Ӭ":{"ha":1002,"x_min":0,"x_max":0,"o":"m 485 -22 b 944 490 768 -22 944 174 b 485 1000 944 805 767 1000 b 52 648 256 1000 78 857 l 254 648 b 485 826 279 756 371 826 b 730 576 616 826 715 731 l 346 576 l 346 417 l 732 417 b 484 153 720 253 621 153 b 253 320 368 153 281 216 l 52 320 b 485 -22 83 111 251 -22 z m 348 1065 b 439 1154 399 1065 439 1105 b 348 1242 439 1202 399 1242 b 257 1154 296 1242 257 1202 b 348 1065 257 1105 296 1065 z m 625 1065 b 715 1154 676 1065 715 1105 b 625 1242 715 1202 676 1242 b 534 1154 573 1242 534 1202 b 625 1065 534 1105 573 1065 z "},"Ю":{"ha":1417,"x_min":0,"x_max":0,"o":"m 896 -25 b 1359 490 1181 -25 1359 173 b 896 1004 1359 806 1181 1004 b 437 581 641 1004 469 844 l 293 581 l 293 979 l 88 979 l 88 0 l 293 0 l 293 412 l 436 412 b 896 -25 463 141 634 -25 z m 895 830 b 1150 490 1050 830 1150 698 b 895 149 1150 282 1050 149 b 640 490 739 149 640 282 b 895 830 640 698 741 830 z "},"Я":{"ha":928,"x_min":0,"x_max":0,"o":"m 637 506 l 468 506 b 293 662 358 506 293 564 b 468 818 293 759 359 818 l 637 818 z m 496 353 l 637 353 l 637 0 l 840 0 l 840 979 l 439 979 b 83 663 221 979 83 851 b 295 382 83 525 169 421 l 37 0 l 264 0 z "},"Ҕ":{"ha":938,"x_min":0,"x_max":0,"o":"m 702 979 l 88 979 l 88 0 l 293 0 l 293 330 b 494 441 325 395 405 441 b 668 279 601 441 668 378 b 509 119 668 178 607 119 b 429 127 467 119 437 124 l 429 -34 b 528 -45 437 -37 475 -45 b 873 291 743 -45 873 90 b 534 615 873 477 751 615 b 304 532 440 615 359 584 l 293 532 l 293 810 l 702 810 z "},"Ҧ":{"ha":1535,"x_min":0,"x_max":0,"o":"m 88 979 l 88 0 l 294 0 l 294 809 l 687 809 l 687 0 l 891 0 l 891 330 b 1092 441 924 396 1004 441 b 1265 279 1199 441 1265 378 b 1107 119 1265 178 1206 119 b 1027 127 1076 119 1042 122 l 1027 -34 b 1126 -45 1046 -41 1088 -45 b 1471 291 1337 -45 1471 85 b 1133 615 1471 488 1338 615 b 903 532 1041 615 959 585 l 891 532 l 891 979 z "},"Є":{"ha":1002,"x_min":0,"x_max":0,"o":"m 950 320 l 749 320 b 522 153 720 216 636 153 b 270 417 384 153 283 253 l 656 417 l 656 576 l 272 576 b 521 826 288 731 388 826 b 748 648 633 826 722 756 l 949 648 b 521 1000 924 857 749 1000 b 58 490 237 1000 58 805 b 521 -22 58 174 236 -22 b 950 320 753 -22 918 111 z "},"Ӏ":{"ha":381,"x_min":0,"x_max":0,"o":"m 293 0 l 293 979 l 88 979 l 88 0 z "},"І":{"ha":381,"x_min":0,"x_max":0,"o":"m 293 0 l 293 979 l 88 979 l 88 0 z "},"Ї":{"ha":381,"x_min":0,"x_max":0,"o":"m 293 0 l 293 979 l 88 979 l 88 0 z m 52 1065 b 143 1154 104 1065 143 1105 b 52 1242 143 1202 104 1242 b -39 1154 1 1242 -39 1202 b 52 1065 -39 1105 1 1065 z m 329 1065 b 420 1154 380 1065 420 1105 b 329 1242 420 1202 380 1242 b 238 1154 277 1242 238 1202 b 329 1065 238 1105 277 1065 z "},"Ҩ":{"ha":1348,"x_min":0,"x_max":0,"o":"m 876 714 b 1021 531 964 714 1021 637 b 874 221 1021 406 965 290 b 731 526 781 293 731 408 b 876 714 731 635 781 714 z m 1259 186 b 1107 142 1217 159 1160 142 b 1040 147 1084 142 1062 144 b 1220 534 1147 239 1220 384 b 876 882 1220 745 1084 882 b 533 519 669 882 533 727 b 699 153 533 372 593 244 b 614 146 673 149 645 146 b 264 505 412 146 264 296 b 513 827 264 663 354 793 l 513 1008 b 58 508 241 983 58 776 b 614 -24 58 195 275 -24 b 867 36 709 -24 791 -4 b 1105 -25 938 -5 1015 -25 b 1324 40 1183 -25 1258 -4 z "},"Ү":{"ha":930,"x_min":0,"x_max":0,"o":"m 568 0 l 568 366 l 909 979 l 689 979 l 469 561 l 465 561 l 245 979 l 22 979 l 363 366 l 363 0 z "},"Ұ":{"ha":930,"x_min":0,"x_max":0,"o":"m 909 979 l 689 979 l 469 561 l 465 561 l 245 979 l 22 979 l 319 445 l 132 445 l 132 310 l 363 310 l 363 0 l 568 0 l 568 310 l 798 310 l 798 445 l 612 445 z "},"Ҽ":{"ha":1211,"x_min":0,"x_max":0,"o":"m 481 600 b 710 833 498 743 589 833 b 938 600 840 833 928 745 z m 477 451 l 1152 451 b 1154 522 1152 451 1154 505 b 713 1004 1154 823 988 1004 b 273 606 476 1004 312 850 b 178 698 210 608 178 643 b 198 788 178 745 199 788 l 34 788 b 10 673 34 788 10 745 b 264 450 10 547 101 454 b 728 -25 277 155 453 -25 b 1144 281 945 -25 1112 100 l 940 281 b 728 146 911 193 835 146 b 477 429 576 146 477 258 z "},"Ҿ":{"ha":1211,"x_min":0,"x_max":0,"o":"m 481 600 b 710 833 498 743 589 833 b 938 600 840 833 928 745 z m 477 451 l 1152 451 b 1154 522 1152 451 1154 505 b 713 1004 1154 823 988 1004 b 273 606 476 1004 312 850 b 178 698 210 608 178 643 b 198 788 178 745 199 788 l 34 788 b 10 673 34 788 10 745 b 264 450 10 547 101 454 b 627 -16 276 193 411 23 l 627 -193 l 812 -193 l 812 -18 b 1144 281 987 9 1116 124 l 940 281 b 728 146 911 193 835 146 b 477 429 576 146 477 258 z "},"Ӕ":{"ha":1369,"x_min":0,"x_max":0,"o":"m 563 821 l 655 821 l 655 406 l 390 406 z m 655 0 l 1296 0 l 1296 169 l 842 169 l 842 413 l 1271 413 l 1271 570 l 842 570 l 842 810 l 1296 810 l 1296 979 l 435 979 l 19 0 l 223 0 l 330 253 l 655 253 z "},"Ə":{"ha":1009,"x_min":0,"x_max":0,"o":"m 505 -25 b 951 488 772 -25 951 180 b 492 1004 951 802 771 1004 b 68 698 280 1004 118 888 l 276 698 b 492 833 310 781 378 833 b 737 549 635 833 738 715 l 737 538 l 59 538 b 58 466 59 538 58 496 b 505 -25 59 172 223 -25 z m 506 146 b 273 389 374 146 284 239 l 735 389 b 506 146 720 241 628 146 z "},"Ӛ":{"ha":1009,"x_min":0,"x_max":0,"o":"m 505 -25 b 951 488 772 -25 951 180 b 492 1004 951 802 771 1004 b 68 698 280 1004 118 888 l 276 698 b 492 833 310 781 378 833 b 737 549 635 833 738 715 l 737 538 l 59 538 b 58 466 59 538 58 496 b 505 -25 59 172 223 -25 z m 506 146 b 273 389 374 146 284 239 l 735 389 b 506 146 720 241 628 146 z m 350 1065 b 441 1154 401 1065 441 1105 b 350 1242 441 1202 401 1242 b 259 1154 298 1242 259 1202 b 350 1065 259 1105 298 1065 z m 627 1065 b 718 1154 678 1065 718 1105 b 627 1242 718 1202 678 1242 b 536 1154 575 1242 536 1202 b 627 1065 536 1105 575 1065 z "},"Ӡ":{"ha":860,"x_min":0,"x_max":0,"o":"m 421 -25 b 806 290 652 -25 806 102 b 490 585 806 470 681 572 l 490 597 l 770 846 l 770 979 l 84 979 l 84 810 l 504 810 l 504 798 l 271 593 l 271 448 l 379 448 b 597 290 520 448 597 395 b 423 140 597 198 528 140 b 242 278 318 140 248 193 l 46 278 b 421 -25 55 95 203 -25 z "},"Ԑ":{"ha":876,"x_min":0,"x_max":0,"o":"m 574 417 l 574 576 l 444 576 b 279 713 346 576 279 631 b 441 844 279 793 340 844 b 615 704 543 844 608 790 l 804 704 b 435 1004 796 887 657 1004 b 84 732 229 1004 84 897 b 269 515 84 623 161 540 l 269 503 b 50 269 138 490 50 402 b 441 -25 50 97 216 -25 b 826 278 665 -25 817 95 l 630 278 b 439 140 621 194 551 140 b 260 281 331 140 260 199 b 442 417 260 367 327 417 z "},"Ѵ":{"ha":1061,"x_min":0,"x_max":0,"o":"m 604 0 l 842 702 b 885 783 857 745 871 770 b 935 802 898 795 914 802 b 996 788 952 802 976 796 l 1052 951 b 895 991 1010 975 947 991 b 760 951 838 991 795 979 b 646 738 709 913 675 848 l 492 224 l 479 224 l 257 979 l 26 979 l 357 0 z "},"Ԝ":{"ha":1341,"x_min":0,"x_max":0,"o":"m 667 669 l 673 669 l 859 0 l 1053 0 l 1312 979 l 1100 979 l 945 270 l 940 270 l 757 979 l 584 979 l 401 270 l 395 270 l 241 979 l 29 979 l 288 0 l 481 0 z "},"Ђ":{"ha":1175,"x_min":0,"x_max":0,"o":"m 766 -45 b 1111 291 981 -45 1111 90 b 772 615 1111 477 989 615 b 536 532 673 615 593 585 l 531 532 l 531 810 l 818 810 l 818 979 l 39 979 l 39 810 l 326 810 l 326 0 l 531 0 l 531 330 b 732 441 563 395 643 441 b 905 279 839 441 905 378 b 747 119 905 178 845 119 b 667 127 705 119 675 124 l 667 -34 b 766 -45 675 -37 713 -45 z "},"Ѕ":{"ha":890,"x_min":0,"x_max":0,"o":"m 52 279 b 443 -17 58 95 208 -17 b 840 293 686 -17 840 103 b 558 568 840 442 754 526 l 439 593 b 279 713 327 619 279 653 b 448 834 279 786 347 834 b 630 701 551 834 623 784 l 822 701 b 448 996 819 878 675 996 b 73 696 229 996 73 876 b 342 422 73 553 162 461 l 470 395 b 635 269 588 368 635 333 b 451 145 635 197 560 145 b 249 279 342 145 258 198 z "},"Ј":{"ha":789,"x_min":0,"x_max":0,"o":"m 28 288 b 359 -20 28 101 159 -20 b 693 307 568 -20 693 98 l 693 979 l 488 979 l 488 308 b 357 157 488 210 442 157 b 227 288 279 157 228 209 z "},"a":{"ha":760,"x_min":0,"x_max":0,"o":"m 345 132 b 233 220 278 132 233 165 b 349 310 233 271 275 304 l 503 319 l 503 267 b 345 132 503 188 431 132 z m 280 -12 b 502 111 371 -12 461 34 l 506 111 l 506 0 l 697 0 l 697 500 b 389 743 697 646 576 743 b 69 505 197 743 77 646 l 250 505 b 380 595 260 558 307 595 b 503 488 455 595 503 555 l 503 439 l 319 429 b 37 209 138 418 37 341 b 280 -12 37 78 142 -12 z "},"à":{"ha":760,"x_min":0,"x_max":0,"o":"m 345 132 b 233 220 278 132 233 165 b 349 310 233 271 275 304 l 503 319 l 503 267 b 345 132 503 188 431 132 z m 280 -12 b 502 111 371 -12 461 34 l 506 111 l 506 0 l 697 0 l 697 500 b 389 743 697 646 576 743 b 69 505 197 743 77 646 l 250 505 b 380 595 260 558 307 595 b 503 488 455 595 503 555 l 503 439 l 319 429 b 37 209 138 418 37 341 b 280 -12 37 78 142 -12 z m 465 829 l 315 1040 l 133 1040 l 307 829 z "},"á":{"ha":760,"x_min":0,"x_max":0,"o":"m 345 132 b 233 220 278 132 233 165 b 349 310 233 271 275 304 l 503 319 l 503 267 b 345 132 503 188 431 132 z m 280 -12 b 502 111 371 -12 461 34 l 506 111 l 506 0 l 697 0 l 697 500 b 389 743 697 646 576 743 b 69 505 197 743 77 646 l 250 505 b 380 595 260 558 307 595 b 503 488 455 595 503 555 l 503 439 l 319 429 b 37 209 138 418 37 341 b 280 -12 37 78 142 -12 z m 461 829 l 635 1040 l 453 1040 l 303 829 z "},"ä":{"ha":760,"x_min":0,"x_max":0,"o":"m 345 132 b 233 220 278 132 233 165 b 349 310 233 271 275 304 l 503 319 l 503 267 b 345 132 503 188 431 132 z m 280 -12 b 502 111 371 -12 461 34 l 506 111 l 506 0 l 697 0 l 697 500 b 389 743 697 646 576 743 b 69 505 197 743 77 646 l 250 505 b 380 595 260 558 307 595 b 503 488 455 595 503 555 l 503 439 l 319 429 b 37 209 138 418 37 341 b 280 -12 37 78 142 -12 z m 245 827 b 336 916 297 827 336 867 b 245 1004 336 964 297 1004 b 155 916 194 1004 155 964 b 245 827 155 867 194 827 z m 522 827 b 613 916 574 827 613 867 b 522 1004 613 964 574 1004 b 431 916 471 1004 431 964 b 522 827 431 867 471 827 z "},"ǟ":{"ha":760,"x_min":0,"x_max":0,"o":"m 345 132 b 233 220 278 132 233 165 b 349 310 233 271 275 304 l 503 319 l 503 267 b 345 132 503 188 431 132 z m 280 -12 b 502 111 371 -12 461 34 l 506 111 l 506 0 l 697 0 l 697 500 b 389 743 697 646 576 743 b 69 505 197 743 77 646 l 250 505 b 380 595 260 558 307 595 b 503 488 455 595 503 555 l 503 439 l 319 429 b 37 209 138 418 37 341 b 280 -12 37 78 142 -12 z m 248 810 b 337 895 298 810 337 848 b 248 981 337 943 298 981 b 160 895 199 981 160 943 b 248 810 160 848 199 810 z m 519 810 b 608 895 569 810 608 848 b 519 981 608 943 569 981 b 431 895 469 981 431 943 b 519 810 431 848 469 810 z m 601 1173 l 168 1173 l 168 1072 l 601 1072 z "},"å":{"ha":760,"x_min":0,"x_max":0,"o":"m 345 132 b 233 220 278 132 233 165 b 349 310 233 271 275 304 l 503 319 l 503 267 b 345 132 503 188 431 132 z m 280 -12 b 502 111 371 -12 461 34 l 506 111 l 506 0 l 697 0 l 697 500 b 389 743 697 646 576 743 b 69 505 197 743 77 646 l 250 505 b 380 595 260 558 307 595 b 503 488 455 595 503 555 l 503 439 l 319 429 b 37 209 138 418 37 341 b 280 -12 37 78 142 -12 z m 384 796 b 531 941 465 796 531 861 b 384 1085 531 1020 465 1085 b 237 941 304 1085 237 1020 b 384 796 237 861 304 796 z m 384 877 b 319 941 349 877 319 905 b 384 1004 319 976 349 1004 b 449 941 419 1004 449 976 b 384 877 449 905 419 877 z "},"ǻ":{"ha":760,"x_min":0,"x_max":0,"o":"m 345 132 b 233 220 278 132 233 165 b 349 310 233 271 275 304 l 503 319 l 503 267 b 345 132 503 188 431 132 z m 280 -12 b 502 111 371 -12 461 34 l 506 111 l 506 0 l 697 0 l 697 500 b 389 743 697 646 576 743 b 69 505 197 743 77 646 l 250 505 b 380 595 260 558 307 595 b 503 488 455 595 503 555 l 503 439 l 319 429 b 37 209 138 418 37 341 b 280 -12 37 78 142 -12 z m 385 796 b 530 939 468 796 530 858 b 385 1080 530 1019 468 1080 b 239 939 302 1080 239 1019 b 385 796 239 858 302 796 z m 323 939 b 385 1000 323 973 350 1000 b 446 939 420 1000 446 973 b 385 877 446 904 420 877 b 323 939 350 877 323 904 z m 321 1134 l 458 1134 l 570 1278 l 411 1278 z "},"ã":{"ha":760,"x_min":0,"x_max":0,"o":"m 345 132 b 233 220 278 132 233 165 b 349 310 233 271 275 304 l 503 319 l 503 267 b 345 132 503 188 431 132 z m 280 -12 b 502 111 371 -12 461 34 l 506 111 l 506 0 l 697 0 l 697 500 b 389 743 697 646 576 743 b 69 505 197 743 77 646 l 250 505 b 380 595 260 558 307 595 b 503 488 455 595 503 555 l 503 439 l 319 429 b 37 209 138 418 37 341 b 280 -12 37 78 142 -12 z m 481 826 b 630 1014 564 826 630 897 l 522 1014 b 475 930 521 960 505 930 b 296 1021 427 930 393 1021 b 146 836 212 1021 146 955 l 254 836 b 302 918 254 885 271 918 b 481 826 352 918 387 826 z "},"ằ":{"ha":760,"x_min":0,"x_max":0,"o":"m 345 132 b 233 220 278 132 233 165 b 349 310 233 271 275 304 l 503 319 l 503 267 b 345 132 503 188 431 132 z m 280 -12 b 502 111 371 -12 461 34 l 506 111 l 506 0 l 697 0 l 697 500 b 389 743 697 646 576 743 b 69 505 197 743 77 646 l 250 505 b 380 595 260 558 307 595 b 503 488 455 595 503 555 l 503 439 l 319 429 b 37 209 138 418 37 341 b 280 -12 37 78 142 -12 z m 460 1056 l 330 1247 l 168 1247 l 329 1056 z m 627 1038 l 505 1038 b 384 919 503 967 456 919 b 263 1038 311 919 264 967 l 140 1038 b 384 819 142 915 231 819 b 627 1038 536 819 625 915 z "},"ǡ":{"ha":760,"x_min":0,"x_max":0,"o":"m 345 132 b 233 220 278 132 233 165 b 349 310 233 271 275 304 l 503 319 l 503 267 b 345 132 503 188 431 132 z m 280 -12 b 502 111 371 -12 461 34 l 506 111 l 506 0 l 697 0 l 697 500 b 389 743 697 646 576 743 b 69 505 197 743 77 646 l 250 505 b 380 595 260 558 307 595 b 503 488 455 595 503 555 l 503 439 l 319 429 b 37 209 138 418 37 341 b 280 -12 37 78 142 -12 z m 384 812 b 486 911 440 812 486 857 b 384 1012 486 966 440 1012 b 282 911 328 1012 282 966 b 384 812 282 857 328 812 z m 601 1176 l 168 1176 l 168 1076 l 601 1076 z "},"ḁ":{"ha":760,"x_min":0,"x_max":0,"o":"m 345 132 b 233 220 278 132 233 165 b 349 310 233 271 275 304 l 503 319 l 503 267 b 345 132 503 188 431 132 z m 280 -12 b 502 111 371 -12 461 34 l 506 111 l 506 0 l 697 0 l 697 500 b 389 743 697 646 576 743 b 69 505 197 743 77 646 l 250 505 b 380 595 260 558 307 595 b 503 488 455 595 503 555 l 503 439 l 319 429 b 37 209 138 418 37 341 b 280 -12 37 78 142 -12 z m 376 -364 b 524 -220 457 -364 524 -299 b 376 -75 524 -140 457 -75 b 229 -220 296 -75 229 -140 b 376 -364 229 -299 296 -364 z m 376 -283 b 312 -220 341 -283 312 -255 b 376 -156 312 -184 341 -156 b 441 -220 412 -156 441 -184 b 376 -283 441 -255 412 -283 z "},"â":{"ha":760,"x_min":0,"x_max":0,"o":"m 345 132 b 233 220 278 132 233 165 b 349 310 233 271 275 304 l 503 319 l 503 267 b 345 132 503 188 431 132 z m 280 -12 b 502 111 371 -12 461 34 l 506 111 l 506 0 l 697 0 l 697 500 b 389 743 697 646 576 743 b 69 505 197 743 77 646 l 250 505 b 380 595 260 558 307 595 b 503 488 455 595 503 555 l 503 439 l 319 429 b 37 209 138 418 37 341 b 280 -12 37 78 142 -12 z m 460 1038 l 308 1038 l 129 823 l 281 823 l 381 949 l 386 949 l 487 823 l 638 823 z "},"ậ":{"ha":760,"x_min":0,"x_max":0,"o":"m 345 132 b 233 220 278 132 233 165 b 349 310 233 271 275 304 l 503 319 l 503 267 b 345 132 503 188 431 132 z m 280 -12 b 502 111 371 -12 461 34 l 506 111 l 506 0 l 697 0 l 697 500 b 389 743 697 646 576 743 b 69 505 197 743 77 646 l 250 505 b 380 595 260 558 307 595 b 503 488 455 595 503 555 l 503 439 l 319 429 b 37 209 138 418 37 341 b 280 -12 37 78 142 -12 z m 460 1038 l 308 1038 l 129 823 l 281 823 l 381 949 l 386 949 l 487 823 l 638 823 z m 376 -309 b 477 -208 433 -309 477 -264 b 376 -107 477 -153 433 -107 b 275 -208 319 -107 275 -153 b 376 -309 275 -264 319 -309 z "},"ấ":{"ha":760,"x_min":0,"x_max":0,"o":"m 345 132 b 233 220 278 132 233 165 b 349 310 233 271 275 304 l 503 319 l 503 267 b 345 132 503 188 431 132 z m 280 -12 b 502 111 371 -12 461 34 l 506 111 l 506 0 l 697 0 l 697 500 b 389 743 697 646 576 743 b 69 505 197 743 77 646 l 250 505 b 380 595 260 558 307 595 b 503 488 455 595 503 555 l 503 439 l 319 429 b 37 209 138 418 37 341 b 280 -12 37 78 142 -12 z m 460 1031 l 307 1031 l 129 823 l 281 823 l 381 944 l 387 944 l 487 823 l 639 823 z m 490 1059 l 635 1059 l 795 1255 l 630 1255 z "},"ẫ":{"ha":760,"x_min":0,"x_max":0,"o":"m 345 132 b 233 220 278 132 233 165 b 349 310 233 271 275 304 l 503 319 l 503 267 b 345 132 503 188 431 132 z m 280 -12 b 502 111 371 -12 461 34 l 506 111 l 506 0 l 697 0 l 697 500 b 389 743 697 646 576 743 b 69 505 197 743 77 646 l 250 505 b 380 595 260 558 307 595 b 503 488 455 595 503 555 l 503 439 l 319 429 b 37 209 138 418 37 341 b 280 -12 37 78 142 -12 z m 460 1025 l 307 1025 l 129 823 l 281 823 l 381 939 l 387 939 l 487 823 l 639 823 z m 477 1072 b 625 1255 559 1072 625 1141 l 518 1255 b 471 1174 517 1204 501 1174 b 292 1265 420 1174 385 1265 b 142 1084 208 1265 142 1199 l 250 1084 b 298 1162 250 1130 267 1162 b 477 1072 348 1162 382 1072 z "},"ầ":{"ha":760,"x_min":0,"x_max":0,"o":"m 345 132 b 233 220 278 132 233 165 b 349 310 233 271 275 304 l 503 319 l 503 267 b 345 132 503 188 431 132 z m 280 -12 b 502 111 371 -12 461 34 l 506 111 l 506 0 l 697 0 l 697 500 b 389 743 697 646 576 743 b 69 505 197 743 77 646 l 250 505 b 380 595 260 558 307 595 b 503 488 455 595 503 555 l 503 439 l 319 429 b 37 209 138 418 37 341 b 280 -12 37 78 142 -12 z m 460 1031 l 307 1031 l 129 823 l 281 823 l 381 944 l 387 944 l 487 823 l 639 823 z m 686 1059 l 546 1255 l 381 1255 l 541 1059 z "},"ẩ":{"ha":760,"x_min":0,"x_max":0,"o":"m 345 132 b 233 220 278 132 233 165 b 349 310 233 271 275 304 l 503 319 l 503 267 b 345 132 503 188 431 132 z m 280 -12 b 502 111 371 -12 461 34 l 506 111 l 506 0 l 697 0 l 697 500 b 389 743 697 646 576 743 b 69 505 197 743 77 646 l 250 505 b 380 595 260 558 307 595 b 503 488 455 595 503 555 l 503 439 l 319 429 b 37 209 138 418 37 341 b 280 -12 37 78 142 -12 z m 464 1160 b 526 1171 483 1168 504 1171 b 590 1122 564 1171 590 1152 b 530 1051 590 1094 568 1066 l 589 986 b 701 1135 663 1014 701 1065 b 545 1263 701 1213 641 1263 b 464 1249 515 1263 483 1257 z m 460 1031 l 307 1031 l 129 823 l 281 823 l 381 944 l 387 944 l 487 823 l 639 823 z "},"ă":{"ha":760,"x_min":0,"x_max":0,"o":"m 345 132 b 233 220 278 132 233 165 b 349 310 233 271 275 304 l 503 319 l 503 267 b 345 132 503 188 431 132 z m 280 -12 b 502 111 371 -12 461 34 l 506 111 l 506 0 l 697 0 l 697 500 b 389 743 697 646 576 743 b 69 505 197 743 77 646 l 250 505 b 380 595 260 558 307 595 b 503 488 455 595 503 555 l 503 439 l 319 429 b 37 209 138 418 37 341 b 280 -12 37 78 142 -12 z m 140 1038 b 383 819 142 915 231 819 b 627 1038 536 819 625 915 l 504 1038 b 383 919 503 967 456 919 b 263 1038 311 919 264 967 z "},"ắ":{"ha":760,"x_min":0,"x_max":0,"o":"m 345 132 b 233 220 278 132 233 165 b 349 310 233 271 275 304 l 503 319 l 503 267 b 345 132 503 188 431 132 z m 280 -12 b 502 111 371 -12 461 34 l 506 111 l 506 0 l 697 0 l 697 500 b 389 743 697 646 576 743 b 69 505 197 743 77 646 l 250 505 b 380 595 260 558 307 595 b 503 488 455 595 503 555 l 503 439 l 319 429 b 37 209 138 418 37 341 b 280 -12 37 78 142 -12 z m 304 1059 l 449 1059 l 608 1255 l 444 1255 z m 627 1038 l 505 1038 b 384 919 503 967 456 919 b 263 1038 311 919 264 967 l 140 1038 b 384 819 142 915 231 819 b 627 1038 536 819 625 915 z "},"ẵ":{"ha":760,"x_min":0,"x_max":0,"o":"m 345 132 b 233 220 278 132 233 165 b 349 310 233 271 275 304 l 503 319 l 503 267 b 345 132 503 188 431 132 z m 280 -12 b 502 111 371 -12 461 34 l 506 111 l 506 0 l 697 0 l 697 500 b 389 743 697 646 576 743 b 69 505 197 743 77 646 l 250 505 b 380 595 260 558 307 595 b 503 488 455 595 503 555 l 503 439 l 319 429 b 37 209 138 418 37 341 b 280 -12 37 78 142 -12 z m 627 1038 l 505 1038 b 384 919 503 967 456 919 b 263 1038 311 919 264 967 l 140 1038 b 384 819 142 915 231 819 b 627 1038 536 819 625 915 z m 477 1072 b 625 1255 559 1072 625 1141 l 518 1255 b 471 1174 517 1204 500 1174 b 292 1265 422 1174 389 1265 b 142 1088 208 1265 142 1199 l 250 1088 b 298 1162 250 1130 267 1162 b 477 1072 348 1162 382 1072 z "},"ẳ":{"ha":760,"x_min":0,"x_max":0,"o":"m 345 132 b 233 220 278 132 233 165 b 349 310 233 271 275 304 l 503 319 l 503 267 b 345 132 503 188 431 132 z m 280 -12 b 502 111 371 -12 461 34 l 506 111 l 506 0 l 697 0 l 697 500 b 389 743 697 646 576 743 b 69 505 197 743 77 646 l 250 505 b 380 595 260 558 307 595 b 503 488 455 595 503 555 l 503 439 l 319 429 b 37 209 138 418 37 341 b 280 -12 37 78 142 -12 z m 627 1038 l 505 1038 b 384 919 503 967 456 919 b 263 1038 311 919 264 967 l 140 1038 b 384 819 142 915 231 819 b 627 1038 536 819 625 915 z m 265 1178 b 326 1189 284 1185 304 1189 b 387 1141 362 1189 387 1170 b 330 1076 387 1116 369 1094 l 387 1015 b 493 1153 457 1041 493 1086 b 343 1276 493 1229 435 1276 b 265 1261 315 1276 283 1270 z "},"ặ":{"ha":760,"x_min":0,"x_max":0,"o":"m 345 132 b 233 220 278 132 233 165 b 349 310 233 271 275 304 l 503 319 l 503 267 b 345 132 503 188 431 132 z m 280 -12 b 502 111 371 -12 461 34 l 506 111 l 506 0 l 697 0 l 697 500 b 389 743 697 646 576 743 b 69 505 197 743 77 646 l 250 505 b 380 595 260 558 307 595 b 503 488 455 595 503 555 l 503 439 l 319 429 b 37 209 138 418 37 341 b 280 -12 37 78 142 -12 z m 140 1038 b 383 819 142 915 231 819 b 627 1038 536 819 625 915 l 504 1038 b 383 919 503 967 456 919 b 263 1038 311 919 264 967 z m 376 -309 b 477 -208 433 -309 477 -264 b 376 -107 477 -153 433 -107 b 275 -208 319 -107 275 -153 b 376 -309 275 -264 319 -309 z "},"ȃ":{"ha":760,"x_min":0,"x_max":0,"o":"m 345 132 b 233 220 278 132 233 165 b 349 310 233 271 275 304 l 503 319 l 503 267 b 345 132 503 188 431 132 z m 280 -12 b 502 111 371 -12 461 34 l 506 111 l 506 0 l 697 0 l 697 500 b 389 743 697 646 576 743 b 69 505 197 743 77 646 l 250 505 b 380 595 260 558 307 595 b 503 488 455 595 503 555 l 503 439 l 319 429 b 37 209 138 418 37 341 b 280 -12 37 78 142 -12 z m 140 823 l 263 823 b 384 941 264 893 311 941 b 505 823 456 941 503 893 l 627 823 b 384 1041 625 946 536 1041 b 140 823 231 1041 142 946 z "},"ǎ":{"ha":760,"x_min":0,"x_max":0,"o":"m 345 132 b 233 220 278 132 233 165 b 349 310 233 271 275 304 l 503 319 l 503 267 b 345 132 503 188 431 132 z m 280 -12 b 502 111 371 -12 461 34 l 506 111 l 506 0 l 697 0 l 697 500 b 389 743 697 646 576 743 b 69 505 197 743 77 646 l 250 505 b 380 595 260 558 307 595 b 503 488 455 595 503 555 l 503 439 l 319 429 b 37 209 138 418 37 341 b 280 -12 37 78 142 -12 z m 460 823 l 638 1038 l 487 1038 l 386 911 l 381 911 l 281 1038 l 129 1038 l 308 823 z "},"ȧ":{"ha":760,"x_min":0,"x_max":0,"o":"m 345 132 b 233 220 278 132 233 165 b 349 310 233 271 275 304 l 503 319 l 503 267 b 345 132 503 188 431 132 z m 280 -12 b 502 111 371 -12 461 34 l 506 111 l 506 0 l 697 0 l 697 500 b 389 743 697 646 576 743 b 69 505 197 743 77 646 l 250 505 b 380 595 260 558 307 595 b 503 488 455 595 503 555 l 503 439 l 319 429 b 37 209 138 418 37 341 b 280 -12 37 78 142 -12 z m 383 829 b 485 930 440 829 485 875 b 383 1031 485 985 440 1031 b 281 930 326 1031 281 985 b 383 829 281 875 326 829 z "},"ạ":{"ha":760,"x_min":0,"x_max":0,"o":"m 345 132 b 233 220 278 132 233 165 b 349 310 233 271 275 304 l 503 319 l 503 267 b 345 132 503 188 431 132 z m 280 -12 b 502 111 371 -12 461 34 l 506 111 l 506 0 l 697 0 l 697 500 b 389 743 697 646 576 743 b 69 505 197 743 77 646 l 250 505 b 380 595 260 558 307 595 b 503 488 455 595 503 555 l 503 439 l 319 429 b 37 209 138 418 37 341 b 280 -12 37 78 142 -12 z m 376 -309 b 477 -208 433 -309 477 -264 b 376 -107 477 -153 433 -107 b 275 -208 319 -107 275 -153 b 376 -309 275 -264 319 -309 z "},"ả":{"ha":760,"x_min":0,"x_max":0,"o":"m 345 132 b 233 220 278 132 233 165 b 349 310 233 271 275 304 l 503 319 l 503 267 b 345 132 503 188 431 132 z m 280 -12 b 502 111 371 -12 461 34 l 506 111 l 506 0 l 697 0 l 697 500 b 389 743 697 646 576 743 b 69 505 197 743 77 646 l 250 505 b 380 595 260 558 307 595 b 503 488 455 595 503 555 l 503 439 l 319 429 b 37 209 138 418 37 341 b 280 -12 37 78 142 -12 z m 280 986 b 349 1000 304 996 325 1000 b 418 947 390 1000 418 978 b 353 869 418 911 400 890 l 411 799 b 539 956 491 833 539 892 b 381 1096 539 1041 477 1096 b 280 1078 346 1096 307 1089 z "},"ȁ":{"ha":760,"x_min":0,"x_max":0,"o":"m 345 132 b 233 220 278 132 233 165 b 349 310 233 271 275 304 l 503 319 l 503 267 b 345 132 503 188 431 132 z m 280 -12 b 502 111 371 -12 461 34 l 506 111 l 506 0 l 697 0 l 697 500 b 389 743 697 646 576 743 b 69 505 197 743 77 646 l 250 505 b 380 595 260 558 307 595 b 503 488 455 595 503 555 l 503 439 l 319 429 b 37 209 138 418 37 341 b 280 -12 37 78 142 -12 z m 333 829 l 205 1040 l 37 1040 l 191 829 z m 584 829 l 456 1040 l 288 1040 l 442 829 z "},"ā":{"ha":760,"x_min":0,"x_max":0,"o":"m 345 132 b 233 220 278 132 233 165 b 349 310 233 271 275 304 l 503 319 l 503 267 b 345 132 503 188 431 132 z m 280 -12 b 502 111 371 -12 461 34 l 506 111 l 506 0 l 697 0 l 697 500 b 389 743 697 646 576 743 b 69 505 197 743 77 646 l 250 505 b 380 595 260 558 307 595 b 503 488 455 595 503 555 l 503 439 l 319 429 b 37 209 138 418 37 341 b 280 -12 37 78 142 -12 z m 601 951 l 168 951 l 168 851 l 601 851 z "},"ą":{"ha":760,"x_min":0,"x_max":0,"o":"m 345 132 b 233 220 278 132 233 165 b 349 309 233 271 275 304 l 503 319 l 503 267 b 345 132 503 188 431 132 z m 673 -290 l 673 -185 b 623 -191 663 -189 643 -191 b 543 -127 572 -191 543 -168 b 674 -5 543 -68 608 -21 l 697 -1 l 697 498 b 390 740 697 643 574 740 b 71 504 203 740 77 645 l 252 504 b 381 592 260 556 309 592 b 503 486 456 592 503 554 l 503 439 l 319 428 b 37 209 138 417 37 341 b 280 -12 37 78 142 -12 b 502 111 371 -12 461 34 l 506 111 l 506 1 b 398 -163 451 -32 398 -91 b 576 -305 398 -248 471 -305 b 673 -290 630 -305 660 -297 z "},"b":{"ha":829,"x_min":0,"x_max":0,"o":"m 496 -12 b 791 363 680 -12 791 130 b 496 739 791 598 679 739 b 271 601 392 739 311 687 l 267 601 l 267 979 l 69 979 l 69 0 l 264 0 l 264 125 l 269 125 b 496 -12 309 40 390 -12 z m 428 580 b 589 363 526 580 589 496 b 428 148 589 231 527 148 b 267 363 332 148 267 232 b 428 580 267 494 332 580 z "},"ḇ":{"ha":829,"x_min":0,"x_max":0,"o":"m 496 -12 b 791 363 680 -12 791 130 b 496 739 791 598 679 739 b 271 601 392 739 311 687 l 267 601 l 267 979 l 69 979 l 69 0 l 264 0 l 264 125 l 269 125 b 496 -12 309 40 390 -12 z m 428 580 b 589 363 526 580 589 496 b 428 148 589 231 527 148 b 267 363 332 148 267 232 b 428 580 267 494 332 580 z m 659 -155 l 190 -155 l 190 -256 l 659 -256 z "},"ḅ":{"ha":829,"x_min":0,"x_max":0,"o":"m 496 -12 b 791 363 680 -12 791 130 b 496 739 791 598 679 739 b 271 601 392 739 311 687 l 267 601 l 267 979 l 69 979 l 69 0 l 264 0 l 264 125 l 269 125 b 496 -12 309 40 390 -12 z m 428 580 b 589 363 526 580 589 496 b 428 148 589 231 527 148 b 267 363 332 148 267 232 b 428 580 267 494 332 580 z m 425 -309 b 526 -208 481 -309 526 -264 b 425 -107 526 -153 481 -107 b 323 -208 368 -107 323 -153 b 425 -309 323 -264 368 -309 z "},"ḃ":{"ha":829,"x_min":0,"x_max":0,"o":"m 496 -12 b 791 363 680 -12 791 130 b 496 739 791 598 679 739 b 271 601 392 739 311 687 l 267 601 l 267 979 l 69 979 l 69 0 l 264 0 l 264 125 l 269 125 b 496 -12 309 40 390 -12 z m 428 580 b 589 363 526 580 589 496 b 428 148 589 231 527 148 b 267 363 332 148 267 232 b 428 580 267 494 332 580 z m 168 1059 b 269 1160 225 1059 269 1104 b 168 1261 269 1215 225 1261 b 67 1160 111 1261 67 1215 b 168 1059 67 1104 111 1059 z "},"c":{"ha":757,"x_min":0,"x_max":0,"o":"m 725 456 b 395 743 716 621 591 743 b 38 364 177 743 38 597 b 396 -16 38 127 177 -16 b 726 267 587 -16 715 95 l 541 267 b 398 140 529 187 477 140 b 239 364 300 140 239 221 b 397 587 239 505 300 587 b 541 456 479 587 530 533 z "},"ć":{"ha":757,"x_min":0,"x_max":0,"o":"m 725 456 b 395 743 716 621 591 743 b 38 364 177 743 38 597 b 396 -16 38 127 177 -16 b 726 267 587 -16 715 95 l 541 267 b 398 140 529 187 477 140 b 239 364 300 140 239 221 b 397 587 239 505 300 587 b 541 456 479 587 530 533 z m 463 829 l 636 1040 l 454 1040 l 304 829 z "},"č":{"ha":757,"x_min":0,"x_max":0,"o":"m 725 456 b 395 743 716 621 591 743 b 38 364 177 743 38 597 b 396 -16 38 127 177 -16 b 726 267 587 -16 715 95 l 541 267 b 398 140 529 187 477 140 b 239 364 300 140 239 221 b 397 587 239 505 300 587 b 541 456 479 587 530 533 z m 461 823 l 640 1038 l 488 1038 l 387 911 l 382 911 l 282 1038 l 130 1038 l 309 823 z "},"ĉ":{"ha":757,"x_min":0,"x_max":0,"o":"m 725 456 b 395 743 716 621 591 743 b 38 364 177 743 38 597 b 396 -16 38 127 177 -16 b 726 267 587 -16 715 95 l 541 267 b 398 140 529 187 477 140 b 239 364 300 140 239 221 b 397 587 239 505 300 587 b 541 456 479 587 530 533 z m 461 1038 l 309 1038 l 130 823 l 282 823 l 382 949 l 387 949 l 488 823 l 640 823 z "},"ċ":{"ha":757,"x_min":0,"x_max":0,"o":"m 725 456 b 395 743 716 621 591 743 b 38 364 177 743 38 597 b 396 -16 38 127 177 -16 b 726 267 587 -16 715 95 l 541 267 b 398 140 529 187 477 140 b 239 364 300 140 239 221 b 397 587 239 505 300 587 b 541 456 479 587 530 533 z m 385 829 b 486 930 441 829 486 875 b 385 1031 486 985 441 1031 b 282 930 328 1031 282 985 b 385 829 282 875 328 829 z "},"ç":{"ha":757,"x_min":0,"x_max":0,"o":"m 541 267 b 398 140 529 187 477 140 b 239 364 300 140 239 221 b 397 587 239 505 300 587 b 541 456 479 587 530 533 l 725 456 b 395 743 716 621 591 743 b 38 364 177 743 38 597 b 339 -12 38 148 153 11 l 305 -87 l 305 -154 l 348 -154 b 431 -191 408 -154 431 -163 b 356 -228 431 -216 407 -228 b 280 -220 330 -228 296 -224 l 280 -302 b 376 -312 298 -309 338 -313 b 545 -186 479 -311 545 -268 b 417 -75 545 -117 494 -75 l 446 -13 b 726 267 609 5 716 111 z "},"ḉ":{"ha":757,"x_min":0,"x_max":0,"o":"m 636 1040 l 454 1040 l 304 829 l 463 829 z m 541 267 b 398 140 529 187 477 140 b 239 364 300 140 239 221 b 397 587 239 505 300 587 b 541 456 479 587 530 533 l 725 456 b 395 743 716 621 591 743 b 38 364 177 743 38 597 b 339 -12 38 148 153 11 l 305 -87 l 305 -154 l 348 -154 b 431 -191 408 -154 431 -163 b 356 -228 431 -216 407 -228 b 280 -220 330 -228 296 -224 l 280 -302 b 376 -312 298 -309 338 -313 b 545 -186 479 -311 545 -268 b 417 -75 545 -117 494 -75 l 446 -13 b 726 267 609 5 716 111 z "},"d":{"ha":827,"x_min":0,"x_max":0,"o":"m 334 -12 b 561 125 441 -12 526 45 l 564 125 l 564 0 l 760 0 l 760 979 l 562 979 l 562 602 l 557 602 b 336 739 522 683 441 739 b 38 365 153 739 38 595 b 334 -12 38 132 153 -12 z m 401 580 b 563 363 500 580 563 496 b 401 148 563 231 500 148 b 241 363 302 148 241 230 b 401 580 241 496 302 580 z "},"ḋ":{"ha":827,"x_min":0,"x_max":0,"o":"m 334 -12 b 561 125 441 -12 526 45 l 564 125 l 564 0 l 760 0 l 760 979 l 562 979 l 562 602 l 557 602 b 336 739 522 683 441 739 b 38 365 153 739 38 595 b 334 -12 38 132 153 -12 z m 401 580 b 563 363 500 580 563 496 b 401 148 563 231 500 148 b 241 363 302 148 241 230 b 401 580 241 496 302 580 z m 665 1059 b 766 1160 722 1059 766 1104 b 665 1261 766 1215 722 1261 b 564 1160 608 1261 564 1215 b 665 1059 564 1104 608 1059 z "},"ḓ":{"ha":827,"x_min":0,"x_max":0,"o":"m 334 -12 b 561 125 441 -12 526 45 l 564 125 l 564 0 l 760 0 l 760 979 l 562 979 l 562 602 l 557 602 b 336 739 522 683 441 739 b 38 365 153 739 38 595 b 334 -12 38 132 153 -12 z m 401 580 b 563 363 500 580 563 496 b 401 148 563 231 500 148 b 241 363 302 148 241 230 b 401 580 241 496 302 580 z m 319 -96 l 137 -311 l 287 -311 l 393 -180 l 398 -180 l 504 -311 l 654 -311 l 471 -96 z "},"ḑ":{"ha":827,"x_min":0,"x_max":0,"o":"m 334 -12 b 561 125 441 -12 526 45 l 564 125 l 564 0 l 760 0 l 760 979 l 562 979 l 562 602 l 557 602 b 336 739 522 683 441 739 b 38 365 153 739 38 595 b 334 -12 38 132 153 -12 z m 401 580 b 563 363 500 580 563 496 b 401 148 563 231 500 148 b 241 363 302 148 241 230 b 401 580 241 496 302 580 z m 376 -320 l 490 -90 l 317 -90 l 229 -320 z "},"ḏ":{"ha":827,"x_min":0,"x_max":0,"o":"m 334 -12 b 561 125 441 -12 526 45 l 564 125 l 564 0 l 760 0 l 760 979 l 562 979 l 562 602 l 557 602 b 336 739 522 683 441 739 b 38 365 153 739 38 595 b 334 -12 38 132 153 -12 z m 401 580 b 563 363 500 580 563 496 b 401 148 563 231 500 148 b 241 363 302 148 241 230 b 401 580 241 496 302 580 z m 630 -155 l 161 -155 l 161 -256 l 630 -256 z "},"ď":{"ha":969,"x_min":0,"x_max":0,"o":"m 860 979 l 860 646 l 979 646 l 1006 979 z m 334 -12 b 561 125 441 -12 526 45 l 564 125 l 564 0 l 760 0 l 760 979 l 562 979 l 562 602 l 557 602 b 336 739 522 683 441 739 b 38 365 153 739 38 595 b 334 -12 38 132 153 -12 z m 401 580 b 563 363 500 580 563 496 b 401 148 563 231 500 148 b 241 363 302 148 241 230 b 401 580 241 496 302 580 z "},"ḍ":{"ha":827,"x_min":0,"x_max":0,"o":"m 334 -12 b 561 125 441 -12 526 45 l 564 125 l 564 0 l 760 0 l 760 979 l 562 979 l 562 602 l 557 602 b 336 739 522 683 441 739 b 38 365 153 739 38 595 b 334 -12 38 132 153 -12 z m 401 580 b 563 363 500 580 563 496 b 401 148 563 231 500 148 b 241 363 302 148 241 230 b 401 580 241 496 302 580 z m 395 -309 b 496 -208 452 -309 496 -264 b 395 -107 496 -153 452 -107 b 294 -208 338 -107 294 -153 b 395 -309 294 -264 338 -309 z "},"đ":{"ha":844,"x_min":0,"x_max":0,"o":"m 401 151 b 241 363 303 151 241 233 b 401 576 241 494 303 576 b 563 363 500 576 563 493 b 401 151 563 233 500 151 z m 826 909 l 760 909 l 760 979 l 562 979 l 562 909 l 423 909 l 423 809 l 562 809 l 562 602 l 557 602 b 336 736 522 683 441 736 b 38 365 155 736 38 593 b 334 -9 38 135 154 -9 b 561 125 441 -9 526 45 l 564 125 l 564 0 l 760 0 l 760 809 l 826 809 z "},"e":{"ha":771,"x_min":0,"x_max":0,"o":"m 391 596 b 543 439 479 596 539 532 l 235 439 b 391 596 241 530 304 596 z m 546 222 b 399 131 528 167 472 131 b 233 306 298 131 233 202 l 233 318 l 734 318 l 734 378 b 389 743 734 600 600 743 b 38 360 174 743 38 592 b 396 -16 38 127 172 -16 b 728 222 576 -16 706 80 z "},"è":{"ha":771,"x_min":0,"x_max":0,"o":"m 391 596 b 543 439 479 596 539 532 l 235 439 b 391 596 241 530 304 596 z m 546 222 b 399 131 528 167 472 131 b 233 306 298 131 233 202 l 233 318 l 734 318 l 734 378 b 389 743 734 600 600 743 b 38 360 174 743 38 592 b 396 -16 38 127 172 -16 b 728 222 576 -16 706 80 z m 469 829 l 319 1040 l 138 1040 l 311 829 z "},"ȅ":{"ha":771,"x_min":0,"x_max":0,"o":"m 391 596 b 543 439 479 596 539 532 l 235 439 b 391 596 241 530 304 596 z m 546 222 b 399 131 528 167 472 131 b 233 306 298 131 233 202 l 233 318 l 734 318 l 734 378 b 389 743 734 600 600 743 b 38 360 174 743 38 592 b 396 -16 38 127 172 -16 b 728 222 576 -16 706 80 z m 338 829 l 210 1040 l 42 1040 l 195 829 z m 589 829 l 460 1040 l 293 1040 l 447 829 z "},"é":{"ha":771,"x_min":0,"x_max":0,"o":"m 391 596 b 543 439 479 596 539 532 l 235 439 b 391 596 241 530 304 596 z m 546 222 b 399 131 528 167 472 131 b 233 306 298 131 233 202 l 233 318 l 734 318 l 734 378 b 389 743 734 600 600 743 b 38 360 174 743 38 592 b 396 -16 38 127 172 -16 b 728 222 576 -16 706 80 z m 466 829 l 640 1040 l 458 1040 l 308 829 z "},"ê":{"ha":771,"x_min":0,"x_max":0,"o":"m 391 596 b 543 439 479 596 539 532 l 235 439 b 391 596 241 530 304 596 z m 546 222 b 399 131 528 167 472 131 b 233 306 298 131 233 202 l 233 318 l 734 318 l 734 378 b 389 743 734 600 600 743 b 38 360 174 743 38 592 b 396 -16 38 127 172 -16 b 728 222 576 -16 706 80 z m 465 1038 l 313 1038 l 134 823 l 286 823 l 386 949 l 391 949 l 492 823 l 643 823 z "},"ể":{"ha":771,"x_min":0,"x_max":0,"o":"m 391 596 b 543 439 479 596 539 532 l 235 439 b 391 596 241 530 304 596 z m 546 222 b 399 131 528 167 472 131 b 233 306 298 131 233 202 l 233 318 l 734 318 l 734 378 b 389 743 734 600 600 743 b 38 360 174 743 38 592 b 396 -16 38 127 172 -16 b 728 222 576 -16 706 80 z m 469 1160 b 531 1171 488 1168 509 1171 b 595 1122 569 1171 595 1152 b 534 1051 595 1094 573 1066 l 594 986 b 706 1135 668 1014 706 1065 b 550 1263 706 1213 646 1263 b 469 1249 520 1263 488 1257 z m 465 1031 l 312 1031 l 134 823 l 286 823 l 386 944 l 391 944 l 492 823 l 644 823 z "},"ề":{"ha":771,"x_min":0,"x_max":0,"o":"m 391 596 b 543 439 479 596 539 532 l 235 439 b 391 596 241 530 304 596 z m 546 222 b 399 131 528 167 472 131 b 233 306 298 131 233 202 l 233 318 l 734 318 l 734 378 b 389 743 734 600 600 743 b 38 360 174 743 38 592 b 396 -16 38 127 172 -16 b 728 222 576 -16 706 80 z m 465 1031 l 312 1031 l 134 823 l 286 823 l 386 944 l 391 944 l 492 823 l 644 823 z m 690 1059 l 551 1255 l 386 1255 l 545 1059 z "},"ễ":{"ha":771,"x_min":0,"x_max":0,"o":"m 391 596 b 543 439 479 596 539 532 l 235 439 b 391 596 241 530 304 596 z m 546 222 b 399 131 528 167 472 131 b 233 306 298 131 233 202 l 233 318 l 734 318 l 734 378 b 389 743 734 600 600 743 b 38 360 174 743 38 592 b 396 -16 38 127 172 -16 b 728 222 576 -16 706 80 z m 465 1025 l 312 1025 l 134 823 l 286 823 l 386 939 l 391 939 l 492 823 l 644 823 z m 481 1072 b 630 1255 564 1072 630 1141 l 523 1255 b 475 1174 522 1204 506 1174 b 296 1265 425 1174 390 1265 b 147 1084 212 1265 147 1199 l 254 1084 b 302 1162 254 1130 271 1162 b 481 1072 353 1162 387 1072 z "},"ệ":{"ha":771,"x_min":0,"x_max":0,"o":"m 391 596 b 543 439 479 596 539 532 l 235 439 b 391 596 241 530 304 596 z m 546 222 b 399 131 528 167 472 131 b 233 306 298 131 233 202 l 233 318 l 734 318 l 734 378 b 389 743 734 600 600 743 b 38 360 174 743 38 592 b 396 -16 38 127 172 -16 b 728 222 576 -16 706 80 z m 465 1038 l 313 1038 l 134 823 l 286 823 l 386 949 l 391 949 l 492 823 l 643 823 z m 391 -309 b 492 -208 448 -309 492 -264 b 391 -107 492 -153 448 -107 b 290 -208 334 -107 290 -153 b 391 -309 290 -264 334 -309 z "},"ế":{"ha":771,"x_min":0,"x_max":0,"o":"m 391 596 b 543 439 479 596 539 532 l 235 439 b 391 596 241 530 304 596 z m 546 222 b 399 131 528 167 472 131 b 233 306 298 131 233 202 l 233 318 l 734 318 l 734 378 b 389 743 734 600 600 743 b 38 360 174 743 38 592 b 396 -16 38 127 172 -16 b 728 222 576 -16 706 80 z m 465 1031 l 312 1031 l 134 823 l 286 823 l 386 944 l 391 944 l 492 823 l 644 823 z m 495 1059 l 640 1059 l 800 1255 l 635 1255 z "},"ë":{"ha":771,"x_min":0,"x_max":0,"o":"m 391 596 b 543 439 479 596 539 532 l 235 439 b 391 596 241 530 304 596 z m 546 222 b 399 131 528 167 472 131 b 233 306 298 131 233 202 l 233 318 l 734 318 l 734 378 b 389 743 734 600 600 743 b 38 360 174 743 38 592 b 396 -16 38 127 172 -16 b 728 222 576 -16 706 80 z m 250 827 b 341 916 302 827 341 867 b 250 1004 341 964 302 1004 b 159 916 199 1004 159 964 b 250 827 159 867 199 827 z m 527 827 b 618 916 578 827 618 867 b 527 1004 618 964 578 1004 b 436 916 475 1004 436 964 b 527 827 436 867 475 827 z "},"ẹ":{"ha":771,"x_min":0,"x_max":0,"o":"m 391 596 b 543 439 479 596 539 532 l 235 439 b 391 596 241 530 304 596 z m 546 222 b 399 131 528 167 472 131 b 233 306 298 131 233 202 l 233 318 l 734 318 l 734 378 b 389 743 734 600 600 743 b 38 360 174 743 38 592 b 396 -16 38 127 172 -16 b 728 222 576 -16 706 80 z m 391 -309 b 492 -208 448 -309 492 -264 b 391 -107 492 -153 448 -107 b 290 -208 334 -107 290 -153 b 391 -309 290 -264 334 -309 z "},"ȇ":{"ha":771,"x_min":0,"x_max":0,"o":"m 391 596 b 543 439 479 596 539 532 l 235 439 b 391 596 241 530 304 596 z m 546 222 b 399 131 528 167 472 131 b 233 306 298 131 233 202 l 233 318 l 734 318 l 734 378 b 389 743 734 600 600 743 b 38 360 174 743 38 592 b 396 -16 38 127 172 -16 b 728 222 576 -16 706 80 z m 145 823 l 268 823 b 389 941 269 893 316 941 b 509 823 461 941 508 893 l 632 823 b 389 1041 630 946 541 1041 b 145 823 236 1041 147 946 z "},"ẻ":{"ha":771,"x_min":0,"x_max":0,"o":"m 391 596 b 543 439 479 596 539 532 l 235 439 b 391 596 241 530 304 596 z m 546 222 b 399 131 528 167 472 131 b 233 306 298 131 233 202 l 233 318 l 734 318 l 734 378 b 389 743 734 600 600 743 b 38 360 174 743 38 592 b 396 -16 38 127 172 -16 b 728 222 576 -16 706 80 z m 285 986 b 354 1000 309 996 330 1000 b 423 947 395 1000 423 978 b 358 869 423 911 405 890 l 416 799 b 544 956 496 833 544 892 b 386 1096 544 1041 482 1096 b 285 1078 351 1096 312 1089 z "},"ě":{"ha":771,"x_min":0,"x_max":0,"o":"m 391 596 b 543 439 479 596 539 532 l 235 439 b 391 596 241 530 304 596 z m 546 222 b 399 131 528 167 472 131 b 233 306 298 131 233 202 l 233 318 l 734 318 l 734 378 b 389 743 734 600 600 743 b 38 360 174 743 38 592 b 396 -16 38 127 172 -16 b 728 222 576 -16 706 80 z m 465 823 l 643 1038 l 492 1038 l 391 911 l 386 911 l 286 1038 l 134 1038 l 313 823 z "},"ē":{"ha":771,"x_min":0,"x_max":0,"o":"m 391 596 b 543 439 479 596 539 532 l 235 439 b 391 596 241 530 304 596 z m 546 222 b 399 131 528 167 472 131 b 233 306 298 131 233 202 l 233 318 l 734 318 l 734 378 b 389 743 734 600 600 743 b 38 360 174 743 38 592 b 396 -16 38 127 172 -16 b 728 222 576 -16 706 80 z m 606 951 l 172 951 l 172 851 l 606 851 z "},"ḕ":{"ha":771,"x_min":0,"x_max":0,"o":"m 391 596 b 543 439 479 596 539 532 l 235 439 b 391 596 241 530 304 596 z m 546 222 b 399 131 528 167 472 131 b 233 306 298 131 233 202 l 233 318 l 734 318 l 734 378 b 389 743 734 600 600 743 b 38 360 174 743 38 592 b 396 -16 38 127 172 -16 b 728 222 576 -16 706 80 z m 465 1057 l 336 1255 l 171 1255 l 328 1057 z m 606 937 l 172 937 l 172 837 l 606 837 z "},"ḗ":{"ha":771,"x_min":0,"x_max":0,"o":"m 391 596 b 543 439 479 596 539 532 l 235 439 b 391 596 241 530 304 596 z m 546 222 b 399 131 528 167 472 131 b 233 306 298 131 233 202 l 233 318 l 734 318 l 734 378 b 389 743 734 600 600 743 b 38 360 174 743 38 592 b 396 -16 38 127 172 -16 b 728 222 576 -16 706 80 z m 310 1059 l 455 1059 l 614 1255 l 450 1255 z m 606 937 l 172 937 l 172 837 l 606 837 z "},"ẽ":{"ha":771,"x_min":0,"x_max":0,"o":"m 391 596 b 543 439 479 596 539 532 l 235 439 b 391 596 241 530 304 596 z m 546 222 b 399 131 528 167 472 131 b 233 306 298 131 233 202 l 233 318 l 734 318 l 734 378 b 389 743 734 600 600 743 b 38 360 174 743 38 592 b 396 -16 38 127 172 -16 b 728 222 576 -16 706 80 z m 486 826 b 635 1014 568 826 635 897 l 527 1014 b 480 930 526 960 510 930 b 300 1021 431 930 398 1021 b 151 836 216 1021 151 955 l 259 836 b 307 918 259 885 275 918 b 486 826 357 918 392 826 z "},"ḙ":{"ha":771,"x_min":0,"x_max":0,"o":"m 391 596 b 543 439 479 596 539 532 l 235 439 b 391 596 241 530 304 596 z m 546 222 b 399 131 528 167 472 131 b 233 306 298 131 233 202 l 233 318 l 734 318 l 734 378 b 389 743 734 600 600 743 b 38 360 174 743 38 592 b 396 -16 38 127 172 -16 b 728 222 576 -16 706 80 z m 315 -96 l 132 -311 l 282 -311 l 388 -180 l 393 -180 l 499 -311 l 649 -311 l 467 -96 z "},"ĕ":{"ha":771,"x_min":0,"x_max":0,"o":"m 391 596 b 543 439 479 596 539 532 l 235 439 b 391 596 241 530 304 596 z m 546 222 b 399 131 528 167 472 131 b 233 306 298 131 233 202 l 233 318 l 734 318 l 734 378 b 389 743 734 600 600 743 b 38 360 174 743 38 592 b 396 -16 38 127 172 -16 b 728 222 576 -16 706 80 z m 145 1038 b 388 819 147 915 235 819 b 631 1038 541 819 629 915 l 509 1038 b 388 919 507 967 460 919 b 268 1038 315 919 269 967 z "},"ḛ":{"ha":771,"x_min":0,"x_max":0,"o":"m 391 596 b 543 439 479 596 539 532 l 235 439 b 391 596 241 530 304 596 z m 546 222 b 399 131 528 167 472 131 b 233 306 298 131 233 202 l 233 318 l 734 318 l 734 378 b 389 743 734 600 600 743 b 38 360 174 743 38 592 b 396 -16 38 127 172 -16 b 728 222 576 -16 706 80 z m 487 -271 b 635 -83 569 -271 635 -201 l 528 -83 b 481 -168 526 -137 511 -168 b 301 -76 432 -168 399 -76 b 152 -262 217 -76 152 -142 l 260 -262 b 307 -179 260 -212 276 -179 b 487 -271 357 -179 393 -271 z "},"ė":{"ha":771,"x_min":0,"x_max":0,"o":"m 391 596 b 543 439 479 596 539 532 l 235 439 b 391 596 241 530 304 596 z m 546 222 b 399 131 528 167 472 131 b 233 306 298 131 233 202 l 233 318 l 734 318 l 734 378 b 389 743 734 600 600 743 b 38 360 174 743 38 592 b 396 -16 38 127 172 -16 b 728 222 576 -16 706 80 z m 388 829 b 490 930 445 829 490 875 b 388 1031 490 985 445 1031 b 286 930 331 1031 286 985 b 388 829 286 875 331 829 z "},"ȩ":{"ha":771,"x_min":0,"x_max":0,"o":"m 235 439 b 391 596 241 530 304 596 b 543 439 479 596 539 532 z m 734 318 l 734 378 b 389 743 734 600 600 743 b 38 360 174 743 38 592 b 345 -13 38 146 152 7 l 311 -87 l 311 -154 l 353 -154 b 437 -191 413 -154 437 -163 b 361 -228 437 -216 412 -228 b 286 -220 335 -228 302 -224 l 286 -302 b 382 -312 303 -309 343 -313 b 550 -186 485 -311 550 -268 b 422 -75 550 -117 499 -75 l 451 -12 b 728 222 602 5 708 95 l 546 222 b 399 131 528 167 472 131 b 233 306 298 131 233 202 l 233 318 z "},"ḝ":{"ha":771,"x_min":0,"x_max":0,"o":"m 509 1038 b 388 919 507 967 460 919 b 268 1038 315 919 269 967 l 145 1038 b 388 819 147 915 235 819 b 631 1038 541 819 629 915 z m 235 439 b 391 596 241 530 304 596 b 543 439 479 596 539 532 z m 734 318 l 734 378 b 389 743 734 600 600 743 b 38 360 174 743 38 592 b 345 -13 38 146 152 7 l 311 -87 l 311 -154 l 353 -154 b 437 -191 413 -154 437 -163 b 361 -228 437 -216 412 -228 b 286 -220 335 -228 302 -224 l 286 -302 b 382 -312 303 -309 343 -313 b 550 -186 485 -311 550 -268 b 422 -75 550 -117 499 -75 l 451 -12 b 728 222 602 5 708 95 l 546 222 b 399 131 528 167 472 131 b 233 306 298 131 233 202 l 233 318 z "},"ę":{"ha":771,"x_min":0,"x_max":0,"o":"m 527 -305 b 624 -290 570 -305 605 -299 l 624 -185 b 573 -191 613 -189 593 -191 b 492 -124 524 -191 492 -169 b 617 47 492 -73 536 -19 b 728 222 669 90 716 149 l 546 222 b 399 131 528 168 473 131 b 233 306 298 131 233 202 l 233 318 l 734 318 l 734 378 b 389 743 734 600 600 743 b 38 360 174 743 38 592 b 396 -16 38 127 172 -16 b 443 -12 416 -16 431 -15 l 443 -16 b 349 -163 382 -54 349 -106 b 527 -305 349 -248 423 -305 z m 391 596 b 543 439 479 596 539 532 l 235 439 b 391 596 241 530 304 596 z "},"f":{"ha":494,"x_min":0,"x_max":0,"o":"m 117 0 l 315 0 l 315 578 l 455 578 l 455 724 l 311 724 l 311 772 b 404 852 311 823 339 852 b 458 848 424 852 444 850 l 458 979 b 357 987 435 983 393 987 b 117 779 184 987 117 921 l 117 724 l 18 724 l 18 578 l 117 578 z "},"ḟ":{"ha":489,"x_min":0,"x_max":0,"o":"m 117 0 l 315 0 l 315 578 l 455 578 l 455 724 l 311 724 l 311 772 b 404 852 311 823 339 852 b 458 848 424 852 444 850 l 458 979 b 357 987 435 983 393 987 b 117 779 184 987 117 921 l 117 724 l 18 724 l 18 578 l 117 578 z m 292 1066 b 393 1167 349 1066 393 1112 b 292 1268 393 1223 349 1268 b 191 1167 235 1268 191 1223 b 292 1066 191 1112 235 1066 z "},"g":{"ha":824,"x_min":0,"x_max":0,"o":"m 400 155 b 241 365 302 155 241 232 b 400 580 241 497 302 580 b 562 365 499 580 562 496 b 400 155 562 233 499 155 z m 397 -274 b 760 10 614 -274 760 -163 l 760 727 l 564 727 l 564 600 l 561 600 b 336 739 523 684 441 739 b 38 366 152 739 38 597 b 333 2 38 139 155 2 b 557 132 438 2 524 55 l 562 132 l 562 5 b 402 -136 562 -79 505 -136 b 254 -52 327 -136 270 -102 l 60 -52 b 397 -274 76 -181 205 -274 z "},"ǵ":{"ha":824,"x_min":0,"x_max":0,"o":"m 400 155 b 241 365 302 155 241 232 b 400 580 241 497 302 580 b 562 365 499 580 562 496 b 400 155 562 233 499 155 z m 397 -274 b 760 10 614 -274 760 -163 l 760 727 l 564 727 l 564 600 l 561 600 b 336 739 523 684 441 739 b 38 366 152 739 38 597 b 333 2 38 139 155 2 b 557 132 438 2 524 55 l 562 132 l 562 5 b 402 -136 562 -79 505 -136 b 254 -52 327 -136 270 -102 l 60 -52 b 397 -274 76 -181 205 -274 z m 481 829 l 655 1040 l 473 1040 l 323 829 z "},"ǧ":{"ha":824,"x_min":0,"x_max":0,"o":"m 400 155 b 241 365 302 155 241 232 b 400 580 241 497 302 580 b 562 365 499 580 562 496 b 400 155 562 233 499 155 z m 397 -274 b 760 10 614 -274 760 -163 l 760 727 l 564 727 l 564 600 l 561 600 b 336 739 523 684 441 739 b 38 366 152 739 38 597 b 333 2 38 139 155 2 b 557 132 438 2 524 55 l 562 132 l 562 5 b 402 -136 562 -79 505 -136 b 254 -52 327 -136 270 -102 l 60 -52 b 397 -274 76 -181 205 -274 z m 480 823 l 659 1038 l 507 1038 l 406 911 l 401 911 l 301 1038 l 149 1038 l 328 823 z "},"ĝ":{"ha":824,"x_min":0,"x_max":0,"o":"m 400 155 b 241 365 302 155 241 232 b 400 580 241 497 302 580 b 562 365 499 580 562 496 b 400 155 562 233 499 155 z m 397 -274 b 760 10 614 -274 760 -163 l 760 727 l 564 727 l 564 600 l 561 600 b 336 739 523 684 441 739 b 38 366 152 739 38 597 b 333 2 38 139 155 2 b 557 132 438 2 524 55 l 562 132 l 562 5 b 402 -136 562 -79 505 -136 b 254 -52 327 -136 270 -102 l 60 -52 b 397 -274 76 -181 205 -274 z m 480 1038 l 328 1038 l 149 823 l 301 823 l 401 949 l 406 949 l 507 823 l 659 823 z "},"ğ":{"ha":824,"x_min":0,"x_max":0,"o":"m 400 155 b 241 365 302 155 241 232 b 400 580 241 497 302 580 b 562 365 499 580 562 496 b 400 155 562 233 499 155 z m 397 -274 b 760 10 614 -274 760 -163 l 760 727 l 564 727 l 564 600 l 561 600 b 336 739 523 684 441 739 b 38 366 152 739 38 597 b 333 2 38 139 155 2 b 557 132 438 2 524 55 l 562 132 l 562 5 b 402 -136 562 -79 505 -136 b 254 -52 327 -136 270 -102 l 60 -52 b 397 -274 76 -181 205 -274 z m 161 1038 b 404 819 163 915 251 819 b 647 1038 556 819 645 915 l 524 1038 b 404 919 523 967 476 919 b 283 1038 331 919 285 967 z "},"ḡ":{"ha":824,"x_min":0,"x_max":0,"o":"m 400 155 b 241 365 302 155 241 232 b 400 580 241 497 302 580 b 562 365 499 580 562 496 b 400 155 562 233 499 155 z m 397 -274 b 760 10 614 -274 760 -163 l 760 727 l 564 727 l 564 600 l 561 600 b 336 739 523 684 441 739 b 38 366 152 739 38 597 b 333 2 38 139 155 2 b 557 132 438 2 524 55 l 562 132 l 562 5 b 402 -136 562 -79 505 -136 b 254 -52 327 -136 270 -102 l 60 -52 b 397 -274 76 -181 205 -274 z m 621 951 l 188 951 l 188 851 l 621 851 z "},"ġ":{"ha":824,"x_min":0,"x_max":0,"o":"m 400 155 b 241 365 302 155 241 232 b 400 580 241 497 302 580 b 562 365 499 580 562 496 b 400 155 562 233 499 155 z m 397 -274 b 760 10 614 -274 760 -163 l 760 727 l 564 727 l 564 600 l 561 600 b 336 739 523 684 441 739 b 38 366 152 739 38 597 b 333 2 38 139 155 2 b 557 132 438 2 524 55 l 562 132 l 562 5 b 402 -136 562 -79 505 -136 b 254 -52 327 -136 270 -102 l 60 -52 b 397 -274 76 -181 205 -274 z m 404 829 b 505 930 460 829 505 875 b 404 1031 505 985 460 1031 b 301 930 347 1031 301 985 b 404 829 301 875 347 829 z "},"ģ":{"ha":824,"x_min":0,"x_max":0,"o":"m 400 155 b 241 365 302 155 241 232 b 400 580 241 497 302 580 b 562 365 499 580 562 496 b 400 155 562 233 499 155 z m 397 -274 b 760 10 614 -274 760 -163 l 760 727 l 564 727 l 564 600 l 561 600 b 336 739 523 684 441 739 b 38 366 152 739 38 597 b 333 2 38 139 155 2 b 557 132 438 2 524 55 l 562 132 l 562 5 b 402 -136 562 -79 505 -136 b 254 -52 327 -136 270 -102 l 60 -52 b 397 -274 76 -181 205 -274 z m 424 1047 l 309 817 l 483 817 l 571 1047 z "},"h":{"ha":812,"x_min":0,"x_max":0,"o":"m 69 0 l 267 0 l 267 415 b 416 576 267 511 322 576 b 552 426 506 576 552 519 l 552 0 l 750 0 l 750 468 b 496 741 750 636 658 741 b 268 597 386 741 307 689 l 264 597 l 264 979 l 69 979 z "},"ḧ":{"ha":812,"x_min":0,"x_max":0,"o":"m 69 0 l 267 0 l 267 415 b 416 576 267 511 322 576 b 552 426 506 576 552 519 l 552 0 l 750 0 l 750 468 b 496 741 750 636 658 741 b 268 597 386 741 307 689 l 264 597 l 264 979 l 69 979 z m 30 1065 b 121 1154 81 1065 121 1105 b 30 1242 121 1202 81 1242 b -61 1154 -22 1242 -61 1202 b 30 1065 -61 1105 -22 1065 z m 307 1065 b 397 1154 358 1065 397 1105 b 307 1242 397 1202 358 1242 b 216 1154 255 1242 216 1202 b 307 1065 216 1105 255 1065 z "},"ȟ":{"ha":812,"x_min":0,"x_max":0,"o":"m 69 0 l 267 0 l 267 415 b 416 576 267 511 322 576 b 552 426 506 576 552 519 l 552 0 l 750 0 l 750 468 b 496 741 750 636 658 741 b 268 597 386 741 307 689 l 264 597 l 264 979 l 69 979 z m 92 1046 l 244 1046 l 427 1261 l 277 1261 l 171 1131 l 165 1131 l 60 1261 l -90 1261 z "},"ĥ":{"ha":812,"x_min":0,"x_max":0,"o":"m 69 0 l 267 0 l 267 415 b 416 576 267 511 322 576 b 552 426 506 576 552 519 l 552 0 l 750 0 l 750 468 b 496 741 750 636 658 741 b 268 597 386 741 307 689 l 264 597 l 264 979 l 69 979 z m 92 1258 l -90 1043 l 60 1043 l 165 1173 l 171 1173 l 277 1043 l 427 1043 l 244 1258 z "},"ḥ":{"ha":812,"x_min":0,"x_max":0,"o":"m 69 0 l 267 0 l 267 415 b 416 576 267 511 322 576 b 552 426 506 576 552 519 l 552 0 l 750 0 l 750 468 b 496 741 750 636 658 741 b 268 597 386 741 307 689 l 264 597 l 264 979 l 69 979 z m 409 -309 b 510 -208 466 -309 510 -264 b 409 -107 510 -153 466 -107 b 308 -208 352 -107 308 -153 b 409 -309 308 -264 352 -309 z "},"ḣ":{"ha":812,"x_min":0,"x_max":0,"o":"m 69 0 l 267 0 l 267 415 b 416 576 267 511 322 576 b 552 426 506 576 552 519 l 552 0 l 750 0 l 750 468 b 496 741 750 636 658 741 b 268 597 386 741 307 689 l 264 597 l 264 979 l 69 979 z m 168 1059 b 269 1160 225 1059 269 1104 b 168 1261 269 1215 225 1261 b 67 1160 111 1261 67 1215 b 168 1059 67 1104 111 1059 z "},"ḫ":{"ha":812,"x_min":0,"x_max":0,"o":"m 69 0 l 267 0 l 267 415 b 416 576 267 511 322 576 b 552 426 506 576 552 519 l 552 0 l 750 0 l 750 468 b 496 741 750 636 658 741 b 268 597 386 741 307 689 l 264 597 l 264 979 l 69 979 z m 166 -87 b 409 -304 172 -203 258 -304 b 652 -87 559 -304 646 -203 l 529 -87 b 409 -203 524 -157 479 -203 b 289 -87 339 -203 294 -157 z "},"ḩ":{"ha":812,"x_min":0,"x_max":0,"o":"m 264 597 l 264 979 l 69 979 l 69 0 l 161 0 l 121 -87 l 121 -154 l 163 -154 b 247 -191 223 -154 247 -163 b 172 -228 247 -216 222 -228 b 96 -220 145 -228 112 -224 l 96 -302 b 192 -312 113 -309 153 -313 b 360 -186 295 -311 360 -268 b 233 -75 360 -117 309 -75 l 267 0 l 267 8 l 267 415 b 416 576 267 511 322 576 b 552 426 506 576 552 519 l 552 0 l 750 0 l 750 468 b 496 741 750 636 658 741 b 268 597 386 741 307 689 z "},"ħ":{"ha":820,"x_min":0,"x_max":0,"o":"m 273 597 l 273 809 l 417 809 l 417 909 l 273 909 l 273 979 l 78 979 l 78 909 l 18 909 l 18 809 l 78 809 l 78 0 l 276 0 l 276 415 b 424 576 276 511 331 576 b 561 426 514 576 561 519 l 561 0 l 759 0 l 759 468 b 505 741 759 636 667 741 b 277 597 395 741 315 689 z "},"ẖ":{"ha":812,"x_min":0,"x_max":0,"o":"m 69 0 l 267 0 l 267 415 b 416 576 267 511 322 576 b 552 426 506 576 552 519 l 552 0 l 750 0 l 750 468 b 496 741 750 636 658 741 b 268 597 386 741 307 689 l 264 597 l 264 979 l 69 979 z m 644 -155 l 174 -155 l 174 -256 l 644 -256 z "},"i":{"ha":333,"x_min":0,"x_max":0,"o":"m 68 0 l 266 0 l 266 727 l 68 727 z m 167 807 b 273 909 227 807 273 852 b 167 1012 273 967 227 1012 b 61 909 107 1012 61 967 b 167 807 61 852 107 807 z "},"ì":{"ha":333,"x_min":0,"x_max":0,"o":"m 68 0 l 266 0 l 266 727 l 68 727 z m 248 829 l 98 1040 l -84 1040 l 90 829 z "},"ȉ":{"ha":333,"x_min":0,"x_max":0,"o":"m 68 0 l 266 0 l 266 727 l 68 727 z m 116 829 l -12 1040 l -180 1040 l -26 829 z m 367 829 l 239 1040 l 71 1040 l 225 829 z "},"í":{"ha":333,"x_min":0,"x_max":0,"o":"m 68 0 l 266 0 l 266 727 l 68 727 z m 244 829 l 418 1040 l 236 1040 l 86 829 z "},"î":{"ha":333,"x_min":0,"x_max":0,"o":"m 68 0 l 266 0 l 266 727 l 68 727 z m 243 1038 l 91 1038 l -88 823 l 64 823 l 164 949 l 169 949 l 270 823 l 421 823 z "},"ǐ":{"ha":333,"x_min":0,"x_max":0,"o":"m 68 0 l 266 0 l 266 727 l 68 727 z m 243 823 l 421 1038 l 270 1038 l 169 911 l 164 911 l 64 1038 l -88 1038 l 91 823 z "},"ï":{"ha":333,"x_min":0,"x_max":0,"o":"m 68 0 l 266 0 l 266 727 l 68 727 z m 28 827 b 119 916 80 827 119 867 b 28 1004 119 964 80 1004 b -62 916 -23 1004 -62 964 b 28 827 -62 867 -23 827 z m 305 827 b 396 916 357 827 396 867 b 305 1004 396 964 357 1004 b 214 916 254 1004 214 964 b 305 827 214 867 254 827 z "},"ḯ":{"ha":333,"x_min":0,"x_max":0,"o":"m 68 0 l 266 0 l 266 727 l 68 727 z m 88 1059 l 233 1059 l 393 1255 l 228 1255 z m 28 810 b 119 899 80 810 119 850 b 28 987 119 947 80 987 b -62 899 -23 987 -62 947 b 28 810 -62 850 -23 810 z m 305 810 b 396 899 357 810 396 850 b 305 987 396 947 357 987 b 214 899 254 987 214 947 b 305 810 214 850 254 810 z "},"ĭ":{"ha":333,"x_min":0,"x_max":0,"o":"m 68 0 l 266 0 l 266 727 l 68 727 z m -77 1038 b 166 819 -75 915 14 819 b 410 1038 319 819 408 915 l 287 1038 b 166 919 286 967 239 919 b 46 1038 94 919 47 967 z "},"ị":{"ha":333,"x_min":0,"x_max":0,"o":"m 68 0 l 266 0 l 266 727 l 68 727 z m 167 807 b 273 909 227 807 273 852 b 167 1012 273 967 227 1012 b 61 909 107 1012 61 967 b 167 807 61 852 107 807 z m 167 -309 b 268 -208 224 -309 268 -264 b 167 -107 268 -153 224 -107 b 66 -208 110 -107 66 -153 b 167 -309 66 -264 110 -309 z "},"ȋ":{"ha":333,"x_min":0,"x_max":0,"o":"m 68 0 l 266 0 l 266 727 l 68 727 z m -77 823 l 46 823 b 167 941 47 893 94 941 b 288 823 239 941 286 893 l 410 823 b 167 1041 408 946 319 1041 b -77 823 14 1041 -75 946 z "},"ī":{"ha":333,"x_min":0,"x_max":0,"o":"m 68 0 l 266 0 l 266 727 l 68 727 z m 351 951 l -17 951 l -17 851 l 351 851 z "},"ḭ":{"ha":333,"x_min":0,"x_max":0,"o":"m 68 0 l 266 0 l 266 727 l 68 727 z m 167 807 b 273 909 227 807 273 852 b 167 1012 273 967 227 1012 b 61 909 107 1012 61 967 b 167 807 61 852 107 807 z m 263 -271 b 412 -83 345 -271 412 -201 l 304 -83 b 257 -168 302 -137 287 -168 b 77 -76 208 -168 175 -76 b -72 -262 -7 -76 -72 -142 l 36 -262 b 83 -179 36 -212 52 -179 b 263 -271 134 -179 169 -271 z "},"ỉ":{"ha":333,"x_min":0,"x_max":0,"o":"m 68 0 l 266 0 l 266 727 l 68 727 z m 53 986 b 122 1000 77 996 98 1000 b 191 947 163 1000 191 978 b 126 869 191 911 173 890 l 184 799 b 312 956 264 833 312 892 b 154 1096 312 1041 250 1096 b 53 1078 119 1096 80 1089 z "},"ĩ":{"ha":333,"x_min":0,"x_max":0,"o":"m 68 0 l 266 0 l 266 727 l 68 727 z m 264 826 b 413 1014 347 826 413 897 l 305 1014 b 258 930 304 960 288 930 b 79 1021 210 930 176 1021 b -71 836 -5 1021 -71 955 l 37 836 b 85 918 37 885 54 918 b 264 826 135 918 170 826 z "},"į":{"ha":333,"x_min":0,"x_max":0,"o":"m 167 804 b 273 906 225 804 273 848 b 167 1008 273 965 225 1008 b 61 906 109 1008 61 965 b 167 804 61 848 109 804 z m 68 -16 b -11 -159 16 -55 -11 -109 b 172 -305 -11 -247 63 -305 b 267 -290 210 -305 248 -299 l 267 -186 b 216 -191 249 -189 232 -191 b 132 -125 163 -191 132 -168 b 241 -3 132 -69 178 -29 l 266 3 l 266 727 l 68 727 z "},"j":{"ha":333,"x_min":0,"x_max":0,"o":"m 266 727 l 68 727 l 68 -28 b -24 -111 68 -87 42 -111 b -49 -110 -31 -111 -44 -111 l -49 -256 b 5 -258 -40 -257 -10 -258 b 266 -34 176 -258 266 -181 z m 167 807 b 273 909 227 807 273 852 b 167 1012 273 967 227 1012 b 61 909 107 1012 61 967 b 167 807 61 852 107 807 z "},"ĵ":{"ha":333,"x_min":0,"x_max":0,"o":"m 266 727 l 68 727 l 68 -28 b -24 -111 68 -87 42 -111 b -49 -110 -31 -111 -44 -111 l -49 -256 b 5 -258 -40 -257 -10 -258 b 266 -34 176 -258 266 -181 z m 242 1038 l 90 1038 l -89 823 l 63 823 l 163 949 l 168 949 l 269 823 l 420 823 z "},"k":{"ha":747,"x_min":0,"x_max":0,"o":"m 270 435 l 267 435 l 267 979 l 69 979 l 69 0 l 267 0 l 267 240 l 319 296 l 527 0 l 755 0 l 464 415 l 741 727 l 517 727 z "},"ḱ":{"ha":747,"x_min":0,"x_max":0,"o":"m 270 435 l 267 435 l 267 979 l 69 979 l 69 0 l 267 0 l 267 240 l 319 296 l 527 0 l 755 0 l 464 415 l 741 727 l 517 727 z m 245 1057 l 427 1263 l 243 1263 l 90 1057 z "},"ǩ":{"ha":747,"x_min":0,"x_max":0,"o":"m 270 435 l 267 435 l 267 979 l 69 979 l 69 0 l 267 0 l 267 240 l 319 296 l 527 0 l 755 0 l 464 415 l 741 727 l 517 727 z m 92 1046 l 243 1046 l 426 1261 l 276 1261 l 170 1131 l 165 1131 l 59 1261 l -91 1261 z "},"ḳ":{"ha":747,"x_min":0,"x_max":0,"o":"m 270 435 l 267 435 l 267 979 l 69 979 l 69 0 l 267 0 l 267 240 l 319 296 l 527 0 l 755 0 l 464 415 l 741 727 l 517 727 z m 387 -309 b 488 -208 444 -309 488 -264 b 387 -107 488 -153 444 -107 b 286 -208 330 -107 286 -153 b 387 -309 286 -264 330 -309 z "},"ḵ":{"ha":747,"x_min":0,"x_max":0,"o":"m 270 435 l 267 435 l 267 979 l 69 979 l 69 0 l 267 0 l 267 240 l 319 296 l 527 0 l 755 0 l 464 415 l 741 727 l 517 727 z m 621 -155 l 152 -155 l 152 -256 l 621 -256 z "},"ķ":{"ha":747,"x_min":0,"x_max":0,"o":"m 270 435 l 267 435 l 267 979 l 69 979 l 69 0 l 267 0 l 267 240 l 319 296 l 527 0 l 755 0 l 464 415 l 741 727 l 517 727 z m 367 -320 l 481 -90 l 308 -90 l 220 -320 z "},"l":{"ha":336,"x_min":0,"x_max":0,"o":"m 69 0 l 267 0 l 267 979 l 69 979 z "},"ĺ":{"ha":336,"x_min":0,"x_max":0,"o":"m 69 0 l 267 0 l 267 979 l 69 979 z m 246 1057 l 427 1263 l 243 1263 l 90 1057 z "},"ḽ":{"ha":336,"x_min":0,"x_max":0,"o":"m 69 0 l 267 0 l 267 979 l 69 979 z m 92 -96 l -90 -311 l 60 -311 l 165 -180 l 171 -180 l 277 -311 l 427 -311 l 244 -96 z "},"ḷ":{"ha":336,"x_min":0,"x_max":0,"o":"m 69 0 l 267 0 l 267 979 l 69 979 z m 168 -309 b 269 -208 225 -309 269 -264 b 168 -107 269 -153 225 -107 b 67 -208 111 -107 67 -153 b 168 -309 67 -264 111 -309 z "},"ḹ":{"ha":336,"x_min":0,"x_max":0,"o":"m 69 0 l 267 0 l 267 979 l 69 979 z m 168 -309 b 269 -208 225 -309 269 -264 b 168 -107 269 -153 225 -107 b 67 -208 111 -107 67 -153 b 168 -309 67 -264 111 -309 z m 403 1199 l -66 1199 l -66 1099 l 403 1099 z "},"ḻ":{"ha":336,"x_min":0,"x_max":0,"o":"m 69 0 l 267 0 l 267 979 l 69 979 z m 403 -155 l -66 -155 l -66 -256 l 403 -256 z "},"ļ":{"ha":336,"x_min":0,"x_max":0,"o":"m 69 0 l 267 0 l 267 979 l 69 979 z m 149 -320 l 263 -90 l 90 -90 l 1 -320 z "},"ľ":{"ha":484,"x_min":0,"x_max":0,"o":"m 368 981 l 368 649 l 488 649 l 515 981 z m 69 0 l 267 0 l 267 979 l 69 979 z "},"ł":{"ha":362,"x_min":0,"x_max":0,"o":"m 351 703 l 280 665 l 280 979 l 82 979 l 82 557 l 12 518 l 12 384 l 82 422 l 82 0 l 280 0 l 280 531 l 351 570 z "},"m":{"ha":1199,"x_min":0,"x_max":0,"o":"m 64 0 l 262 0 l 262 439 b 389 577 262 520 313 577 b 506 453 462 577 506 531 l 506 0 l 696 0 l 696 441 b 821 577 696 522 746 577 b 940 447 898 577 940 531 l 940 0 l 1138 0 l 1138 496 b 900 741 1138 643 1042 741 b 674 591 793 741 707 683 l 670 591 b 467 741 646 686 572 741 b 260 595 368 741 290 683 l 256 595 l 256 727 l 64 727 z "},"ḿ":{"ha":1199,"x_min":0,"x_max":0,"o":"m 64 0 l 262 0 l 262 439 b 389 577 262 520 313 577 b 506 453 462 577 506 531 l 506 0 l 696 0 l 696 441 b 821 577 696 522 746 577 b 940 447 898 577 940 531 l 940 0 l 1138 0 l 1138 496 b 900 741 1138 643 1042 741 b 674 591 793 741 707 683 l 670 591 b 467 741 646 686 572 741 b 260 595 368 741 290 683 l 256 595 l 256 727 l 64 727 z m 677 829 l 851 1040 l 669 1040 l 519 829 z "},"ṁ":{"ha":1199,"x_min":0,"x_max":0,"o":"m 64 0 l 262 0 l 262 439 b 389 577 262 520 313 577 b 506 453 462 577 506 531 l 506 0 l 696 0 l 696 441 b 821 577 696 522 746 577 b 940 447 898 577 940 531 l 940 0 l 1138 0 l 1138 496 b 900 741 1138 643 1042 741 b 674 591 793 741 707 683 l 670 591 b 467 741 646 686 572 741 b 260 595 368 741 290 683 l 256 595 l 256 727 l 64 727 z m 600 829 b 701 930 656 829 701 875 b 600 1031 701 985 656 1031 b 497 930 543 1031 497 985 b 600 829 497 875 543 829 z "},"ṃ":{"ha":1199,"x_min":0,"x_max":0,"o":"m 64 0 l 262 0 l 262 439 b 389 577 262 520 313 577 b 506 453 462 577 506 531 l 506 0 l 696 0 l 696 441 b 821 577 696 522 746 577 b 940 447 898 577 940 531 l 940 0 l 1138 0 l 1138 496 b 900 741 1138 643 1042 741 b 674 591 793 741 707 683 l 670 591 b 467 741 646 686 572 741 b 260 595 368 741 290 683 l 256 595 l 256 727 l 64 727 z m 600 -309 b 701 -208 657 -309 701 -264 b 600 -107 701 -153 657 -107 b 499 -208 543 -107 499 -153 b 600 -309 499 -264 543 -309 z "},"n":{"ha":800,"x_min":0,"x_max":0,"o":"m 64 0 l 262 0 l 262 417 b 408 576 262 511 319 576 b 541 427 496 576 541 522 l 541 0 l 739 0 l 739 469 b 487 741 739 639 648 741 b 260 597 375 741 298 688 l 256 597 l 256 727 l 64 727 z "},"ǹ":{"ha":800,"x_min":0,"x_max":0,"o":"m 64 0 l 262 0 l 262 417 b 408 576 262 511 319 576 b 541 427 496 576 541 522 l 541 0 l 739 0 l 739 469 b 487 741 739 639 648 741 b 260 597 375 741 298 688 l 256 597 l 256 727 l 64 727 z m 482 829 l 332 1040 l 151 1040 l 324 829 z "},"ń":{"ha":800,"x_min":0,"x_max":0,"o":"m 64 0 l 262 0 l 262 417 b 408 576 262 511 319 576 b 541 427 496 576 541 522 l 541 0 l 739 0 l 739 469 b 487 741 739 639 648 741 b 260 597 375 741 298 688 l 256 597 l 256 727 l 64 727 z m 479 829 l 652 1040 l 471 1040 l 321 829 z "},"ñ":{"ha":800,"x_min":0,"x_max":0,"o":"m 64 0 l 262 0 l 262 417 b 408 576 262 511 319 576 b 541 427 496 576 541 522 l 541 0 l 739 0 l 739 469 b 487 741 739 639 648 741 b 260 597 375 741 298 688 l 256 597 l 256 727 l 64 727 z m 499 826 b 648 1014 581 826 648 897 l 540 1014 b 493 930 538 960 523 930 b 313 1021 444 930 411 1021 b 164 836 229 1021 164 955 l 272 836 b 319 918 272 885 288 918 b 499 826 370 918 405 826 z "},"ṇ":{"ha":800,"x_min":0,"x_max":0,"o":"m 64 0 l 262 0 l 262 417 b 408 576 262 511 319 576 b 541 427 496 576 541 522 l 541 0 l 739 0 l 739 469 b 487 741 739 639 648 741 b 260 597 375 741 298 688 l 256 597 l 256 727 l 64 727 z m 405 -309 b 506 -208 462 -309 506 -264 b 405 -107 506 -153 462 -107 b 304 -208 348 -107 304 -153 b 405 -309 304 -264 348 -309 z "},"ṅ":{"ha":800,"x_min":0,"x_max":0,"o":"m 64 0 l 262 0 l 262 417 b 408 576 262 511 319 576 b 541 427 496 576 541 522 l 541 0 l 739 0 l 739 469 b 487 741 739 639 648 741 b 260 597 375 741 298 688 l 256 597 l 256 727 l 64 727 z m 401 829 b 503 930 458 829 503 875 b 401 1031 503 985 458 1031 b 298 930 344 1031 298 985 b 401 829 298 875 344 829 z "},"ň":{"ha":800,"x_min":0,"x_max":0,"o":"m 64 0 l 262 0 l 262 417 b 408 576 262 511 319 576 b 541 427 496 576 541 522 l 541 0 l 739 0 l 739 469 b 487 741 739 639 648 741 b 260 597 375 741 298 688 l 256 597 l 256 727 l 64 727 z m 477 823 l 656 1038 l 505 1038 l 404 911 l 399 911 l 298 1038 l 146 1038 l 326 823 z "},"ṋ":{"ha":800,"x_min":0,"x_max":0,"o":"m 64 0 l 262 0 l 262 417 b 408 576 262 511 319 576 b 541 427 496 576 541 522 l 541 0 l 739 0 l 739 469 b 487 741 739 639 648 741 b 260 597 375 741 298 688 l 256 597 l 256 727 l 64 727 z m 329 -96 l 146 -311 l 296 -311 l 402 -180 l 408 -180 l 513 -311 l 663 -311 l 481 -96 z "},"ṉ":{"ha":800,"x_min":0,"x_max":0,"o":"m 64 0 l 262 0 l 262 417 b 408 576 262 511 319 576 b 541 427 496 576 541 522 l 541 0 l 739 0 l 739 469 b 487 741 739 639 648 741 b 260 597 375 741 298 688 l 256 597 l 256 727 l 64 727 z m 640 -155 l 170 -155 l 170 -256 l 640 -256 z "},"ņ":{"ha":800,"x_min":0,"x_max":0,"o":"m 64 0 l 262 0 l 262 417 b 408 576 262 511 319 576 b 541 427 496 576 541 522 l 541 0 l 739 0 l 739 469 b 487 741 739 639 648 741 b 260 597 375 741 298 688 l 256 597 l 256 727 l 64 727 z m 385 -320 l 500 -90 l 326 -90 l 238 -320 z "},"o":{"ha":795,"x_min":0,"x_max":0,"o":"m 398 -16 b 758 364 618 -16 758 125 b 398 743 758 600 616 743 b 38 364 180 743 38 600 b 398 -16 38 125 178 -16 z m 398 136 b 239 363 300 136 239 218 b 398 591 239 508 302 591 b 557 363 494 591 557 508 b 398 136 557 218 495 136 z "},"ö":{"ha":795,"x_min":0,"x_max":0,"o":"m 398 -16 b 758 364 618 -16 758 125 b 398 743 758 600 616 743 b 38 364 180 743 38 600 b 398 -16 38 125 178 -16 z m 398 136 b 239 363 300 136 239 218 b 398 591 239 508 302 591 b 557 363 494 591 557 508 b 398 136 557 218 495 136 z m 260 827 b 351 916 311 827 351 867 b 260 1004 351 964 311 1004 b 169 916 208 1004 169 964 b 260 827 169 867 208 827 z m 536 827 b 627 916 588 827 627 867 b 536 1004 627 964 588 1004 b 446 916 485 1004 446 964 b 536 827 446 867 485 827 z "},"ø":{"ha":795,"x_min":0,"x_max":0,"o":"m 533 497 b 557 363 549 461 557 416 b 398 136 557 218 495 136 b 321 157 369 136 343 143 z m 267 220 b 239 363 249 257 239 305 b 398 591 239 508 302 591 b 481 565 430 591 458 583 z m 681 734 l 611 772 l 570 707 b 398 743 520 730 463 743 b 38 364 180 743 38 600 b 165 58 38 227 84 122 l 125 -6 l 193 -47 l 233 17 b 398 -16 281 -5 336 -16 b 758 364 618 -16 758 125 b 637 663 758 496 714 598 z "},"õ":{"ha":795,"x_min":0,"x_max":0,"o":"m 398 -16 b 758 364 618 -16 758 125 b 398 743 758 600 616 743 b 38 364 180 743 38 600 b 398 -16 38 125 178 -16 z m 398 136 b 239 363 300 136 239 218 b 398 591 239 508 302 591 b 557 363 494 591 557 508 b 398 136 557 218 495 136 z m 496 826 b 644 1014 578 826 644 897 l 536 1014 b 490 930 535 960 519 930 b 310 1021 441 930 408 1021 b 161 836 226 1021 161 955 l 269 836 b 316 918 269 885 285 918 b 496 826 366 918 401 826 z "},"ó":{"ha":795,"x_min":0,"x_max":0,"o":"m 398 -16 b 758 364 618 -16 758 125 b 398 743 758 600 616 743 b 38 364 180 743 38 600 b 398 -16 38 125 178 -16 z m 398 136 b 239 363 300 136 239 218 b 398 591 239 508 302 591 b 557 363 494 591 557 508 b 398 136 557 218 495 136 z m 475 829 l 649 1040 l 467 1040 l 317 829 z "},"ô":{"ha":795,"x_min":0,"x_max":0,"o":"m 398 -16 b 758 364 618 -16 758 125 b 398 743 758 600 616 743 b 38 364 180 743 38 600 b 398 -16 38 125 178 -16 z m 398 136 b 239 363 300 136 239 218 b 398 591 239 508 302 591 b 557 363 494 591 557 508 b 398 136 557 218 495 136 z m 474 1038 l 322 1038 l 143 823 l 295 823 l 395 949 l 400 949 l 501 823 l 652 823 z "},"ò":{"ha":795,"x_min":0,"x_max":0,"o":"m 398 -16 b 758 364 618 -16 758 125 b 398 743 758 600 616 743 b 38 364 180 743 38 600 b 398 -16 38 125 178 -16 z m 398 136 b 239 363 300 136 239 218 b 398 591 239 508 302 591 b 557 363 494 591 557 508 b 398 136 557 218 495 136 z m 479 829 l 329 1040 l 147 1040 l 321 829 z "},"ổ":{"ha":795,"x_min":0,"x_max":0,"o":"m 398 -16 b 758 364 618 -16 758 125 b 398 743 758 600 616 743 b 38 364 180 743 38 600 b 398 -16 38 125 178 -16 z m 398 136 b 239 363 300 136 239 218 b 398 591 239 508 302 591 b 557 363 494 591 557 508 b 398 136 557 218 495 136 z m 478 1160 b 541 1171 497 1168 518 1171 b 604 1122 578 1171 604 1152 b 544 1051 604 1094 583 1066 l 604 986 b 715 1135 677 1014 715 1065 b 559 1263 715 1213 655 1263 b 478 1249 530 1263 497 1257 z m 475 1031 l 321 1031 l 143 823 l 295 823 l 395 944 l 401 944 l 501 823 l 653 823 z "},"ồ":{"ha":795,"x_min":0,"x_max":0,"o":"m 398 -16 b 758 364 618 -16 758 125 b 398 743 758 600 616 743 b 38 364 180 743 38 600 b 398 -16 38 125 178 -16 z m 398 136 b 239 363 300 136 239 218 b 398 591 239 508 302 591 b 557 363 494 591 557 508 b 398 136 557 218 495 136 z m 475 1031 l 321 1031 l 143 823 l 295 823 l 395 944 l 401 944 l 501 823 l 653 823 z m 700 1059 l 560 1255 l 395 1255 l 555 1059 z "},"ọ":{"ha":795,"x_min":0,"x_max":0,"o":"m 398 -16 b 758 364 618 -16 758 125 b 398 743 758 600 616 743 b 38 364 180 743 38 600 b 398 -16 38 125 178 -16 z m 398 136 b 239 363 300 136 239 218 b 398 591 239 508 302 591 b 557 363 494 591 557 508 b 398 136 557 218 495 136 z m 398 -309 b 499 -208 455 -309 499 -264 b 398 -107 499 -153 455 -107 b 297 -208 341 -107 297 -153 b 398 -309 297 -264 341 -309 z "},"ȍ":{"ha":795,"x_min":0,"x_max":0,"o":"m 398 -16 b 758 364 618 -16 758 125 b 398 743 758 600 616 743 b 38 364 180 743 38 600 b 398 -16 38 125 178 -16 z m 398 136 b 239 363 300 136 239 218 b 398 591 239 508 302 591 b 557 363 494 591 557 508 b 398 136 557 218 495 136 z m 347 829 l 219 1040 l 52 1040 l 205 829 z m 598 829 l 470 1040 l 302 1040 l 456 829 z "},"ṍ":{"ha":795,"x_min":0,"x_max":0,"o":"m 398 -16 b 758 364 618 -16 758 125 b 398 743 758 600 616 743 b 38 364 180 743 38 600 b 398 -16 38 125 178 -16 z m 398 136 b 239 363 300 136 239 218 b 398 591 239 508 302 591 b 557 363 494 591 557 508 b 398 136 557 218 495 136 z m 321 1066 l 467 1066 l 621 1255 l 456 1255 z m 496 808 b 644 996 578 808 644 879 l 536 996 b 490 912 535 943 519 912 b 310 1004 441 912 408 1004 b 161 818 226 1004 161 937 l 269 818 b 316 901 269 867 285 901 b 496 808 366 901 401 808 z "},"ṓ":{"ha":795,"x_min":0,"x_max":0,"o":"m 398 -16 b 758 364 618 -16 758 125 b 398 743 758 600 616 743 b 38 364 180 743 38 600 b 398 -16 38 125 178 -16 z m 398 136 b 239 363 300 136 239 218 b 398 591 239 508 302 591 b 557 363 494 591 557 508 b 398 136 557 218 495 136 z m 319 1059 l 465 1059 l 624 1255 l 459 1255 z m 615 937 l 182 937 l 182 837 l 615 837 z "},"ỗ":{"ha":795,"x_min":0,"x_max":0,"o":"m 398 -16 b 758 364 618 -16 758 125 b 398 743 758 600 616 743 b 38 364 180 743 38 600 b 398 -16 38 125 178 -16 z m 398 136 b 239 363 300 136 239 218 b 398 591 239 508 302 591 b 557 363 494 591 557 508 b 398 136 557 218 495 136 z m 475 1025 l 321 1025 l 143 823 l 295 823 l 395 939 l 401 939 l 501 823 l 653 823 z m 491 1072 b 640 1255 574 1072 640 1141 l 532 1255 b 485 1174 531 1204 515 1174 b 306 1265 434 1174 399 1265 b 157 1084 222 1265 157 1199 l 264 1084 b 312 1162 264 1130 281 1162 b 491 1072 362 1162 397 1072 z "}}}
